<?xml version="1.0" encoding="UTF-8" ?>
<!DOCTYPE svg PUBLIC "-//W3C//DTD SVG 1.1//EN" "http://www.w3.org/Graphics/SVG/1.1/DTD/svg11.dtd">
<svg width="1234pt" height="616pt" viewBox="0 0 1234 616" version="1.1" xmlns="http://www.w3.org/2000/svg">
<g id="#1a171fff">
<path fill="#1a171f" opacity="1.00" d=" M 0.00 0.00 L 0.07 0.00 C 0.05 0.02 0.02 0.05 0.00 0.07 L 0.00 0.00 Z" />
<path fill="#1a171f" opacity="1.00" d=" M 442.99 81.99 C 464.66 82.00 486.33 82.00 508.01 81.99 C 507.99 103.66 507.99 125.33 508.01 147.01 C 486.33 146.99 464.66 146.99 442.99 147.01 C 443.00 125.33 443.00 103.66 442.99 81.99 M 453.00 91.00 C 453.00 107.00 452.99 123.00 453.00 139.00 C 468.66 139.00 484.33 139.00 500.00 139.00 C 499.99 123.00 500.00 107.00 500.00 91.00 C 484.33 91.00 468.66 91.00 453.00 91.00 Z" />
<path fill="#1a171f" opacity="1.00" d=" M 518.07 81.35 C 520.28 81.75 524.71 82.56 526.92 82.97 C 527.49 85.59 528.10 88.25 528.57 90.90 C 531.28 90.93 534.16 90.99 536.92 91.03 C 537.00 97.23 537.04 103.43 537.24 109.63 C 539.98 109.68 542.83 109.74 545.62 109.77 C 545.81 103.75 545.96 97.73 546.12 91.71 C 548.31 91.28 552.69 90.41 554.88 89.98 C 555.46 87.36 556.10 84.75 556.59 82.11 C 559.32 82.05 562.21 82.02 564.99 81.97 C 564.99 91.05 565.00 100.12 565.02 109.19 C 570.97 109.60 576.91 109.89 582.88 110.17 C 582.90 112.98 583.17 115.84 583.30 118.66 C 589.87 118.83 596.48 118.95 603.07 119.06 C 602.96 113.15 602.90 107.24 602.75 101.33 C 593.49 101.08 584.24 100.99 575.00 100.96 C 575.00 98.45 575.00 93.45 575.00 90.94 C 584.18 91.00 593.38 91.03 602.58 91.23 C 602.71 94.47 602.95 97.74 603.10 100.99 C 605.95 100.98 609.02 101.01 611.92 101.01 C 612.00 106.86 612.09 112.71 612.25 118.57 C 615.10 118.73 618.08 118.92 620.98 119.09 C 620.99 109.96 621.01 100.83 621.06 91.70 C 623.27 91.28 627.68 90.42 629.89 89.99 C 630.46 87.36 631.10 84.72 631.58 82.06 C 640.39 82.04 649.21 82.02 658.03 81.99 C 657.75 84.67 658.04 87.43 657.93 90.14 C 655.45 90.47 653.02 90.97 650.65 91.64 C 650.29 93.96 649.57 98.58 649.21 100.90 C 655.46 100.95 661.73 100.99 668.00 101.02 C 667.99 103.64 667.99 106.26 668.00 108.88 C 664.71 108.98 661.58 109.12 658.34 109.28 C 658.24 112.21 658.25 115.16 658.22 118.11 C 661.21 118.57 664.39 118.77 667.37 119.59 C 667.72 121.95 668.44 126.68 668.80 129.04 C 671.51 128.94 674.37 128.86 677.12 128.73 C 677.53 125.68 677.79 122.61 678.59 119.64 C 680.94 119.28 685.64 118.57 687.99 118.21 C 687.92 112.63 687.88 107.04 687.76 101.46 C 684.15 101.20 680.63 100.97 677.05 100.71 C 677.95 95.16 680.93 91.19 685.98 88.79 C 687.04 86.65 688.05 84.46 688.93 82.23 C 694.60 82.11 700.30 82.03 706.00 81.96 C 705.88 84.96 706.05 87.99 706.01 90.99 C 708.90 90.98 712.05 91.01 715.01 91.00 C 714.98 96.76 714.97 102.51 714.96 108.27 C 712.02 108.72 709.41 108.82 706.64 109.58 C 706.28 111.90 705.56 116.55 705.21 118.87 C 708.32 118.90 711.80 118.99 715.01 119.03 C 715.00 131.68 714.99 144.34 715.00 157.00 C 711.89 156.97 709.05 157.01 706.00 157.01 C 705.98 163.33 706.00 169.67 706.00 176.00 C 703.50 176.00 698.50 176.00 696.00 176.00 C 695.98 169.70 695.99 163.42 696.00 157.12 C 699.16 156.99 702.47 156.89 705.66 156.72 C 705.80 150.58 705.91 144.45 705.99 138.32 C 703.80 138.75 699.44 139.63 697.26 140.07 C 696.57 142.31 695.92 144.56 695.32 146.82 C 692.88 146.89 690.45 146.96 688.02 147.04 C 687.99 141.02 688.00 135.01 687.99 129.00 C 685.50 129.00 680.50 129.00 678.00 129.00 C 677.99 144.66 678.00 160.33 678.00 175.99 C 680.84 175.97 683.97 176.02 686.88 176.01 C 686.87 178.86 687.18 181.78 687.29 184.65 C 693.51 184.83 699.75 184.95 705.99 185.06 C 705.89 188.01 706.04 191.03 706.01 194.00 C 708.89 193.97 712.04 194.01 714.99 194.00 C 714.86 191.05 715.06 188.19 715.03 185.27 C 718.32 184.96 721.72 184.65 725.03 184.22 C 724.92 181.61 724.81 179.01 724.70 176.41 C 721.37 176.22 718.17 176.06 714.89 175.90 C 714.93 172.72 715.14 169.58 715.27 166.42 C 718.45 166.22 721.76 166.06 724.99 165.90 C 724.89 162.91 725.04 159.98 725.01 157.00 C 727.66 157.00 730.32 157.00 733.00 157.00 C 732.87 159.94 733.04 162.94 732.99 165.90 C 730.45 166.03 727.92 166.16 725.41 166.32 C 725.18 169.53 725.08 172.77 724.91 175.99 C 727.59 175.99 730.29 176.00 733.01 176.01 C 732.99 178.64 732.98 181.27 732.99 183.90 C 730.45 184.02 727.92 184.16 725.41 184.31 C 725.18 187.53 725.07 190.78 724.91 194.01 C 730.68 193.99 736.47 193.98 742.27 193.96 C 742.56 191.15 742.87 188.36 743.57 185.63 C 745.90 185.27 750.56 184.57 752.89 184.22 C 752.75 187.40 753.04 190.68 753.02 193.89 C 749.86 193.98 746.97 194.13 743.88 194.28 C 743.35 197.29 743.23 200.40 742.41 203.36 C 740.04 203.72 735.32 204.44 732.96 204.80 C 733.00 207.76 733.15 210.74 733.27 213.70 C 739.69 213.82 746.13 213.87 752.58 213.83 C 752.70 210.54 752.95 207.28 753.10 204.00 C 759.07 204.00 765.07 204.00 771.07 204.00 C 770.95 197.48 770.96 190.96 770.79 184.45 C 768.17 184.26 765.57 184.07 763.00 183.90 C 763.01 181.55 763.03 179.20 763.08 176.86 C 765.53 176.53 767.96 176.03 770.37 175.37 C 770.72 172.98 771.42 168.21 771.77 165.82 C 765.67 166.02 759.55 165.60 753.51 166.31 C 753.21 168.71 752.59 173.51 752.29 175.91 C 749.97 175.94 745.34 175.99 743.02 176.02 C 742.99 169.67 743.00 163.34 743.00 157.00 C 758.66 157.00 774.33 157.00 790.00 157.00 C 790.00 169.10 790.00 181.20 789.96 193.30 C 786.99 193.72 784.42 193.83 781.63 194.57 C 781.28 196.90 780.56 201.55 780.21 203.87 C 783.31 203.88 786.81 204.00 790.02 204.03 C 789.98 213.35 789.97 222.67 790.01 232.00 C 786.88 231.96 784.05 232.02 781.00 232.01 C 780.87 234.97 781.05 238.01 781.00 241.00 C 783.88 240.96 787.05 241.02 790.01 241.00 C 789.98 246.75 789.97 252.51 789.96 258.27 C 787.00 258.68 784.42 258.83 781.64 259.58 C 781.28 261.90 780.56 266.55 780.21 268.87 C 783.30 268.87 786.81 269.00 790.02 269.03 C 789.98 278.34 789.97 287.66 790.01 296.98 C 780.90 297.00 771.80 297.01 762.71 297.07 C 762.28 299.26 761.40 303.66 760.96 305.86 C 758.28 306.48 755.78 307.09 753.13 307.60 C 752.97 310.32 753.05 313.13 752.96 315.87 C 749.70 315.96 746.62 316.12 743.42 316.27 C 743.18 319.53 743.07 322.84 742.89 326.11 C 739.68 325.96 736.66 325.90 733.50 325.73 C 733.15 322.61 732.96 319.54 732.65 316.44 C 730.08 316.25 727.54 316.08 725.02 315.92 C 724.90 312.90 725.05 309.99 725.00 307.00 C 727.64 307.00 730.29 306.99 732.96 307.00 C 732.94 310.20 733.06 313.48 733.09 316.70 C 735.29 316.28 739.70 315.43 741.90 315.00 C 742.44 312.39 743.10 309.85 743.57 307.23 C 746.68 307.04 749.89 306.89 753.02 306.67 C 752.85 303.60 753.08 300.56 752.59 297.54 C 750.22 297.21 745.46 296.56 743.08 296.24 C 743.06 294.05 743.05 291.88 743.06 289.71 C 745.31 289.29 749.79 288.46 752.04 288.05 C 752.50 285.83 753.43 281.40 753.89 279.18 C 756.46 279.07 759.24 279.04 761.86 278.96 C 761.91 282.18 762.14 285.47 762.28 288.70 C 768.40 288.79 774.55 288.85 780.70 288.80 C 780.80 282.34 780.87 275.88 780.83 269.42 C 777.49 269.22 774.29 269.07 770.99 268.90 C 771.05 253.26 770.95 237.63 771.00 222.00 C 768.36 222.00 765.73 222.00 763.11 222.01 C 762.98 218.98 762.83 215.96 762.68 212.94 C 751.07 216.95 744.91 229.10 733.46 233.34 C 733.17 235.53 733.22 237.84 733.04 240.07 C 738.90 240.74 742.90 243.80 745.04 249.25 C 746.96 249.98 750.80 251.43 752.72 252.16 C 752.85 245.43 752.97 238.72 753.04 232.00 C 755.92 231.96 759.07 232.01 762.02 232.00 C 761.98 240.76 761.96 249.52 761.96 258.28 C 759.01 258.70 756.43 258.84 753.67 259.60 C 753.29 261.87 752.53 266.42 752.15 268.69 C 749.32 268.87 746.66 269.10 743.88 269.33 C 743.35 272.31 743.23 275.41 742.40 278.35 C 740.07 278.71 735.43 279.44 733.11 279.80 C 733.04 285.53 733.01 291.26 732.98 297.00 C 730.31 297.00 727.65 297.00 725.01 297.00 C 724.99 294.29 724.98 291.59 724.99 288.89 C 721.73 288.97 718.65 289.12 715.45 289.27 C 715.24 291.83 715.07 294.41 714.92 296.99 C 711.83 296.94 709.01 297.01 705.99 296.99 C 705.99 294.56 706.01 292.14 706.05 289.73 C 708.62 289.17 711.73 289.22 714.38 288.43 C 714.72 286.09 715.42 281.41 715.77 279.07 C 706.13 279.02 696.51 279.01 686.88 278.99 C 686.93 282.15 687.14 285.39 687.27 288.57 C 690.11 288.72 693.09 288.92 695.99 289.09 C 695.98 295.05 695.99 301.03 696.00 307.00 C 702.32 307.00 708.66 307.00 715.00 307.00 C 714.99 319.33 715.00 331.66 715.00 344.00 C 717.50 344.00 722.50 344.00 725.00 344.00 C 724.98 337.99 724.99 332.00 725.00 326.00 C 727.62 326.00 730.25 326.00 732.89 326.01 C 732.85 328.79 733.19 331.75 733.29 334.58 C 736.47 334.74 739.77 334.95 742.99 335.10 C 742.88 338.01 743.04 341.04 743.01 343.98 C 749.55 343.99 756.12 344.00 762.68 344.06 C 762.27 346.28 761.46 350.73 761.05 352.95 C 758.31 353.52 755.76 354.09 753.05 354.56 C 753.02 363.70 753.01 372.84 752.99 381.99 C 755.82 381.93 758.97 382.03 761.89 382.02 C 761.81 384.75 762.21 387.70 762.29 390.49 C 764.98 390.75 767.83 391.07 770.59 391.37 C 770.70 394.51 770.95 397.72 771.09 400.88 C 768.02 400.91 765.40 401.18 762.46 401.31 C 762.23 403.60 762.03 405.92 761.85 408.24 C 758.95 408.65 756.41 408.86 753.68 409.62 C 753.30 411.89 752.53 416.43 752.14 418.69 C 749.18 418.87 746.34 419.10 743.42 419.33 C 743.18 422.51 743.08 425.78 742.90 428.99 C 736.92 428.99 730.96 428.99 725.00 429.00 C 725.00 426.51 725.00 421.53 725.00 419.04 C 731.26 418.99 737.55 418.97 743.82 418.89 C 743.27 416.86 742.16 412.80 741.61 410.77 C 739.67 409.89 735.79 408.15 733.85 407.28 C 733.35 405.37 733.03 403.44 732.90 401.49 C 735.41 401.20 740.42 400.64 742.93 400.35 C 742.95 398.02 742.99 393.36 743.01 391.02 C 736.99 391.00 731.00 391.00 725.00 391.00 C 724.98 396.95 724.99 402.91 724.99 408.88 C 721.71 408.96 718.59 409.13 715.35 409.28 C 715.14 415.91 715.03 422.55 714.94 429.20 C 708.80 428.95 702.61 429.51 696.52 428.66 C 696.21 426.23 695.58 421.38 695.26 418.95 C 692.54 418.99 690.08 419.18 687.42 419.28 C 687.19 422.49 687.08 425.78 686.90 429.02 C 676.96 428.98 667.04 429.04 657.12 428.89 C 657.65 422.91 660.73 418.95 666.37 417.02 C 667.05 415.08 668.43 411.20 669.12 409.26 C 662.73 409.11 656.37 409.03 650.00 408.96 C 649.99 415.64 649.99 422.32 650.00 429.00 C 643.69 428.99 637.41 429.00 631.12 429.00 C 630.94 425.76 630.91 422.62 630.73 419.42 C 627.43 419.20 624.24 419.07 620.98 418.90 C 620.96 415.67 621.05 412.53 621.08 409.32 C 623.29 409.73 627.73 410.55 629.94 410.95 C 630.49 413.55 631.10 416.26 631.56 418.91 C 634.27 418.90 637.18 419.01 639.95 419.02 C 639.98 409.67 640.02 400.33 640.25 390.99 C 643.26 391.05 646.43 390.94 649.46 391.40 C 649.78 393.77 650.42 398.52 650.73 400.90 C 653.14 400.93 655.55 400.97 657.97 401.02 C 657.99 391.12 657.98 381.24 658.05 371.35 C 660.32 371.72 664.86 372.47 667.13 372.85 C 667.64 375.39 668.64 380.48 669.15 383.03 C 674.73 381.98 678.28 378.65 679.79 373.06 C 685.04 372.12 690.41 371.93 695.74 371.51 C 695.92 362.30 695.97 353.09 695.51 343.89 C 692.77 344.01 690.05 344.15 687.33 344.31 C 687.14 350.87 687.03 357.45 686.94 364.03 C 680.34 363.98 673.76 364.00 667.17 363.90 C 667.73 361.87 668.84 357.80 669.39 355.76 C 671.36 354.90 675.28 353.18 677.24 352.32 C 678.41 343.78 678.56 335.05 677.78 326.47 C 675.10 326.14 669.74 325.46 667.06 325.13 C 669.49 315.74 673.47 306.77 674.54 297.06 C 679.03 297.02 683.58 297.00 688.10 296.98 C 687.96 294.44 687.82 291.91 687.69 289.39 C 682.94 289.20 678.24 289.05 673.52 288.90 C 673.92 279.11 675.45 269.43 678.38 260.09 C 686.85 260.02 695.33 259.97 703.82 259.88 C 704.50 259.17 705.20 258.46 705.91 257.77 C 705.87 252.31 705.82 246.86 705.73 241.41 C 702.43 241.21 699.26 241.07 696.00 240.90 C 695.88 237.93 696.04 235.06 696.01 232.12 C 699.13 231.98 702.42 231.90 705.58 231.73 C 705.71 228.47 705.95 225.25 706.10 222.01 C 708.96 221.97 712.07 222.01 715.00 221.99 C 714.99 219.33 714.99 216.66 715.00 214.01 C 711.90 213.97 709.09 214.01 706.07 213.99 C 705.96 207.42 705.99 200.86 705.78 194.30 C 699.64 194.20 693.54 194.15 687.43 194.20 C 687.19 197.45 687.07 200.73 686.90 203.99 C 683.83 203.97 681.01 204.01 678.00 204.01 C 677.98 210.00 677.99 216.00 678.00 222.00 C 680.89 221.96 684.05 222.02 687.01 222.01 C 686.98 231.67 686.98 241.33 687.00 251.00 C 683.98 250.94 681.33 251.02 678.41 250.99 C 677.77 244.51 678.29 237.79 676.30 231.51 C 673.19 221.65 674.11 211.18 673.83 201.00 C 668.54 201.00 663.27 201.00 658.00 201.00 C 658.00 195.68 657.99 190.37 658.00 185.07 C 664.53 184.98 671.09 184.99 677.64 184.78 C 677.62 181.98 677.74 179.21 677.77 176.43 C 674.46 176.23 671.27 176.07 668.01 175.90 C 667.98 169.59 668.00 163.30 668.00 157.00 C 661.98 157.00 656.00 157.00 650.01 157.00 C 649.89 159.93 650.04 162.93 649.99 165.87 C 646.71 165.98 643.58 166.12 640.34 166.28 C 640.23 169.36 640.24 172.48 640.19 175.57 C 643.41 175.74 646.75 175.94 650.01 176.10 C 649.97 184.40 649.97 192.70 650.01 201.00 C 647.51 201.00 642.51 201.00 640.01 201.00 C 639.99 192.67 639.98 184.34 640.00 176.01 C 636.93 175.97 634.12 176.01 631.12 175.99 C 630.94 172.77 630.91 169.60 630.73 166.40 C 627.68 166.25 624.75 166.13 621.75 166.00 C 621.28 168.18 620.34 172.54 619.87 174.71 C 617.33 175.45 614.95 176.16 612.43 176.82 C 612.28 179.37 612.29 181.97 612.23 184.54 C 615.09 184.72 618.08 184.92 620.99 185.10 C 620.89 188.00 621.03 190.97 620.99 193.89 C 618.00 193.97 615.35 194.15 612.46 194.29 C 612.33 195.96 612.06 199.30 611.93 200.97 C 605.61 200.97 599.31 200.99 593.00 201.01 C 593.00 199.25 593.00 195.75 592.99 194.00 C 583.66 194.01 574.33 194.00 565.00 194.00 C 564.99 187.98 564.99 181.98 564.99 175.97 C 562.08 175.95 559.65 176.07 556.87 176.08 C 556.53 178.54 556.02 180.97 555.36 183.37 C 552.81 183.77 547.70 184.58 545.14 184.99 C 545.65 186.93 546.66 190.80 547.17 192.74 C 549.69 193.46 552.37 194.13 554.96 194.74 C 555.74 199.05 555.56 204.92 561.69 205.00 C 562.02 216.99 562.02 229.00 562.02 241.00 C 556.67 241.00 551.33 241.00 546.00 241.00 C 546.00 243.50 546.00 248.50 546.00 250.99 C 551.32 250.99 556.66 251.00 562.00 251.00 C 561.98 257.00 561.99 263.00 562.00 269.00 C 560.53 269.00 557.59 268.99 556.12 268.99 C 555.94 265.76 555.91 262.58 555.73 259.36 C 549.84 259.17 543.96 259.04 538.09 258.91 C 537.95 256.56 537.81 254.22 537.67 251.89 C 534.63 251.39 531.62 251.23 528.68 250.39 C 528.33 248.25 527.62 243.97 527.27 241.84 C 529.86 241.45 535.05 240.68 537.65 240.29 C 538.02 233.88 538.05 227.46 537.96 221.04 C 528.16 223.32 521.41 232.03 516.99 240.61 C 511.45 240.85 505.93 241.04 500.42 241.30 C 500.20 244.51 500.07 247.77 499.91 250.99 C 502.60 250.99 505.30 251.00 508.00 251.01 C 507.99 253.67 507.99 256.33 508.00 259.00 C 501.96 258.99 495.95 258.99 489.93 259.00 C 490.01 253.13 490.09 247.28 490.25 241.42 C 493.46 241.22 496.75 241.07 499.99 240.90 C 499.92 237.90 500.03 234.98 500.00 232.00 C 493.65 231.99 487.33 232.00 481.00 232.00 C 480.99 225.99 481.00 220.00 481.00 214.00 C 478.50 214.00 473.50 214.00 471.00 214.00 C 470.99 220.00 471.00 226.00 471.00 232.01 C 461.66 231.99 452.33 231.98 443.00 232.01 C 442.99 226.02 443.00 220.05 443.00 214.07 C 449.54 213.98 456.11 213.98 462.66 213.78 C 462.68 210.64 462.78 207.55 462.81 204.43 C 459.54 204.23 456.36 204.07 453.13 203.90 C 452.96 200.72 452.91 197.58 452.73 194.42 C 449.45 194.22 446.26 194.06 443.01 193.90 C 442.93 190.95 443.03 188.07 443.00 185.14 C 446.33 184.99 449.73 184.88 453.07 184.69 C 452.89 181.95 452.97 179.23 452.57 176.53 C 449.88 176.12 444.51 175.29 441.83 174.87 C 443.41 167.04 452.30 164.97 453.95 157.24 C 459.62 157.11 465.31 157.03 471.00 156.96 C 470.99 163.30 471.00 169.65 471.00 176.00 C 473.50 176.00 478.50 176.00 480.99 176.00 C 480.99 169.66 481.00 163.32 481.01 156.98 C 483.61 156.95 486.56 157.04 489.26 157.05 C 489.62 159.76 489.85 162.67 490.58 165.36 C 492.90 165.72 497.55 166.43 499.87 166.79 C 499.81 163.51 500.02 160.32 500.03 157.07 C 505.88 156.97 511.76 156.90 517.63 156.75 C 517.83 150.60 517.98 144.45 518.16 138.31 C 520.31 138.75 524.60 139.63 526.75 140.07 C 527.43 142.36 528.07 144.65 528.68 146.96 C 531.60 146.89 534.61 146.86 537.55 146.75 C 537.72 144.16 537.91 141.58 538.10 139.00 C 540.43 139.02 542.78 139.05 545.14 139.08 C 545.46 141.54 545.96 143.97 546.64 146.35 C 548.96 146.71 553.59 147.43 555.90 147.79 C 555.94 141.52 555.98 135.26 556.01 129.00 C 550.04 128.99 544.09 129.00 538.13 128.99 C 537.96 125.65 537.90 122.32 537.70 118.99 C 534.60 119.07 531.58 118.93 528.54 119.40 C 528.22 121.78 527.59 126.53 527.28 128.90 C 524.96 128.93 520.34 128.99 518.02 129.02 C 517.99 113.13 517.96 97.24 518.07 81.35 M 631.00 100.93 C 631.04 103.96 630.91 106.96 631.00 110.00 C 634.04 110.01 636.90 109.98 640.00 110.01 C 640.04 112.99 639.90 115.94 640.00 118.94 C 633.73 119.04 627.47 119.18 621.23 119.36 C 621.02 128.60 620.99 137.85 620.95 147.10 C 624.23 146.94 627.44 146.75 630.75 146.58 C 630.90 140.72 630.96 134.86 631.07 129.00 C 637.34 129.00 643.61 129.00 649.90 129.01 C 650.07 132.23 650.19 135.45 650.42 138.68 C 652.93 138.84 655.45 138.98 657.98 139.12 C 657.98 132.42 657.98 125.71 658.00 119.01 C 655.35 119.00 652.70 118.99 650.07 118.99 C 649.94 113.07 649.81 107.15 649.64 101.23 C 643.42 101.06 637.20 101.01 631.00 100.93 M 696.00 100.87 C 696.04 103.92 695.90 106.95 696.00 110.02 C 699.14 110.00 702.05 109.94 705.27 109.94 C 705.42 107.06 705.51 104.17 705.72 101.30 C 702.51 101.12 699.18 100.99 696.00 100.87 M 556.01 108.86 C 556.01 111.39 556.00 116.47 556.00 119.00 C 559.06 119.01 561.97 118.98 565.09 118.99 C 564.95 115.76 564.72 112.52 564.59 109.29 C 561.77 109.14 558.75 108.98 556.01 108.86 M 575.00 119.00 C 575.00 121.50 575.00 126.50 575.00 129.00 C 577.66 129.00 580.32 129.00 583.00 129.00 C 583.00 126.50 583.00 121.50 583.00 119.00 C 580.32 119.00 577.66 119.00 575.00 119.00 M 603.71 119.36 C 603.18 122.26 602.56 125.13 601.89 128.00 C 599.67 128.43 595.22 129.28 592.99 129.71 C 593.13 132.72 593.21 135.71 593.40 138.73 C 596.62 138.90 599.74 138.99 603.00 139.13 C 602.99 141.71 602.99 144.30 603.00 146.89 C 599.74 147.07 596.41 147.23 593.19 147.43 C 593.24 150.55 593.24 153.64 593.34 156.77 C 602.59 156.97 611.84 157.00 621.09 157.05 C 620.95 153.81 620.72 150.55 620.59 147.31 C 618.06 147.16 615.55 147.03 613.06 146.90 C 613.00 137.66 612.91 128.43 612.66 119.19 C 609.69 119.23 606.64 119.29 603.71 119.36 M 564.98 139.00 C 565.02 147.76 565.03 156.51 565.05 165.28 C 567.45 165.59 572.25 166.22 574.66 166.53 C 575.53 172.65 574.94 178.88 575.19 185.05 C 584.38 184.99 593.57 184.91 602.76 184.67 C 602.75 181.85 602.63 179.02 602.64 176.22 C 596.06 176.01 589.47 176.01 582.91 175.92 C 583.07 172.71 583.19 169.48 583.41 166.27 C 586.63 166.12 589.74 165.98 593.00 165.88 C 593.04 162.93 592.90 159.93 593.00 157.00 C 587.00 157.00 580.99 157.00 575.00 157.00 C 574.99 151.00 574.99 145.00 575.00 139.00 C 572.49 139.00 567.48 139.00 564.98 139.00 M 583.00 139.00 C 582.99 141.66 582.99 144.33 583.00 147.00 C 585.50 147.00 590.50 147.00 593.00 147.00 C 592.99 144.33 592.99 141.66 593.00 139.00 C 590.50 139.00 585.50 139.00 583.00 139.00 M 639.93 139.02 C 640.07 141.59 640.25 144.16 640.44 146.73 C 643.65 146.89 646.74 146.98 650.00 147.12 C 649.99 144.41 649.99 141.70 650.01 138.99 C 647.49 139.00 642.45 139.01 639.93 139.02 M 658.32 139.41 C 658.15 141.93 658.00 144.45 657.88 146.98 C 660.41 146.98 665.47 147.00 668.00 147.01 C 667.99 144.30 667.99 141.60 667.99 138.91 C 664.78 139.06 661.49 139.23 658.32 139.41 M 537.24 147.37 C 537.05 153.55 537.00 159.72 536.92 165.91 C 534.04 166.08 531.11 166.24 528.28 166.43 C 528.13 169.59 527.94 172.72 527.87 175.90 C 524.69 176.06 521.46 176.22 518.32 176.42 C 518.16 178.94 518.02 181.46 517.90 183.99 C 511.96 183.99 506.01 183.99 500.08 183.99 C 499.89 181.41 499.72 178.84 499.55 176.27 C 496.39 176.12 493.14 175.98 490.00 175.88 C 490.00 181.91 489.98 187.93 490.00 193.96 C 480.75 193.99 471.52 194.07 462.29 194.32 C 462.17 197.40 461.89 200.39 461.88 203.51 C 474.48 204.12 487.11 204.07 499.73 203.71 C 499.90 200.47 499.94 197.21 500.10 193.98 C 502.99 194.03 505.88 194.07 508.79 194.13 C 508.43 196.44 507.72 201.06 507.36 203.37 C 504.93 204.03 502.48 204.53 499.99 204.86 C 500.13 207.80 500.22 210.72 500.41 213.68 C 502.88 213.84 505.35 213.99 507.84 214.14 C 508.15 216.78 508.46 219.43 508.82 222.08 C 515.11 221.95 521.39 221.81 527.69 221.63 C 527.80 219.34 527.91 217.06 528.01 214.78 C 525.62 214.40 520.83 213.63 518.44 213.25 C 518.04 207.10 517.83 200.94 517.81 194.78 C 520.21 194.43 525.01 193.72 527.40 193.37 C 528.23 190.71 528.13 187.82 528.76 185.14 C 531.71 184.95 534.58 184.73 537.57 184.55 C 538.00 182.07 538.30 179.54 538.78 177.07 C 544.46 172.86 548.38 166.38 555.84 164.98 C 555.94 162.61 555.75 160.16 555.95 157.82 C 553.61 157.45 548.94 156.72 546.60 156.35 C 545.78 153.39 545.53 150.28 545.11 147.25 C 542.48 147.30 539.81 147.32 537.24 147.37 M 631.00 147.00 C 631.00 149.50 631.00 154.50 631.00 157.00 C 634.04 157.01 636.90 156.97 640.00 157.00 C 640.00 154.50 640.00 149.50 640.00 147.00 C 637.04 147.01 633.90 146.98 631.00 147.00 M 518.00 157.00 C 518.03 160.01 517.92 162.97 518.00 166.00 C 520.50 166.00 525.50 166.00 528.00 166.00 C 528.03 163.01 527.92 159.97 528.00 157.00 C 525.50 157.00 520.50 157.00 518.00 157.00 M 500.28 166.30 C 500.13 169.54 499.95 172.75 499.88 176.00 C 505.95 175.99 512.01 176.00 518.09 176.00 C 517.95 172.74 517.73 169.47 517.59 166.23 C 511.81 166.19 506.04 166.22 500.28 166.30 M 603.01 165.84 C 603.00 168.41 603.00 173.53 603.00 176.10 C 606.28 175.94 609.49 175.74 612.81 175.57 C 612.79 172.48 612.67 169.36 612.67 166.28 C 609.47 166.11 606.17 165.96 603.01 165.84 M 462.38 175.80 C 462.21 178.58 462.06 181.37 461.92 184.16 C 464.91 184.52 467.63 184.78 470.73 185.18 C 470.83 182.47 470.63 179.68 470.65 177.01 C 467.99 176.16 465.09 176.14 462.38 175.80 M 453.29 184.25 C 453.13 187.54 452.96 190.79 452.88 194.09 C 456.17 193.94 459.41 193.75 462.73 193.59 C 462.90 190.65 462.84 187.62 463.06 184.71 C 459.82 184.42 456.52 184.33 453.29 184.25 M 528.27 194.33 C 528.13 197.59 527.95 200.82 527.88 204.10 C 531.20 203.94 534.46 203.74 537.81 203.58 C 537.78 200.45 537.67 197.31 537.65 194.20 C 534.53 194.22 531.35 194.26 528.27 194.33 M 537.19 204.44 C 537.24 207.53 537.24 210.60 537.34 213.70 C 540.26 213.88 542.99 213.96 545.99 214.15 C 545.99 211.59 545.99 206.47 545.99 203.91 C 543.07 204.09 540.08 204.24 537.19 204.44 M 714.90 204.00 C 715.08 207.27 715.19 210.52 715.43 213.81 C 718.54 213.78 721.56 213.70 724.72 213.67 C 724.92 210.45 724.95 207.21 725.16 204.01 C 722.59 204.00 717.47 204.00 714.90 204.00 M 490.00 213.99 C 489.99 216.69 489.99 219.39 490.01 222.09 C 493.24 221.94 496.42 221.75 499.68 221.59 C 499.83 219.06 499.98 216.54 500.12 214.02 C 497.59 214.02 492.53 214.00 490.00 213.99 M 725.00 214.00 C 724.99 216.66 724.99 219.33 725.00 222.00 C 727.66 222.00 730.32 222.00 733.00 222.00 C 732.99 219.33 732.99 216.66 733.00 214.00 C 730.32 214.00 727.65 214.00 725.00 214.00 M 499.91 222.01 C 500.07 225.24 500.20 228.44 500.41 231.68 C 502.92 231.84 505.44 231.98 507.98 232.12 C 507.98 229.59 508.00 224.53 508.01 222.00 C 505.30 222.00 502.60 222.00 499.91 222.01 M 545.99 221.99 C 546.00 224.52 546.00 229.57 546.00 232.09 C 549.25 231.94 552.44 231.75 555.72 231.59 C 555.91 228.40 555.96 225.18 556.15 222.01 C 553.61 222.00 548.53 222.00 545.99 221.99 M 715.28 222.33 C 715.13 225.56 714.91 228.75 714.84 231.99 C 717.41 232.00 722.53 232.00 725.10 232.00 C 724.95 228.73 724.70 225.44 724.57 222.19 C 721.49 222.23 718.32 222.26 715.28 222.33 M 715.20 241.42 C 715.14 247.52 715.19 253.62 715.30 259.72 C 718.56 259.90 721.70 259.98 725.00 260.12 C 725.00 253.72 724.98 247.30 725.00 240.90 C 721.74 241.07 718.41 241.22 715.20 241.42 M 706.01 258.86 C 706.01 261.39 706.00 266.47 706.00 269.00 C 709.07 269.02 711.94 268.95 715.09 268.99 C 714.95 265.76 714.71 262.50 714.59 259.29 C 711.79 259.15 708.71 258.94 706.01 258.86 M 733.28 259.41 C 733.13 262.62 732.91 265.77 732.85 268.99 C 735.39 269.00 740.47 269.00 743.01 269.01 C 743.00 266.48 743.00 261.43 743.00 258.91 C 739.77 259.07 736.46 259.22 733.28 259.41 M 678.00 307.00 C 678.04 310.02 677.89 312.95 678.00 316.00 C 680.50 316.00 685.50 316.00 688.00 316.00 C 688.04 313.02 687.89 309.95 688.00 307.00 C 685.50 307.00 680.50 307.00 678.00 307.00 M 687.24 326.45 C 687.27 329.19 687.25 331.90 687.37 334.68 C 690.09 334.90 692.63 334.99 695.43 335.22 C 695.96 337.85 696.39 340.40 697.09 343.02 C 699.32 343.44 703.80 344.27 706.03 344.68 C 705.93 341.22 705.73 337.72 705.62 334.27 C 702.44 334.12 699.15 333.96 696.01 333.88 C 695.99 331.22 695.98 328.56 695.98 325.92 C 693.07 326.09 690.09 326.23 687.24 326.45 M 714.99 353.99 C 715.01 363.33 715.00 372.66 714.99 382.01 C 724.32 381.98 733.66 381.99 743.01 382.01 C 742.98 372.67 742.98 363.33 743.01 353.99 C 733.66 354.01 724.32 354.00 714.99 353.99 M 697.82 373.41 C 697.05 375.35 695.50 379.22 694.73 381.16 C 692.47 382.40 689.17 381.86 687.07 382.92 C 687.13 385.63 686.76 388.10 686.98 390.90 C 689.91 391.08 692.75 391.21 695.73 391.43 C 695.91 394.63 695.93 397.77 696.11 401.00 C 693.40 400.99 690.70 400.99 688.01 401.00 C 688.04 397.95 687.85 394.77 687.96 391.76 C 684.67 391.35 681.28 391.01 678.01 390.74 C 678.00 397.18 677.98 403.60 677.99 410.05 C 687.25 409.99 696.51 409.91 705.77 409.68 C 706.08 396.77 706.06 383.86 705.81 370.95 C 703.82 371.57 699.82 372.79 697.82 373.41 M 753.01 390.84 C 753.00 393.41 753.00 398.53 753.00 401.10 C 756.28 400.94 759.48 400.73 762.81 400.57 C 762.79 397.48 762.65 394.34 762.67 391.28 C 759.47 391.12 756.15 390.94 753.01 390.84 Z" />
<path fill="#1a171f" opacity="1.00" d=" M 724.99 81.99 C 746.66 82.00 768.33 82.00 790.01 81.99 C 789.99 103.66 789.99 125.33 790.01 147.01 C 768.33 146.99 746.66 146.99 724.99 147.01 C 725.00 125.33 725.00 103.66 724.99 81.99 M 733.26 91.31 C 732.87 107.12 732.87 122.94 733.31 138.74 C 749.11 139.13 764.93 139.12 780.74 138.69 C 781.12 122.88 781.12 107.06 780.69 91.26 C 764.88 90.87 749.06 90.87 733.26 91.31 Z" />
<path fill="#1a171f" opacity="1.00" d=" M 462.99 100.99 C 471.99 101.01 481.00 101.02 490.01 100.99 C 489.98 110.33 489.98 119.67 490.01 129.01 C 480.99 128.98 471.99 128.98 462.99 129.01 C 463.01 119.67 463.01 110.33 462.99 100.99 Z" />
<path fill="#1a171f" opacity="1.00" d=" M 742.99 100.99 C 752.32 101.01 761.66 101.01 771.01 100.99 C 770.98 110.33 770.98 119.67 771.01 129.01 C 761.66 128.99 752.32 128.98 742.99 129.01 C 743.00 119.67 743.01 110.33 742.99 100.99 Z" />
<path fill="#1a171f" opacity="1.00" d=" M 612.44 202.51 C 638.56 198.87 664.95 217.79 670.53 243.41 C 676.72 266.73 664.65 293.32 642.94 303.86 C 622.76 314.79 595.80 310.72 579.84 294.14 C 568.71 283.64 563.69 268.04 564.03 252.99 C 565.17 227.51 586.61 204.09 612.44 202.51 M 592.02 274.99 C 609.69 275.00 627.36 275.02 645.04 274.96 C 636.54 259.65 627.50 244.64 618.91 229.37 C 608.87 243.92 600.97 259.79 592.02 274.99 Z" />
<path fill="#1a171f" opacity="1.00" d=" M 463.79 241.00 C 466.04 241.09 468.30 241.19 470.56 241.31 C 470.71 244.47 470.94 247.69 471.11 250.87 C 474.26 250.97 477.51 251.12 480.68 251.28 C 480.91 260.49 480.99 269.71 481.05 278.93 C 474.80 279.01 468.57 279.05 462.34 279.23 C 462.25 282.32 462.24 285.45 462.19 288.56 C 465.06 288.71 468.01 288.92 470.92 289.09 C 471.01 294.94 471.09 300.80 471.26 306.66 C 474.34 306.69 477.51 306.78 480.63 306.80 C 480.81 300.90 480.94 295.00 481.08 289.11 C 483.81 288.93 486.78 288.89 489.58 288.71 C 489.72 285.49 489.95 282.33 490.10 279.13 C 493.21 278.98 496.44 278.90 499.58 278.72 C 499.72 275.47 499.95 272.26 500.10 269.01 C 502.72 269.00 505.35 268.99 507.99 268.99 C 507.91 265.95 508.03 263.01 508.01 259.99 C 517.66 260.00 527.33 260.01 537.00 260.00 C 536.98 266.39 537.00 272.80 537.00 279.20 C 530.84 278.95 524.63 279.52 518.52 278.66 C 518.21 276.23 517.58 271.36 517.27 268.93 C 514.28 269.01 511.38 269.14 508.42 269.27 C 508.20 272.49 508.07 275.75 507.90 278.99 C 505.26 278.99 502.64 279.00 500.02 279.01 C 499.94 282.03 500.01 285.14 499.97 288.19 C 502.58 288.49 505.21 288.84 507.86 289.16 C 507.99 291.63 508.15 294.11 508.32 296.59 C 511.21 296.71 514.21 296.88 517.14 297.00 C 517.45 294.51 517.95 292.05 518.63 289.64 C 520.95 289.28 525.58 288.57 527.90 288.21 C 527.94 294.47 527.97 300.73 528.02 306.99 C 530.94 306.95 534.06 307.02 537.03 307.01 C 536.78 309.57 537.02 312.41 536.92 315.05 C 534.29 315.87 531.70 315.66 529.31 316.89 C 528.51 318.79 526.90 322.59 526.10 324.49 C 524.13 325.14 520.19 326.45 518.22 327.10 C 518.10 332.95 518.05 338.83 518.03 344.70 C 520.24 344.27 524.67 343.42 526.88 343.00 C 527.44 340.41 528.09 337.92 528.59 335.34 C 531.40 335.01 534.32 334.73 537.15 334.35 C 537.50 331.86 537.84 329.36 538.23 326.89 C 540.62 326.53 542.99 326.00 545.32 325.32 C 545.70 322.99 546.45 318.31 546.83 315.98 C 549.71 316.03 552.68 316.15 555.58 316.26 C 555.72 319.49 555.95 322.78 556.10 326.03 C 562.68 325.98 569.30 325.99 575.90 325.88 C 575.71 318.34 569.72 314.98 564.00 311.62 C 573.66 311.09 583.33 310.99 593.01 310.94 C 592.97 318.58 592.97 326.23 593.01 333.88 C 589.75 333.96 586.63 334.12 583.41 334.27 C 583.19 337.50 583.07 340.78 582.91 344.03 C 592.83 343.98 602.77 344.07 612.70 343.79 C 612.75 338.14 612.77 332.49 612.75 326.85 C 609.65 326.37 606.61 326.23 603.62 325.43 C 603.28 323.07 602.58 318.36 602.23 316.00 C 608.30 316.05 614.40 316.10 620.49 316.24 C 620.83 322.30 620.56 328.43 621.37 334.47 C 623.75 334.79 628.52 335.42 630.90 335.74 C 630.87 338.43 631.02 341.21 631.02 343.92 C 624.76 344.01 618.53 344.04 612.29 344.24 C 612.07 353.37 612.04 362.51 612.22 371.65 C 618.47 371.82 624.73 371.95 631.00 372.06 C 630.99 366.03 630.99 360.02 631.00 354.00 C 633.90 353.95 637.04 354.02 640.00 353.99 C 639.99 347.65 639.99 341.33 640.00 335.00 C 645.99 334.99 651.99 335.00 658.00 335.00 C 657.89 337.95 658.04 341.02 658.00 343.99 C 655.29 343.99 652.59 344.00 649.89 344.01 C 649.93 347.15 650.13 350.37 650.25 353.53 C 653.08 353.76 655.92 354.00 658.77 354.25 L 657.61 358.78 C 658.44 363.28 654.03 363.35 651.35 364.86 C 651.36 370.82 645.73 371.87 641.62 374.01 C 640.93 375.94 639.55 379.80 638.87 381.73 C 632.89 381.87 626.95 381.96 621.00 382.05 C 620.89 384.93 621.04 387.96 621.01 390.88 C 624.14 390.96 627.42 391.13 630.59 391.27 C 630.71 394.46 630.95 397.71 631.09 400.93 C 624.86 401.01 618.66 401.05 612.45 401.23 C 612.25 403.78 612.07 406.34 611.92 408.91 C 605.59 409.01 599.30 409.04 592.99 409.25 C 593.04 412.29 592.94 415.43 593.40 418.47 C 595.78 418.78 600.53 419.41 602.90 419.72 C 602.93 422.04 602.99 426.67 603.02 428.98 C 584.05 429.01 565.08 429.00 546.12 429.00 C 545.95 425.74 545.91 422.59 545.72 419.36 C 542.91 419.27 540.20 419.26 537.43 419.23 C 537.20 422.46 537.07 425.77 536.89 429.02 C 534.00 428.87 531.47 429.01 528.68 428.93 C 528.28 426.69 527.47 422.20 527.06 419.95 C 524.83 419.50 520.37 418.59 518.14 418.13 C 518.06 412.45 518.02 406.79 517.98 401.12 C 521.16 400.96 524.46 400.90 527.67 400.72 C 527.67 397.59 527.78 394.53 527.81 391.43 C 524.50 391.21 521.28 391.07 518.00 390.90 C 517.92 387.89 518.03 385.02 518.00 382.05 C 527.21 382.01 536.42 381.97 545.64 381.77 C 545.81 375.84 545.94 369.92 546.07 364.00 C 542.95 363.94 540.06 364.02 537.00 364.00 C 536.99 366.66 536.99 369.33 536.99 372.00 C 530.66 371.98 524.36 372.00 518.05 372.00 C 518.00 362.78 517.97 353.56 517.77 344.34 C 514.61 344.26 511.55 344.23 508.43 344.19 C 508.20 347.43 508.07 350.73 507.89 354.00 C 505.30 353.99 502.71 353.99 500.12 354.00 C 499.95 350.77 499.91 347.62 499.73 344.42 C 496.49 344.21 493.34 344.07 490.13 343.90 C 489.96 340.71 489.91 337.60 489.72 334.43 C 486.79 334.22 483.95 334.09 481.06 333.91 C 480.99 340.96 480.90 348.01 480.77 355.06 C 478.78 354.43 474.79 353.18 472.80 352.55 C 471.93 350.62 470.18 346.75 469.31 344.82 C 464.18 344.15 459.01 344.18 453.87 344.06 C 453.38 347.16 453.25 350.37 452.45 353.43 C 449.92 353.72 444.84 354.31 442.31 354.60 C 442.69 352.16 443.45 347.29 443.83 344.85 C 446.13 344.43 450.72 343.59 453.02 343.16 C 452.92 340.22 452.87 337.34 452.74 334.42 C 449.46 334.21 446.26 334.07 443.00 333.90 C 443.00 331.30 443.00 328.71 443.00 326.13 C 446.23 325.98 449.55 325.90 452.79 325.72 C 452.79 319.64 453.32 313.53 452.77 307.47 C 450.11 307.13 444.79 306.47 442.13 306.13 C 442.62 304.14 443.61 300.16 444.11 298.17 C 446.86 297.42 449.71 296.85 452.53 296.28 C 452.70 293.86 452.89 291.45 453.08 289.04 C 450.56 289.03 445.52 289.00 443.00 288.98 C 443.00 286.51 443.00 281.56 443.00 279.09 C 449.52 278.98 456.05 278.98 462.58 278.78 C 462.73 275.50 462.95 272.27 463.10 269.01 C 465.76 269.00 468.44 268.99 471.12 268.99 C 470.96 265.70 470.90 262.46 470.72 259.19 C 464.97 259.15 459.20 258.83 453.47 259.24 C 453.18 261.66 452.60 266.50 452.31 268.92 C 449.99 268.94 445.35 268.99 443.02 269.02 C 443.00 263.08 443.00 257.16 443.00 251.23 C 449.42 251.19 455.83 250.97 462.24 250.55 C 462.63 248.16 463.40 243.38 463.79 241.00 M 490.09 288.26 C 490.02 294.50 489.99 300.74 489.97 306.99 C 487.01 307.02 483.91 306.95 481.00 307.00 C 481.03 310.02 480.92 312.95 481.00 316.00 C 487.31 316.00 493.62 315.99 499.95 315.99 C 500.05 313.24 500.05 310.43 500.19 307.70 C 502.42 307.06 504.64 306.39 506.87 305.69 C 507.33 303.56 508.26 299.30 508.72 297.17 C 506.04 297.02 503.36 296.89 500.68 296.76 C 500.05 294.54 499.38 292.33 498.69 290.13 C 496.54 289.66 492.24 288.73 490.09 288.26 M 452.90 297.00 C 453.07 300.28 453.21 303.51 453.43 306.81 C 456.53 306.78 459.58 306.69 462.72 306.67 C 462.91 303.46 462.98 300.20 463.16 297.01 C 460.59 297.00 455.47 297.00 452.90 297.00 M 462.20 307.44 C 462.15 313.54 462.20 319.65 462.30 325.77 C 468.56 325.94 474.82 325.98 481.09 326.07 C 480.95 322.81 480.73 319.51 480.59 316.27 C 477.41 316.12 474.16 315.96 471.01 315.88 C 471.03 312.91 470.91 309.85 470.99 306.92 C 468.06 307.08 465.08 307.23 462.20 307.44 M 508.29 307.41 C 508.17 310.30 507.89 313.06 507.86 315.99 C 510.39 315.99 515.47 316.00 518.00 316.00 C 518.03 312.99 517.91 309.89 517.99 306.91 C 514.77 307.07 511.49 307.21 508.29 307.41 M 500.28 316.39 C 500.14 319.60 499.95 322.76 499.87 326.00 C 502.61 325.99 505.35 325.99 508.10 326.00 C 507.95 322.77 507.72 319.50 507.58 316.29 C 505.13 316.30 502.70 316.34 500.28 316.39 M 452.91 325.89 C 453.10 328.87 453.22 331.81 453.44 334.81 C 456.55 334.78 459.61 334.68 462.76 334.65 C 462.75 331.86 462.64 329.03 462.64 326.27 C 459.41 326.13 456.11 325.97 452.91 325.89 M 489.94 325.29 C 490.10 328.44 490.20 331.56 490.41 334.73 C 493.62 334.91 496.75 334.97 500.00 335.12 C 500.03 338.11 499.90 340.99 499.98 344.02 C 502.92 343.96 505.88 343.91 508.85 343.85 C 508.45 341.57 507.65 337.03 507.25 334.75 C 505.15 333.96 503.01 333.34 500.83 332.87 C 500.05 330.73 499.47 328.54 498.52 326.51 C 495.78 325.76 492.65 325.69 489.94 325.29 M 575.17 326.46 C 575.34 329.33 575.53 332.20 575.76 335.09 C 577.50 334.96 580.98 334.68 582.73 334.54 C 582.92 331.70 582.83 328.72 583.09 325.93 C 580.43 326.09 577.79 326.27 575.17 326.46 M 537.17 334.28 C 537.11 340.78 537.18 347.27 537.30 353.78 C 546.24 353.96 555.18 353.96 564.14 353.95 C 564.59 351.69 565.49 347.19 565.94 344.93 C 568.19 344.53 572.69 343.73 574.94 343.32 C 575.03 340.49 574.76 337.47 574.97 334.71 C 562.39 333.91 549.77 333.88 537.17 334.28 M 565.20 354.33 C 565.23 357.46 565.23 360.56 565.33 363.72 C 568.56 363.91 571.69 363.99 574.95 364.15 C 575.03 366.52 575.12 368.90 575.22 371.29 C 577.43 371.93 579.64 372.61 581.85 373.32 C 582.32 375.46 583.27 379.74 583.75 381.88 C 580.82 381.94 577.90 381.99 574.99 382.04 C 575.03 385.05 574.90 387.95 575.00 391.00 C 568.68 391.00 562.34 390.99 556.03 391.01 C 556.02 387.77 555.80 384.38 555.87 381.20 C 553.55 381.56 548.91 382.29 546.59 382.65 C 545.86 385.36 545.60 388.05 545.24 390.87 C 542.56 391.07 539.83 391.22 537.20 391.46 C 537.25 394.55 537.24 397.58 537.32 400.70 C 552.51 401.06 567.71 401.05 582.91 401.01 C 583.09 403.95 583.21 406.84 583.44 409.81 C 586.54 409.78 589.57 409.68 592.71 409.66 C 592.90 406.84 592.86 403.88 593.11 401.11 C 589.81 400.95 586.45 400.73 583.19 400.57 C 583.24 397.48 583.23 394.34 583.34 391.28 C 586.57 391.13 589.72 390.96 592.99 390.88 C 593.00 384.61 592.98 378.35 593.01 372.10 C 596.27 371.94 599.46 371.73 602.75 371.58 C 602.90 365.71 602.96 359.84 603.07 353.98 C 590.44 353.97 577.81 353.96 565.20 354.33 M 640.27 354.41 C 640.14 357.65 639.93 360.83 639.88 364.09 C 643.18 363.95 646.40 363.74 649.73 363.59 C 649.91 360.38 649.93 357.10 650.12 353.91 C 646.84 354.07 643.50 354.21 640.27 354.41 M 556.00 364.00 C 555.99 366.66 555.99 369.33 556.00 372.00 C 559.03 372.02 561.91 371.94 565.00 372.00 C 564.99 369.33 564.99 366.66 565.00 364.00 C 562.03 364.02 558.91 363.94 556.00 364.00 M 603.00 371.88 C 603.00 381.61 603.00 391.35 602.99 401.10 C 606.27 400.94 609.49 400.73 612.80 400.58 C 612.99 391.14 612.93 381.70 612.71 372.28 C 609.49 372.13 606.18 371.96 603.00 371.88 M 528.00 400.88 C 528.03 403.97 527.92 406.96 528.00 410.10 C 531.27 409.94 534.47 409.72 537.77 409.57 C 537.75 406.81 537.63 404.00 537.64 401.28 C 534.45 401.13 531.16 400.96 528.00 400.88 M 546.01 408.85 C 546.00 411.39 546.00 416.47 545.99 419.01 C 548.52 419.00 553.57 419.00 556.09 419.00 C 555.95 415.76 555.72 412.48 555.59 409.28 C 552.41 409.12 549.14 408.94 546.01 408.85 Z" />
<path fill="#1a171f" opacity="1.00" d=" M 547.26 277.84 C 553.79 279.42 557.06 285.11 561.23 289.78 C 561.54 292.17 561.85 294.57 562.15 296.98 C 554.08 296.96 546.03 296.96 537.97 297.00 C 538.00 294.62 538.04 292.24 538.09 289.87 C 540.54 289.53 542.96 289.03 545.35 288.36 C 545.83 285.73 546.78 280.47 547.26 277.84 Z" />
<path fill="#1a171f" opacity="1.00" d=" M 781.01 307.00 C 783.88 306.95 787.06 307.02 790.01 307.00 C 789.98 316.00 789.97 325.00 790.01 334.01 C 783.66 333.99 777.35 334.00 771.03 333.98 C 770.97 331.61 770.93 329.23 770.90 326.87 C 768.43 326.53 766.02 326.02 763.66 325.35 C 763.29 323.04 762.57 318.42 762.20 316.11 C 768.45 316.04 774.72 316.02 780.99 315.98 C 780.87 312.94 781.05 310.01 781.01 307.00 Z" />
<path fill="#1a171f" opacity="1.00" d=" M 640.00 311.00 C 642.50 311.00 647.50 311.00 650.00 311.00 C 650.00 314.75 650.00 322.25 650.00 326.00 C 647.50 326.00 642.50 326.00 640.00 326.00 C 640.00 322.25 640.00 314.75 640.00 311.00 Z" />
<path fill="#1a171f" opacity="1.00" d=" M 753.00 326.00 C 755.88 325.95 759.05 326.02 762.00 326.00 C 761.99 328.66 761.99 331.33 762.00 334.00 C 758.88 333.95 756.05 334.02 753.00 334.00 C 752.99 331.33 752.99 328.66 753.00 326.00 Z" />
<path fill="#1a171f" opacity="1.00" d=" M 771.06 344.00 C 777.35 343.99 783.69 344.00 790.01 344.00 C 789.97 365.34 790.07 386.68 789.91 408.02 C 786.99 408.51 784.44 408.80 781.72 409.65 C 781.35 411.73 780.62 415.89 780.25 417.97 C 782.97 418.46 786.51 418.73 789.37 419.59 C 789.72 421.92 790.43 426.58 790.78 428.91 C 784.16 428.94 777.59 428.99 771.00 429.01 C 770.98 422.67 770.99 416.35 771.00 410.01 C 773.98 409.95 777.20 410.01 780.25 409.97 C 780.86 400.88 780.97 391.76 781.01 382.66 C 778.79 382.24 774.34 381.41 772.12 380.99 C 771.37 378.15 770.86 375.34 770.29 372.49 C 767.86 372.27 765.44 372.08 763.04 371.91 C 763.01 369.30 763.00 366.70 763.00 364.11 C 765.54 363.97 768.09 363.83 770.65 363.68 C 770.82 357.11 770.96 350.56 771.06 344.00 M 771.00 364.00 C 770.99 366.66 770.99 369.33 771.00 372.00 C 773.50 372.00 778.50 372.00 781.00 372.00 C 780.99 369.33 780.99 366.66 781.00 364.00 C 778.50 364.00 773.50 364.00 771.00 364.00 Z" />
<path fill="#1a171f" opacity="1.00" d=" M 442.99 363.99 C 464.66 364.00 486.33 364.00 508.01 363.99 C 507.99 385.66 507.99 407.33 508.01 429.01 C 486.33 428.99 464.66 428.99 442.99 429.01 C 443.00 407.33 443.00 385.66 442.99 363.99 M 453.00 372.00 C 453.00 387.66 453.00 403.33 453.00 419.00 C 468.66 418.99 484.33 419.00 500.00 419.00 C 499.99 403.33 500.00 387.66 500.00 372.00 C 484.33 372.00 468.66 372.00 453.00 372.00 Z" />
<path fill="#1a171f" opacity="1.00" d=" M 725.00 364.00 C 727.65 363.99 730.32 363.99 733.00 364.00 C 732.99 366.66 732.99 369.33 733.00 372.00 C 730.32 371.99 727.66 371.99 725.00 372.00 C 724.99 369.33 724.99 366.66 725.00 364.00 Z" />
<path fill="#1a171f" opacity="1.00" d=" M 462.99 381.99 C 471.99 382.01 481.00 382.02 490.01 381.99 C 489.98 390.99 489.97 400.00 490.01 409.01 C 480.99 408.98 471.99 408.98 462.99 409.01 C 463.01 399.99 463.01 390.99 462.99 381.99 Z" />
<path fill="#1a171f" opacity="1.00" d=" M 427.00 447.00 C 443.66 447.00 460.33 447.00 477.00 447.00 C 477.00 463.66 477.00 480.33 477.00 497.00 C 460.33 497.00 443.66 497.00 427.00 497.00 C 427.00 480.33 427.00 463.66 427.00 447.00 M 436.99 456.99 C 437.01 466.99 437.01 476.99 436.99 487.00 C 443.55 486.99 450.12 487.00 456.70 487.01 C 455.76 484.70 453.90 480.09 452.97 477.78 C 454.17 476.58 456.58 474.17 457.78 472.97 C 460.09 473.90 464.70 475.76 467.01 476.70 C 467.00 470.12 466.99 463.55 467.00 456.99 C 456.99 457.01 446.99 457.01 436.99 456.99 Z" />
<path fill="#1a171f" opacity="1.00" d=" M 482.00 447.01 C 496.70 447.20 511.49 446.05 526.13 447.88 C 534.46 452.72 531.19 463.07 531.81 471.00 C 528.40 473.89 525.07 476.86 521.82 479.92 C 527.86 484.36 532.87 489.77 532.75 497.80 C 520.22 497.50 513.86 485.58 506.03 477.63 C 502.53 477.43 495.52 477.03 492.02 476.83 C 492.00 483.55 491.99 490.27 491.99 497.00 C 489.49 497.00 484.50 497.00 482.00 497.00 C 482.00 480.33 482.00 463.67 482.00 447.01 M 492.00 456.99 C 492.00 459.50 492.00 464.50 492.00 467.01 C 501.99 466.98 511.99 466.98 522.00 467.01 C 522.00 464.50 522.00 459.50 522.00 456.99 C 511.99 457.01 501.99 457.01 492.00 456.99 Z" />
<path fill="#1a171f" opacity="1.00" d=" M 587.00 447.00 C 603.66 447.00 620.33 447.00 637.00 447.00 C 637.00 449.50 637.00 454.50 637.00 457.00 C 623.66 456.98 610.32 457.01 596.99 457.00 C 597.01 466.99 597.01 476.99 596.99 487.00 C 610.32 486.98 623.66 487.01 637.00 487.00 C 637.00 489.50 637.00 494.50 637.00 497.00 C 620.33 497.00 603.66 496.99 587.00 497.00 C 587.00 480.33 587.00 463.66 587.00 447.00 Z" />
<path fill="#1a171f" opacity="1.00" d=" M 642.00 447.00 C 658.66 447.00 675.33 447.00 692.00 447.00 C 691.99 463.66 691.99 480.33 692.00 497.00 C 675.33 497.00 658.66 497.00 642.00 497.00 C 642.00 480.33 642.00 463.66 642.00 447.00 M 651.99 456.99 C 652.01 466.99 652.01 477.00 651.99 487.01 C 661.99 486.98 672.00 486.98 682.01 487.01 C 681.98 477.00 681.98 466.99 682.01 456.99 C 672.00 457.01 661.99 457.01 651.99 456.99 Z" />
<path fill="#1a171f" opacity="1.00" d=" M 697.00 447.01 C 711.70 447.20 726.49 446.06 741.13 447.87 C 748.21 451.82 746.81 460.11 747.20 466.98 C 747.24 475.02 747.42 483.15 746.13 491.13 C 742.18 498.26 733.86 496.72 727.02 497.08 C 717.00 497.19 707.00 497.02 697.00 496.99 C 697.00 480.33 697.00 463.67 697.00 447.01 M 706.99 456.99 C 707.00 466.99 707.00 477.00 706.99 487.01 C 716.99 486.98 726.99 486.98 737.01 487.01 C 736.98 477.00 736.98 466.99 737.01 456.99 C 726.99 457.01 716.99 457.01 706.99 456.99 Z" />
<path fill="#1a171f" opacity="1.00" d=" M 752.00 447.00 C 768.66 447.00 785.33 447.00 802.00 447.00 C 802.00 449.50 802.00 454.50 802.00 457.00 C 788.66 456.98 775.33 457.01 762.00 457.00 C 762.00 459.50 762.00 464.50 762.00 467.00 C 773.66 467.00 785.33 467.00 797.00 467.00 C 797.00 469.50 797.00 474.50 797.00 477.00 C 785.33 476.99 773.66 477.00 762.00 477.00 C 762.00 479.50 762.00 484.50 762.00 487.00 C 775.33 486.98 788.66 487.01 802.00 487.00 C 802.00 489.50 802.00 494.50 802.00 497.00 C 785.33 497.00 768.66 496.99 752.00 497.00 C 752.00 480.33 752.00 463.66 752.00 447.00 Z" />
<path fill="#1a171f" opacity="1.00" d=" M 657.00 462.00 C 663.66 461.99 670.32 461.99 677.00 462.00 C 676.99 468.66 676.99 475.33 677.00 482.00 C 670.32 481.99 663.66 481.99 657.00 482.00 C 656.99 475.33 656.99 468.66 657.00 462.00 Z" />
<path fill="#1a171f" opacity="1.00" d=" M 369.00 511.00 C 385.66 511.00 402.33 511.00 419.00 511.00 C 419.00 513.50 419.00 518.50 419.00 521.00 C 405.65 520.98 392.31 521.01 378.96 521.00 C 379.00 530.88 378.92 540.79 379.21 550.68 C 389.13 550.94 399.07 551.00 409.00 551.03 C 409.00 548.55 409.00 543.59 409.00 541.11 C 404.12 540.98 399.28 540.95 394.42 540.76 C 394.21 537.46 394.07 534.26 393.91 530.99 C 402.27 531.01 410.64 531.01 419.01 530.99 C 418.98 540.99 418.98 550.99 419.01 561.00 C 402.44 560.94 385.88 561.19 369.32 560.79 C 368.85 544.19 368.99 527.59 369.00 511.00 Z" />
<path fill="#1a171f" opacity="1.00" d=" M 424.00 511.00 C 440.66 511.00 457.33 511.00 474.00 511.00 C 474.00 513.50 474.00 518.50 474.00 521.00 C 460.61 520.98 447.23 521.01 433.85 521.00 C 433.94 524.18 434.12 527.48 434.28 530.68 C 445.85 530.99 457.42 531.02 469.00 531.02 C 469.00 533.51 469.00 538.50 469.00 541.00 C 457.28 540.99 445.56 541.00 433.85 541.01 C 433.94 544.18 434.12 547.48 434.28 550.69 C 447.51 551.01 460.76 551.06 474.00 551.00 C 474.00 553.50 474.00 558.50 474.00 561.00 C 457.44 560.94 440.87 561.19 424.32 560.79 C 423.85 544.19 423.99 527.59 424.00 511.00 Z" />
<path fill="#1a171f" opacity="1.00" d=" M 479.11 510.12 C 488.86 510.39 494.07 518.70 500.34 524.66 C 506.41 530.41 511.81 536.90 518.44 542.03 C 518.90 531.69 519.03 521.34 519.10 511.00 C 521.58 511.00 526.52 511.00 529.00 511.00 C 529.00 527.66 528.99 544.32 529.00 560.99 C 526.32 560.99 523.65 561.00 520.98 561.03 C 516.48 555.24 510.97 550.37 505.85 545.15 C 500.57 539.92 495.59 534.31 489.52 529.96 C 489.08 540.35 488.96 550.75 488.90 561.15 C 485.66 560.97 482.53 560.91 479.32 560.72 C 478.87 543.85 478.89 526.98 479.11 510.12 Z" />
<path fill="#1a171f" opacity="1.00" d=" M 534.00 511.00 C 550.66 511.00 567.33 511.00 584.00 511.00 C 584.00 513.50 584.00 518.50 584.00 521.00 C 570.61 520.98 557.23 521.01 543.85 521.00 C 543.93 524.18 544.13 527.48 544.28 530.68 C 555.84 530.99 567.42 531.02 579.00 531.02 C 579.00 533.51 579.00 538.50 579.00 541.00 C 567.28 540.99 555.56 541.00 543.85 541.01 C 543.93 544.18 544.13 547.48 544.28 550.69 C 557.51 551.01 570.76 551.06 584.00 551.00 C 584.00 553.50 584.00 558.50 584.00 561.00 C 567.44 560.94 550.87 561.19 534.32 560.79 C 533.85 544.19 533.99 527.59 534.00 511.00 Z" />
<path fill="#1a171f" opacity="1.00" d=" M 589.00 511.00 C 603.61 511.35 618.43 509.72 632.91 512.17 C 640.93 516.85 638.40 527.23 639.02 535.07 C 635.50 537.41 632.06 539.84 628.70 542.38 C 631.01 546.14 634.92 548.57 637.40 552.21 C 638.03 554.61 639.29 559.40 639.92 561.80 C 636.61 560.62 631.83 561.90 629.28 558.77 C 623.86 553.06 617.92 547.81 613.01 541.64 C 609.51 541.44 602.52 541.03 599.02 540.83 C 599.00 547.60 598.99 554.37 598.99 561.15 C 595.71 560.97 592.56 560.91 589.32 560.72 C 588.85 544.15 588.99 527.57 589.00 511.00 M 598.91 520.99 C 599.07 524.27 599.19 527.48 599.42 530.79 C 609.27 531.07 619.13 530.98 629.00 531.04 C 629.00 528.52 629.00 523.50 629.00 520.99 C 618.96 521.00 608.93 521.00 598.91 520.99 Z" />
<path fill="#1a171f" opacity="1.00" d=" M 644.00 511.00 C 660.66 511.00 677.33 511.00 694.00 511.00 C 693.99 527.66 693.99 544.33 694.00 561.00 C 691.50 561.00 686.50 561.00 684.00 561.00 C 683.99 554.32 683.99 547.65 684.00 540.99 C 673.99 541.01 663.99 541.01 654.00 540.99 C 653.99 547.65 653.99 554.32 654.00 561.00 C 651.50 561.00 646.50 561.00 644.00 561.00 C 644.00 544.33 644.00 527.66 644.00 511.00 M 654.00 520.99 C 654.00 523.50 654.00 528.50 654.00 531.01 C 663.99 530.98 673.99 530.98 684.00 531.01 C 684.00 528.50 684.00 523.50 684.00 520.99 C 673.99 521.01 663.99 521.01 654.00 520.99 Z" />
<path fill="#1a171f" opacity="1.00" d=" M 699.00 511.00 C 715.66 511.00 732.33 511.00 749.00 511.00 C 749.00 513.50 749.00 518.50 749.00 521.00 C 742.32 520.99 735.66 520.99 729.00 521.00 C 729.01 534.33 728.98 547.66 729.00 561.00 C 726.50 561.00 721.50 561.00 719.00 561.00 C 719.01 547.66 718.98 534.33 719.00 521.00 C 712.33 520.99 705.66 520.99 699.00 521.00 C 699.00 518.50 699.00 513.50 699.00 511.00 Z" />
<path fill="#1a171f" opacity="1.00" d=" M 754.00 511.00 C 770.66 511.00 787.33 511.00 804.00 511.00 C 803.99 527.66 803.99 544.33 804.00 561.00 C 787.33 561.00 770.66 561.00 754.00 561.00 C 754.00 544.33 754.00 527.66 754.00 511.00 M 763.99 520.99 C 764.00 530.99 764.00 541.00 763.99 551.01 C 773.99 550.98 783.99 550.98 794.01 551.01 C 793.98 541.00 793.98 530.99 794.01 520.99 C 783.99 521.01 773.99 521.01 763.99 520.99 Z" />
<path fill="#1a171f" opacity="1.00" d=" M 809.00 511.01 C 823.69 511.20 838.49 510.05 853.13 511.88 C 861.46 516.72 858.18 527.07 858.81 535.00 C 855.39 537.89 852.06 540.86 848.82 543.92 C 854.86 548.36 859.87 553.77 859.75 561.80 C 847.21 561.50 840.86 549.58 833.03 541.63 C 829.53 541.43 822.52 541.03 819.02 540.83 C 819.00 547.55 818.99 554.27 818.99 561.00 C 816.49 561.00 811.50 561.00 809.00 561.00 C 808.99 544.33 809.00 527.67 809.00 511.01 M 819.00 520.99 C 819.00 523.50 819.00 528.50 819.00 531.01 C 828.99 530.98 838.99 530.98 849.00 531.01 C 849.00 528.50 849.00 523.50 849.00 520.99 C 838.99 521.01 828.99 521.01 819.00 520.99 Z" />
<path fill="#1a171f" opacity="1.00" d=" M 769.00 526.00 C 775.66 525.99 782.32 525.99 789.00 526.00 C 788.99 532.66 788.99 539.33 789.00 546.00 C 782.32 545.99 775.66 545.99 769.00 546.00 C 768.99 539.33 768.99 532.66 769.00 526.00 Z" />
</g>
<g id="#f5f5f5fe">
<path fill="#f5f5f5" opacity="1.00" d=" M 442.00 80.00 C 558.56 80.15 675.12 79.72 791.68 80.21 C 792.42 196.80 791.79 313.40 792.00 430.00 C 675.33 430.00 558.67 430.00 442.00 430.00 C 442.00 313.33 442.00 196.67 442.00 80.00 M 442.99 81.99 C 443.00 103.66 443.00 125.33 442.99 147.01 C 464.66 146.99 486.33 146.99 508.01 147.01 C 507.99 125.33 507.99 103.66 508.01 81.99 C 486.33 82.00 464.66 82.00 442.99 81.99 M 518.07 81.35 C 517.96 97.24 517.99 113.13 518.02 129.02 C 520.34 128.99 524.96 128.93 527.28 128.90 C 527.59 126.53 528.22 121.78 528.54 119.40 C 531.58 118.93 534.60 119.07 537.70 118.99 C 537.90 122.32 537.96 125.65 538.13 128.99 C 544.09 129.00 550.04 128.99 556.01 129.00 C 555.98 135.26 555.94 141.52 555.90 147.79 C 553.59 147.43 548.96 146.71 546.64 146.35 C 545.96 143.97 545.46 141.54 545.14 139.08 C 542.78 139.05 540.43 139.02 538.10 139.00 C 537.91 141.58 537.72 144.16 537.55 146.75 C 534.61 146.86 531.60 146.89 528.68 146.96 C 528.07 144.65 527.43 142.36 526.75 140.07 C 524.60 139.63 520.31 138.75 518.16 138.31 C 517.98 144.45 517.83 150.60 517.63 156.75 C 511.76 156.90 505.88 156.97 500.03 157.07 C 500.02 160.32 499.81 163.51 499.87 166.79 C 497.55 166.43 492.90 165.72 490.58 165.36 C 489.85 162.67 489.62 159.76 489.26 157.05 C 486.56 157.04 483.61 156.95 481.01 156.98 C 481.00 163.32 480.99 169.66 480.99 176.00 C 478.50 176.00 473.50 176.00 471.00 176.00 C 471.00 169.65 470.99 163.30 471.00 156.96 C 465.31 157.03 459.62 157.11 453.95 157.24 C 452.30 164.97 443.41 167.04 441.83 174.87 C 444.51 175.29 449.88 176.12 452.57 176.53 C 452.97 179.23 452.89 181.95 453.07 184.69 C 449.73 184.88 446.33 184.99 443.00 185.14 C 443.03 188.07 442.93 190.95 443.01 193.90 C 446.26 194.06 449.45 194.22 452.73 194.42 C 452.91 197.58 452.96 200.72 453.13 203.90 C 456.36 204.07 459.54 204.23 462.81 204.43 C 462.78 207.55 462.68 210.64 462.66 213.78 C 456.11 213.98 449.54 213.98 443.00 214.07 C 443.00 220.05 442.99 226.02 443.00 232.01 C 452.33 231.98 461.66 231.99 471.00 232.01 C 471.00 226.00 470.99 220.00 471.00 214.00 C 473.50 214.00 478.50 214.00 481.00 214.00 C 481.00 220.00 480.99 225.99 481.00 232.00 C 487.33 232.00 493.65 231.99 500.00 232.00 C 500.03 234.98 499.92 237.90 499.99 240.90 C 496.75 241.07 493.46 241.22 490.25 241.42 C 490.09 247.28 490.01 253.13 489.93 259.00 C 495.95 258.99 501.96 258.99 508.00 259.00 C 507.99 256.33 507.99 253.67 508.00 251.01 C 505.30 251.00 502.60 250.99 499.91 250.99 C 500.07 247.77 500.20 244.51 500.42 241.30 C 505.93 241.04 511.45 240.85 516.99 240.61 C 521.41 232.03 528.16 223.32 537.96 221.04 C 538.05 227.46 538.02 233.88 537.65 240.29 C 535.05 240.68 529.86 241.45 527.27 241.84 C 527.62 243.97 528.33 248.25 528.68 250.39 C 531.62 251.23 534.63 251.39 537.67 251.89 C 537.81 254.22 537.95 256.56 538.09 258.91 C 543.96 259.04 549.84 259.17 555.73 259.36 C 555.91 262.58 555.94 265.76 556.12 268.99 C 557.59 268.99 560.53 269.00 562.00 269.00 C 561.99 263.00 561.98 257.00 562.00 251.00 C 556.66 251.00 551.32 250.99 546.00 250.99 C 546.00 248.50 546.00 243.50 546.00 241.00 C 551.33 241.00 556.67 241.00 562.02 241.00 C 562.02 229.00 562.02 216.99 561.69 205.00 C 555.56 204.92 555.74 199.05 554.96 194.74 C 552.37 194.13 549.69 193.46 547.17 192.74 C 546.66 190.80 545.65 186.93 545.14 184.99 C 547.70 184.58 552.81 183.77 555.36 183.37 C 556.02 180.97 556.53 178.54 556.87 176.08 C 559.65 176.07 562.08 175.95 564.99 175.97 C 564.99 181.98 564.99 187.98 565.00 194.00 C 574.33 194.00 583.66 194.01 592.99 194.00 C 593.00 195.75 593.00 199.25 593.00 201.01 C 599.31 200.99 605.61 200.97 611.93 200.97 C 612.06 199.30 612.33 195.96 612.46 194.29 C 615.35 194.15 618.00 193.97 620.99 193.89 C 621.03 190.97 620.89 188.00 620.99 185.10 C 618.08 184.92 615.09 184.72 612.23 184.54 C 612.29 181.97 612.28 179.37 612.43 176.82 C 614.95 176.16 617.33 175.45 619.87 174.71 C 620.34 172.54 621.28 168.18 621.75 166.00 C 624.75 166.13 627.68 166.25 630.73 166.40 C 630.91 169.60 630.94 172.77 631.12 175.99 C 634.12 176.01 636.93 175.97 640.00 176.01 C 639.98 184.34 639.99 192.67 640.01 201.00 C 642.51 201.00 647.51 201.00 650.01 201.00 C 649.97 192.70 649.97 184.40 650.01 176.10 C 646.75 175.94 643.41 175.74 640.19 175.57 C 640.24 172.48 640.23 169.36 640.34 166.28 C 643.58 166.12 646.71 165.98 649.99 165.87 C 650.04 162.93 649.89 159.93 650.01 157.00 C 656.00 157.00 661.98 157.00 668.00 157.00 C 668.00 163.30 667.98 169.59 668.01 175.90 C 671.27 176.07 674.46 176.23 677.77 176.43 C 677.74 179.21 677.62 181.98 677.64 184.78 C 671.09 184.99 664.53 184.98 658.00 185.07 C 657.99 190.37 658.00 195.68 658.00 201.00 C 663.27 201.00 668.54 201.00 673.83 201.00 C 674.11 211.18 673.19 221.65 676.30 231.51 C 678.29 237.79 677.77 244.51 678.41 250.99 C 681.33 251.02 683.98 250.94 687.00 251.00 C 686.98 241.33 686.98 231.67 687.01 222.01 C 684.05 222.02 680.89 221.96 678.00 222.00 C 677.99 216.00 677.98 210.00 678.00 204.01 C 681.01 204.01 683.83 203.97 686.90 203.99 C 687.07 200.73 687.19 197.45 687.43 194.20 C 693.54 194.15 699.64 194.20 705.78 194.30 C 705.99 200.86 705.96 207.42 706.07 213.99 C 709.09 214.01 711.90 213.97 715.00 214.01 C 714.99 216.66 714.99 219.33 715.00 221.99 C 712.07 222.01 708.96 221.97 706.10 222.01 C 705.95 225.25 705.71 228.47 705.58 231.73 C 702.42 231.90 699.13 231.98 696.01 232.12 C 696.04 235.06 695.88 237.93 696.00 240.90 C 699.26 241.07 702.43 241.21 705.73 241.41 C 705.82 246.86 705.87 252.31 705.91 257.77 C 705.20 258.46 704.50 259.17 703.82 259.88 C 695.33 259.97 686.85 260.02 678.38 260.09 C 675.45 269.43 673.92 279.11 673.52 288.90 C 678.24 289.05 682.94 289.20 687.69 289.39 C 687.82 291.91 687.96 294.44 688.10 296.98 C 683.58 297.00 679.03 297.02 674.54 297.06 C 673.47 306.77 669.49 315.74 667.06 325.13 C 669.74 325.46 675.10 326.14 677.78 326.47 C 678.56 335.05 678.41 343.78 677.24 352.32 C 675.28 353.18 671.36 354.90 669.39 355.76 C 668.84 357.80 667.73 361.87 667.17 363.90 C 673.76 364.00 680.34 363.98 686.94 364.03 C 687.03 357.45 687.14 350.87 687.33 344.31 C 690.05 344.15 692.77 344.01 695.51 343.89 C 695.97 353.09 695.92 362.30 695.74 371.51 C 690.41 371.93 685.04 372.12 679.79 373.06 C 678.28 378.65 674.73 381.98 669.15 383.03 C 668.64 380.48 667.64 375.39 667.13 372.85 C 664.86 372.47 660.32 371.72 658.05 371.35 C 657.98 381.24 657.99 391.12 657.97 401.02 C 655.55 400.97 653.14 400.93 650.73 400.90 C 650.42 398.52 649.78 393.77 649.46 391.40 C 646.43 390.94 643.26 391.05 640.25 390.99 C 640.02 400.33 639.98 409.67 639.95 419.02 C 637.18 419.01 634.27 418.90 631.56 418.91 C 631.10 416.26 630.49 413.55 629.94 410.95 C 627.73 410.55 623.29 409.73 621.08 409.32 C 621.05 412.53 620.96 415.67 620.98 418.90 C 624.24 419.07 627.43 419.20 630.73 419.42 C 630.91 422.62 630.94 425.76 631.12 429.00 C 637.41 429.00 643.69 428.99 650.00 429.00 C 649.99 422.32 649.99 415.64 650.00 408.96 C 656.37 409.03 662.73 409.11 669.12 409.26 C 668.43 411.20 667.05 415.08 666.37 417.02 C 660.73 418.95 657.65 422.91 657.12 428.89 C 667.04 429.04 676.96 428.98 686.90 429.02 C 687.08 425.78 687.19 422.49 687.42 419.28 C 690.08 419.18 692.54 418.99 695.26 418.95 C 695.58 421.38 696.21 426.23 696.52 428.66 C 702.61 429.51 708.80 428.95 714.94 429.20 C 715.03 422.55 715.14 415.91 715.35 409.28 C 718.59 409.13 721.71 408.96 724.99 408.88 C 724.99 402.91 724.98 396.95 725.00 391.00 C 731.00 391.00 736.99 391.00 743.01 391.02 C 742.99 393.36 742.95 398.02 742.93 400.35 C 740.42 400.64 735.41 401.20 732.90 401.49 C 733.03 403.44 733.35 405.37 733.85 407.28 C 735.79 408.15 739.67 409.89 741.61 410.77 C 742.16 412.80 743.27 416.86 743.82 418.89 C 737.55 418.97 731.26 418.99 725.00 419.04 C 725.00 421.53 725.00 426.51 725.00 429.00 C 730.96 428.99 736.92 428.99 742.90 428.99 C 743.08 425.78 743.18 422.51 743.42 419.33 C 746.34 419.10 749.18 418.87 752.14 418.69 C 752.53 416.43 753.30 411.89 753.68 409.62 C 756.41 408.86 758.95 408.65 761.85 408.24 C 762.03 405.92 762.23 403.60 762.46 401.31 C 765.40 401.18 768.02 400.91 771.09 400.88 C 770.95 397.72 770.70 394.51 770.59 391.37 C 767.83 391.07 764.98 390.75 762.29 390.49 C 762.21 387.70 761.81 384.75 761.89 382.02 C 758.97 382.03 755.82 381.93 752.99 381.99 C 753.01 372.84 753.02 363.70 753.05 354.56 C 755.76 354.09 758.31 353.52 761.05 352.95 C 761.46 350.73 762.27 346.28 762.68 344.06 C 756.12 344.00 749.55 343.99 743.01 343.98 C 743.04 341.04 742.88 338.01 742.99 335.10 C 739.77 334.95 736.47 334.74 733.29 334.58 C 733.19 331.75 732.85 328.79 732.89 326.01 C 730.25 326.00 727.62 326.00 725.00 326.00 C 724.99 332.00 724.98 337.99 725.00 344.00 C 722.50 344.00 717.50 344.00 715.00 344.00 C 715.00 331.66 714.99 319.33 715.00 307.00 C 708.66 307.00 702.32 307.00 696.00 307.00 C 695.99 301.03 695.98 295.05 695.99 289.09 C 693.09 288.92 690.11 288.72 687.27 288.57 C 687.14 285.39 686.93 282.15 686.88 278.99 C 696.51 279.01 706.13 279.02 715.77 279.07 C 715.42 281.41 714.72 286.09 714.38 288.43 C 711.73 289.22 708.62 289.17 706.05 289.73 C 706.01 292.14 705.99 294.56 705.99 296.99 C 709.01 297.01 711.83 296.94 714.92 296.99 C 715.07 294.41 715.24 291.83 715.45 289.27 C 718.65 289.12 721.73 288.97 724.99 288.89 C 724.98 291.59 724.99 294.29 725.01 297.00 C 727.65 297.00 730.31 297.00 732.98 297.00 C 733.01 291.26 733.04 285.53 733.11 279.80 C 735.43 279.44 740.07 278.71 742.40 278.35 C 743.23 275.41 743.35 272.31 743.88 269.33 C 746.66 269.10 749.32 268.87 752.15 268.69 C 752.53 266.42 753.29 261.87 753.67 259.60 C 756.43 258.84 759.01 258.70 761.96 258.28 C 761.96 249.52 761.98 240.76 762.02 232.00 C 759.07 232.01 755.92 231.96 753.04 232.00 C 752.97 238.72 752.85 245.43 752.72 252.16 C 750.80 251.43 746.96 249.98 745.04 249.25 C 742.90 243.80 738.90 240.74 733.04 240.07 C 733.22 237.84 733.17 235.53 733.46 233.34 C 744.91 229.10 751.07 216.95 762.68 212.94 C 762.83 215.96 762.98 218.98 763.11 222.01 C 765.73 222.00 768.36 222.00 771.00 222.00 C 770.95 237.63 771.05 253.26 770.99 268.90 C 774.29 269.07 777.49 269.22 780.83 269.42 C 780.87 275.88 780.80 282.34 780.70 288.80 C 774.55 288.85 768.40 288.79 762.28 288.70 C 762.14 285.47 761.91 282.18 761.86 278.96 C 759.24 279.04 756.46 279.07 753.89 279.18 C 753.43 281.40 752.50 285.83 752.04 288.05 C 749.79 288.46 745.31 289.29 743.06 289.71 C 743.05 291.88 743.06 294.05 743.08 296.24 C 745.46 296.56 750.22 297.21 752.59 297.54 C 753.08 300.56 752.85 303.60 753.02 306.67 C 749.89 306.89 746.68 307.04 743.57 307.23 C 743.10 309.85 742.44 312.39 741.90 315.00 C 739.70 315.43 735.29 316.28 733.09 316.70 C 733.06 313.48 732.94 310.20 732.96 307.00 C 730.29 306.99 727.64 307.00 725.00 307.00 C 725.05 309.99 724.90 312.90 725.02 315.92 C 727.54 316.08 730.08 316.25 732.65 316.44 C 732.96 319.54 733.15 322.61 733.50 325.73 C 736.66 325.90 739.68 325.96 742.89 326.11 C 743.07 322.84 743.18 319.53 743.42 316.27 C 746.62 316.12 749.70 315.96 752.96 315.87 C 753.05 313.13 752.97 310.32 753.13 307.60 C 755.78 307.09 758.28 306.48 760.96 305.86 C 761.40 303.66 762.28 299.26 762.71 297.07 C 771.80 297.01 780.90 297.00 790.01 296.98 C 789.97 287.66 789.98 278.34 790.02 269.03 C 786.81 269.00 783.30 268.87 780.21 268.87 C 780.56 266.55 781.28 261.90 781.64 259.58 C 784.42 258.83 787.00 258.68 789.96 258.27 C 789.97 252.51 789.98 246.75 790.01 241.00 C 787.05 241.02 783.88 240.96 781.00 241.00 C 781.05 238.01 780.87 234.97 781.00 232.01 C 784.05 232.02 786.88 231.96 790.01 232.00 C 789.97 222.67 789.98 213.35 790.02 204.03 C 786.81 204.00 783.31 203.88 780.21 203.87 C 780.56 201.55 781.28 196.90 781.63 194.57 C 784.42 193.83 786.99 193.72 789.96 193.30 C 790.00 181.20 790.00 169.10 790.00 157.00 C 774.33 157.00 758.66 157.00 743.00 157.00 C 743.00 163.34 742.99 169.67 743.02 176.02 C 745.34 175.99 749.97 175.94 752.29 175.91 C 752.59 173.51 753.21 168.71 753.51 166.31 C 759.55 165.60 765.67 166.02 771.77 165.82 C 771.42 168.21 770.72 172.98 770.37 175.37 C 767.96 176.03 765.53 176.53 763.08 176.86 C 763.03 179.20 763.01 181.55 763.00 183.90 C 765.57 184.07 768.17 184.26 770.79 184.45 C 770.96 190.96 770.95 197.48 771.07 204.00 C 765.07 204.00 759.07 204.00 753.10 204.00 C 752.95 207.28 752.70 210.54 752.58 213.83 C 746.13 213.87 739.69 213.82 733.27 213.70 C 733.15 210.74 733.00 207.76 732.96 204.80 C 735.32 204.44 740.04 203.72 742.41 203.36 C 743.23 200.40 743.35 197.29 743.88 194.28 C 746.97 194.13 749.86 193.98 753.02 193.89 C 753.04 190.68 752.75 187.40 752.89 184.22 C 750.56 184.57 745.90 185.27 743.57 185.63 C 742.87 188.36 742.56 191.15 742.27 193.96 C 736.47 193.98 730.68 193.99 724.91 194.01 C 725.07 190.78 725.18 187.53 725.41 184.31 C 727.92 184.16 730.45 184.02 732.99 183.90 C 732.98 181.27 732.99 178.64 733.01 176.01 C 730.29 176.00 727.59 175.99 724.91 175.99 C 725.08 172.77 725.18 169.53 725.41 166.32 C 727.92 166.16 730.45 166.03 732.99 165.90 C 733.04 162.94 732.87 159.94 733.00 157.00 C 730.32 157.00 727.66 157.00 725.01 157.00 C 725.04 159.98 724.89 162.91 724.99 165.90 C 721.76 166.06 718.45 166.22 715.27 166.42 C 715.14 169.58 714.93 172.72 714.89 175.90 C 718.17 176.06 721.37 176.22 724.70 176.41 C 724.81 179.01 724.92 181.61 725.03 184.22 C 721.72 184.65 718.32 184.96 715.03 185.27 C 715.06 188.19 714.86 191.05 714.99 194.00 C 712.04 194.01 708.89 193.97 706.01 194.00 C 706.04 191.03 705.89 188.01 705.99 185.06 C 699.75 184.95 693.51 184.83 687.29 184.65 C 687.18 181.78 686.87 178.86 686.88 176.01 C 683.97 176.02 680.84 175.97 678.00 175.99 C 678.00 160.33 677.99 144.66 678.00 129.00 C 680.50 129.00 685.50 129.00 687.99 129.00 C 688.00 135.01 687.99 141.02 688.02 147.04 C 690.45 146.96 692.88 146.89 695.32 146.82 C 695.92 144.56 696.57 142.31 697.26 140.07 C 699.44 139.63 703.80 138.75 705.99 138.32 C 705.91 144.45 705.80 150.58 705.66 156.72 C 702.47 156.89 699.16 156.99 696.00 157.12 C 695.99 163.42 695.98 169.70 696.00 176.00 C 698.50 176.00 703.50 176.00 706.00 176.00 C 706.00 169.67 705.98 163.33 706.00 157.01 C 709.05 157.01 711.89 156.97 715.00 157.00 C 714.99 144.34 715.00 131.68 715.01 119.03 C 711.80 118.99 708.32 118.90 705.21 118.87 C 705.56 116.55 706.28 111.90 706.64 109.58 C 709.41 108.82 712.02 108.72 714.96 108.27 C 714.97 102.51 714.98 96.76 715.01 91.00 C 712.05 91.01 708.90 90.98 706.01 90.99 C 706.05 87.99 705.88 84.96 706.00 81.96 C 700.30 82.03 694.60 82.11 688.93 82.23 C 688.05 84.46 687.04 86.65 685.98 88.79 C 680.93 91.19 677.95 95.16 677.05 100.71 C 680.63 100.97 684.15 101.20 687.76 101.46 C 687.88 107.04 687.92 112.63 687.99 118.21 C 685.64 118.57 680.94 119.28 678.59 119.64 C 677.79 122.61 677.53 125.68 677.12 128.73 C 674.37 128.86 671.51 128.94 668.80 129.04 C 668.44 126.68 667.72 121.95 667.37 119.59 C 664.39 118.77 661.21 118.57 658.22 118.11 C 658.25 115.16 658.24 112.21 658.34 109.28 C 661.58 109.12 664.71 108.98 668.00 108.88 C 667.99 106.26 667.99 103.64 668.00 101.02 C 661.73 100.99 655.46 100.95 649.21 100.90 C 649.57 98.58 650.29 93.96 650.65 91.64 C 653.02 90.97 655.45 90.47 657.93 90.14 C 658.04 87.43 657.75 84.67 658.03 81.99 C 649.21 82.02 640.39 82.04 631.58 82.06 C 631.10 84.72 630.46 87.36 629.89 89.99 C 627.68 90.42 623.27 91.28 621.06 91.70 C 621.01 100.83 620.99 109.96 620.98 119.09 C 618.08 118.92 615.10 118.73 612.25 118.57 C 612.09 112.71 612.00 106.86 611.92 101.01 C 609.02 101.01 605.95 100.98 603.10 100.99 C 602.95 97.74 602.71 94.47 602.58 91.23 C 593.38 91.03 584.18 91.00 575.00 90.94 C 575.00 93.45 575.00 98.45 575.00 100.96 C 584.24 100.99 593.49 101.08 602.75 101.33 C 602.90 107.24 602.96 113.15 603.07 119.06 C 596.48 118.95 589.87 118.83 583.30 118.66 C 583.17 115.84 582.90 112.98 582.88 110.17 C 576.91 109.89 570.97 109.60 565.02 109.19 C 565.00 100.12 564.99 91.05 564.99 81.97 C 562.21 82.02 559.32 82.05 556.59 82.11 C 556.10 84.75 555.46 87.36 554.88 89.98 C 552.69 90.41 548.31 91.28 546.12 91.71 C 545.96 97.73 545.81 103.75 545.62 109.77 C 542.83 109.74 539.98 109.68 537.24 109.63 C 537.04 103.43 537.00 97.23 536.92 91.03 C 534.16 90.99 531.28 90.93 528.57 90.90 C 528.10 88.25 527.49 85.59 526.92 82.97 C 524.71 82.56 520.28 81.75 518.07 81.35 M 724.99 81.99 C 725.00 103.66 725.00 125.33 724.99 147.01 C 746.66 146.99 768.33 146.99 790.01 147.01 C 789.99 125.33 789.99 103.66 790.01 81.99 C 768.33 82.00 746.66 82.00 724.99 81.99 M 612.44 202.51 C 586.61 204.09 565.17 227.51 564.03 252.99 C 563.69 268.04 568.71 283.64 579.84 294.14 C 595.80 310.72 622.76 314.79 642.94 303.86 C 664.65 293.32 676.72 266.73 670.53 243.41 C 664.95 217.79 638.56 198.87 612.44 202.51 M 463.79 241.00 C 463.40 243.38 462.63 248.16 462.24 250.55 C 455.83 250.97 449.42 251.19 443.00 251.23 C 443.00 257.16 443.00 263.08 443.02 269.02 C 445.35 268.99 449.99 268.94 452.31 268.92 C 452.60 266.50 453.18 261.66 453.47 259.24 C 459.20 258.83 464.97 259.15 470.72 259.19 C 470.90 262.46 470.96 265.70 471.12 268.99 C 468.44 268.99 465.76 269.00 463.10 269.01 C 462.95 272.27 462.73 275.50 462.58 278.78 C 456.05 278.98 449.52 278.98 443.00 279.09 C 443.00 281.56 443.00 286.51 443.00 288.98 C 445.52 289.00 450.56 289.03 453.08 289.04 C 452.89 291.45 452.70 293.86 452.53 296.28 C 449.71 296.85 446.86 297.42 444.11 298.17 C 443.61 300.16 442.62 304.14 442.13 306.13 C 444.79 306.47 450.11 307.13 452.77 307.47 C 453.32 313.53 452.79 319.64 452.79 325.72 C 449.55 325.90 446.23 325.98 443.00 326.13 C 443.00 328.71 443.00 331.30 443.00 333.90 C 446.26 334.07 449.46 334.21 452.74 334.42 C 452.87 337.34 452.92 340.22 453.02 343.16 C 450.72 343.59 446.13 344.43 443.83 344.85 C 443.45 347.29 442.69 352.16 442.31 354.60 C 444.84 354.31 449.92 353.72 452.45 353.43 C 453.25 350.37 453.38 347.16 453.87 344.06 C 459.01 344.18 464.18 344.15 469.31 344.82 C 470.18 346.75 471.93 350.62 472.80 352.55 C 474.79 353.18 478.78 354.43 480.77 355.06 C 480.90 348.01 480.99 340.96 481.06 333.91 C 483.95 334.09 486.79 334.22 489.72 334.43 C 489.91 337.60 489.96 340.71 490.13 343.90 C 493.34 344.07 496.49 344.21 499.73 344.42 C 499.91 347.62 499.95 350.77 500.12 354.00 C 502.71 353.99 505.30 353.99 507.89 354.00 C 508.07 350.73 508.20 347.43 508.43 344.19 C 511.55 344.23 514.61 344.26 517.77 344.34 C 517.97 353.56 518.00 362.78 518.05 372.00 C 524.36 372.00 530.66 371.98 536.99 372.00 C 536.99 369.33 536.99 366.66 537.00 364.00 C 540.06 364.02 542.95 363.94 546.07 364.00 C 545.94 369.92 545.81 375.84 545.64 381.77 C 536.42 381.97 527.21 382.01 518.00 382.05 C 518.03 385.02 517.92 387.89 518.00 390.90 C 521.28 391.07 524.50 391.21 527.81 391.43 C 527.78 394.53 527.67 397.59 527.67 400.72 C 524.46 400.90 521.16 400.96 517.98 401.12 C 518.02 406.79 518.06 412.45 518.14 418.13 C 520.37 418.59 524.83 419.50 527.06 419.95 C 527.47 422.20 528.28 426.69 528.68 428.93 C 531.47 429.01 534.00 428.87 536.89 429.02 C 537.07 425.77 537.20 422.46 537.43 419.23 C 540.20 419.26 542.91 419.27 545.72 419.36 C 545.91 422.59 545.95 425.74 546.12 429.00 C 565.08 429.00 584.05 429.01 603.02 428.98 C 602.99 426.67 602.93 422.04 602.90 419.72 C 600.53 419.41 595.78 418.78 593.40 418.47 C 592.94 415.43 593.04 412.29 592.99 409.25 C 599.30 409.04 605.59 409.01 611.92 408.91 C 612.07 406.34 612.25 403.78 612.45 401.23 C 618.66 401.05 624.86 401.01 631.09 400.93 C 630.95 397.71 630.71 394.46 630.59 391.27 C 627.42 391.13 624.14 390.96 621.01 390.88 C 621.04 387.96 620.89 384.93 621.00 382.05 C 626.95 381.96 632.89 381.87 638.87 381.73 C 639.55 379.80 640.93 375.94 641.62 374.01 C 645.73 371.87 651.36 370.82 651.35 364.86 C 654.03 363.35 658.44 363.28 657.61 358.78 L 658.77 354.25 C 655.92 354.00 653.08 353.76 650.25 353.53 C 650.13 350.37 649.93 347.15 649.89 344.01 C 652.59 344.00 655.29 343.99 658.00 343.99 C 658.04 341.02 657.89 337.95 658.00 335.00 C 651.99 335.00 645.99 334.99 640.00 335.00 C 639.99 341.33 639.99 347.65 640.00 353.99 C 637.04 354.02 633.90 353.95 631.00 354.00 C 630.99 360.02 630.99 366.03 631.00 372.06 C 624.73 371.95 618.47 371.82 612.22 371.65 C 612.04 362.51 612.07 353.37 612.29 344.24 C 618.53 344.04 624.76 344.01 631.02 343.92 C 631.02 341.21 630.87 338.43 630.90 335.74 C 628.52 335.42 623.75 334.79 621.37 334.47 C 620.56 328.43 620.83 322.30 620.49 316.24 C 614.40 316.10 608.30 316.05 602.23 316.00 C 602.58 318.36 603.28 323.07 603.62 325.43 C 606.61 326.23 609.65 326.37 612.75 326.85 C 612.77 332.49 612.75 338.14 612.70 343.79 C 602.77 344.07 592.83 343.98 582.91 344.03 C 583.07 340.78 583.19 337.50 583.41 334.27 C 586.63 334.12 589.75 333.96 593.01 333.88 C 592.97 326.23 592.97 318.58 593.01 310.94 C 583.33 310.99 573.66 311.09 564.00 311.62 C 569.72 314.98 575.71 318.34 575.90 325.88 C 569.30 325.99 562.68 325.98 556.10 326.03 C 555.95 322.78 555.72 319.49 555.58 316.26 C 552.68 316.15 549.71 316.03 546.83 315.98 C 546.45 318.31 545.70 322.99 545.32 325.32 C 542.99 326.00 540.62 326.53 538.23 326.89 C 537.84 329.36 537.50 331.86 537.15 334.35 C 534.32 334.73 531.40 335.01 528.59 335.34 C 528.09 337.92 527.44 340.41 526.88 343.00 C 524.67 343.42 520.24 344.27 518.03 344.70 C 518.05 338.83 518.10 332.95 518.22 327.10 C 520.19 326.45 524.13 325.14 526.10 324.49 C 526.90 322.59 528.51 318.79 529.31 316.89 C 531.70 315.66 534.29 315.87 536.92 315.05 C 537.02 312.41 536.78 309.57 537.03 307.01 C 534.06 307.02 530.94 306.95 528.02 306.99 C 527.97 300.73 527.94 294.47 527.90 288.21 C 525.58 288.57 520.95 289.28 518.63 289.64 C 517.95 292.05 517.45 294.51 517.14 297.00 C 514.21 296.88 511.21 296.71 508.32 296.59 C 508.15 294.11 507.99 291.63 507.86 289.16 C 505.21 288.84 502.58 288.49 499.97 288.19 C 500.01 285.14 499.94 282.03 500.02 279.01 C 502.64 279.00 505.26 278.99 507.90 278.99 C 508.07 275.75 508.20 272.49 508.42 269.27 C 511.38 269.14 514.28 269.01 517.27 268.93 C 517.58 271.36 518.21 276.23 518.52 278.66 C 524.63 279.52 530.84 278.95 537.00 279.20 C 537.00 272.80 536.98 266.39 537.00 260.00 C 527.33 260.01 517.66 260.00 508.01 259.99 C 508.03 263.01 507.91 265.95 507.99 268.99 C 505.35 268.99 502.72 269.00 500.10 269.01 C 499.95 272.26 499.72 275.47 499.58 278.72 C 496.44 278.90 493.21 278.98 490.10 279.13 C 489.95 282.33 489.72 285.49 489.58 288.71 C 486.78 288.89 483.81 288.93 481.08 289.11 C 480.94 295.00 480.81 300.90 480.63 306.80 C 477.51 306.78 474.34 306.69 471.26 306.66 C 471.09 300.80 471.01 294.94 470.92 289.09 C 468.01 288.92 465.06 288.71 462.19 288.56 C 462.24 285.45 462.25 282.32 462.34 279.23 C 468.57 279.05 474.80 279.01 481.05 278.93 C 480.99 269.71 480.91 260.49 480.68 251.28 C 477.51 251.12 474.26 250.97 471.11 250.87 C 470.94 247.69 470.71 244.47 470.56 241.31 C 468.30 241.19 466.04 241.09 463.79 241.00 M 547.26 277.84 C 546.78 280.47 545.83 285.73 545.35 288.36 C 542.96 289.03 540.54 289.53 538.09 289.87 C 538.04 292.24 538.00 294.62 537.97 297.00 C 546.03 296.96 554.08 296.96 562.15 296.98 C 561.85 294.57 561.54 292.17 561.23 289.78 C 557.06 285.11 553.79 279.42 547.26 277.84 M 781.01 307.00 C 781.05 310.01 780.87 312.94 780.99 315.98 C 774.72 316.02 768.45 316.04 762.20 316.11 C 762.57 318.42 763.29 323.04 763.66 325.35 C 766.02 326.02 768.43 326.53 770.90 326.87 C 770.93 329.23 770.97 331.61 771.03 333.98 C 777.35 334.00 783.66 333.99 790.01 334.01 C 789.97 325.00 789.98 316.00 790.01 307.00 C 787.06 307.02 783.88 306.95 781.01 307.00 M 640.00 311.00 C 640.00 314.75 640.00 322.25 640.00 326.00 C 642.50 326.00 647.50 326.00 650.00 326.00 C 650.00 322.25 650.00 314.75 650.00 311.00 C 647.50 311.00 642.50 311.00 640.00 311.00 M 753.00 326.00 C 752.99 328.66 752.99 331.33 753.00 334.00 C 756.05 334.02 758.88 333.95 762.00 334.00 C 761.99 331.33 761.99 328.66 762.00 326.00 C 759.05 326.02 755.88 325.95 753.00 326.00 M 771.06 344.00 C 770.96 350.56 770.82 357.11 770.65 363.68 C 768.09 363.83 765.54 363.97 763.00 364.11 C 763.00 366.70 763.01 369.30 763.04 371.91 C 765.44 372.08 767.86 372.27 770.29 372.49 C 770.86 375.34 771.37 378.15 772.12 380.99 C 774.34 381.41 778.79 382.24 781.01 382.66 C 780.97 391.76 780.86 400.88 780.25 409.97 C 777.20 410.01 773.98 409.95 771.00 410.01 C 770.99 416.35 770.98 422.67 771.00 429.01 C 777.59 428.99 784.16 428.94 790.78 428.91 C 790.43 426.58 789.72 421.92 789.37 419.59 C 786.51 418.73 782.97 418.46 780.25 417.97 C 780.62 415.89 781.35 411.73 781.72 409.65 C 784.44 408.80 786.99 408.51 789.91 408.02 C 790.07 386.68 789.97 365.34 790.01 344.00 C 783.69 344.00 777.35 343.99 771.06 344.00 M 442.99 363.99 C 443.00 385.66 443.00 407.33 442.99 429.01 C 464.66 428.99 486.33 428.99 508.01 429.01 C 507.99 407.33 507.99 385.66 508.01 363.99 C 486.33 364.00 464.66 364.00 442.99 363.99 Z" />
<path fill="#f5f5f5" opacity="1.00" d=" M 453.00 91.00 C 468.66 91.00 484.33 91.00 500.00 91.00 C 500.00 107.00 499.99 123.00 500.00 139.00 C 484.33 139.00 468.66 139.00 453.00 139.00 C 452.99 123.00 453.00 107.00 453.00 91.00 M 462.99 100.99 C 463.01 110.33 463.01 119.67 462.99 129.01 C 471.99 128.98 480.99 128.98 490.01 129.01 C 489.98 119.67 489.98 110.33 490.01 100.99 C 481.00 101.02 471.99 101.01 462.99 100.99 Z" />
<path fill="#f5f5f5" opacity="1.00" d=" M 733.26 91.31 C 749.06 90.87 764.88 90.87 780.69 91.26 C 781.12 107.06 781.12 122.88 780.74 138.69 C 764.93 139.12 749.11 139.13 733.31 138.74 C 732.87 122.94 732.87 107.12 733.26 91.31 M 742.99 100.99 C 743.01 110.33 743.00 119.67 742.99 129.01 C 752.32 128.98 761.66 128.99 771.01 129.01 C 770.98 119.67 770.98 110.33 771.01 100.99 C 761.66 101.01 752.32 101.01 742.99 100.99 Z" />
<path fill="#f5f5f5" opacity="1.00" d=" M 631.00 100.93 C 637.20 101.01 643.42 101.06 649.64 101.23 C 649.81 107.15 649.94 113.07 650.07 118.99 C 652.70 118.99 655.35 119.00 658.00 119.01 C 657.98 125.71 657.98 132.42 657.98 139.12 C 655.45 138.98 652.93 138.84 650.42 138.68 C 650.19 135.45 650.07 132.23 649.90 129.01 C 643.61 129.00 637.34 129.00 631.07 129.00 C 630.96 134.86 630.90 140.72 630.75 146.58 C 627.44 146.75 624.23 146.94 620.95 147.10 C 620.99 137.85 621.02 128.60 621.23 119.36 C 627.47 119.18 633.73 119.04 640.00 118.94 C 639.90 115.94 640.04 112.99 640.00 110.01 C 636.90 109.98 634.04 110.01 631.00 110.00 C 630.91 106.96 631.04 103.96 631.00 100.93 Z" />
<path fill="#f5f5f5" opacity="1.00" d=" M 696.00 100.87 C 699.18 100.99 702.51 101.12 705.72 101.30 C 705.51 104.17 705.42 107.06 705.27 109.94 C 702.05 109.94 699.14 110.00 696.00 110.02 C 695.90 106.95 696.04 103.92 696.00 100.87 Z" />
<path fill="#f5f5f5" opacity="1.00" d=" M 556.01 108.86 C 558.75 108.98 561.77 109.14 564.59 109.29 C 564.72 112.52 564.95 115.76 565.09 118.99 C 561.97 118.98 559.06 119.01 556.00 119.00 C 556.00 116.47 556.01 111.39 556.01 108.86 Z" />
<path fill="#f5f5f5" opacity="1.00" d=" M 575.00 119.00 C 577.66 119.00 580.32 119.00 583.00 119.00 C 583.00 121.50 583.00 126.50 583.00 129.00 C 580.32 129.00 577.66 129.00 575.00 129.00 C 575.00 126.50 575.00 121.50 575.00 119.00 Z" />
<path fill="#f5f5f5" opacity="1.00" d=" M 603.71 119.36 C 606.64 119.29 609.69 119.23 612.66 119.19 C 612.91 128.43 613.00 137.66 613.06 146.90 C 615.55 147.03 618.06 147.16 620.59 147.31 C 620.72 150.55 620.95 153.81 621.09 157.05 C 611.84 157.00 602.59 156.97 593.34 156.77 C 593.24 153.64 593.24 150.55 593.19 147.43 C 596.41 147.23 599.74 147.07 603.00 146.89 C 602.99 144.30 602.99 141.71 603.00 139.13 C 599.74 138.99 596.62 138.90 593.40 138.73 C 593.21 135.71 593.13 132.72 592.99 129.71 C 595.22 129.28 599.67 128.43 601.89 128.00 C 602.56 125.13 603.18 122.26 603.71 119.36 Z" />
<path fill="#f5f5f5" opacity="1.00" d=" M 564.98 139.00 C 567.48 139.00 572.49 139.00 575.00 139.00 C 574.99 145.00 574.99 151.00 575.00 157.00 C 580.99 157.00 587.00 157.00 593.00 157.00 C 592.90 159.93 593.04 162.93 593.00 165.88 C 589.74 165.98 586.63 166.12 583.41 166.27 C 583.19 169.48 583.07 172.71 582.91 175.92 C 589.47 176.01 596.06 176.01 602.64 176.22 C 602.63 179.02 602.75 181.85 602.76 184.67 C 593.57 184.91 584.38 184.99 575.19 185.05 C 574.94 178.88 575.53 172.65 574.66 166.53 C 572.25 166.22 567.45 165.59 565.05 165.28 C 565.03 156.51 565.02 147.76 564.98 139.00 Z" />
<path fill="#f5f5f5" opacity="1.00" d=" M 583.00 139.00 C 585.50 139.00 590.50 139.00 593.00 139.00 C 592.99 141.66 592.99 144.33 593.00 147.00 C 590.50 147.00 585.50 147.00 583.00 147.00 C 582.99 144.33 582.99 141.66 583.00 139.00 Z" />
<path fill="#f5f5f5" opacity="1.00" d=" M 639.93 139.02 C 642.45 139.01 647.49 139.00 650.01 138.99 C 649.99 141.70 649.99 144.41 650.00 147.12 C 646.74 146.98 643.65 146.89 640.44 146.73 C 640.25 144.16 640.07 141.59 639.93 139.02 Z" />
<path fill="#f5f5f5" opacity="1.00" d=" M 658.32 139.41 C 661.49 139.23 664.78 139.06 667.99 138.91 C 667.99 141.60 667.99 144.30 668.00 147.01 C 665.47 147.00 660.41 146.98 657.88 146.98 C 658.00 144.45 658.15 141.93 658.32 139.41 Z" />
<path fill="#f5f5f5" opacity="1.00" d=" M 537.24 147.37 C 539.81 147.32 542.48 147.30 545.11 147.25 C 545.53 150.28 545.78 153.39 546.60 156.35 C 548.94 156.72 553.61 157.45 555.95 157.82 C 555.75 160.16 555.94 162.61 555.84 164.98 C 548.38 166.38 544.46 172.86 538.78 177.07 C 538.30 179.54 538.00 182.07 537.57 184.55 C 534.58 184.73 531.71 184.95 528.76 185.14 C 528.13 187.82 528.23 190.71 527.40 193.37 C 525.01 193.72 520.21 194.43 517.81 194.78 C 517.83 200.94 518.04 207.10 518.44 213.25 C 520.83 213.63 525.62 214.40 528.01 214.78 C 527.91 217.06 527.80 219.34 527.69 221.63 C 521.39 221.81 515.11 221.95 508.82 222.08 C 508.46 219.43 508.15 216.78 507.84 214.14 C 505.35 213.99 502.88 213.84 500.41 213.68 C 500.22 210.72 500.13 207.80 499.99 204.86 C 502.48 204.53 504.93 204.03 507.36 203.37 C 507.72 201.06 508.43 196.44 508.79 194.13 C 505.88 194.07 502.99 194.03 500.10 193.98 C 499.94 197.21 499.90 200.47 499.73 203.71 C 487.11 204.07 474.48 204.12 461.88 203.51 C 461.89 200.39 462.17 197.40 462.29 194.32 C 471.52 194.07 480.75 193.99 490.00 193.96 C 489.98 187.93 490.00 181.91 490.00 175.88 C 493.14 175.98 496.39 176.12 499.55 176.27 C 499.72 178.84 499.89 181.41 500.08 183.99 C 506.01 183.99 511.96 183.99 517.90 183.99 C 518.02 181.46 518.16 178.94 518.32 176.42 C 521.46 176.22 524.69 176.06 527.87 175.90 C 527.94 172.72 528.13 169.59 528.28 166.43 C 531.11 166.24 534.04 166.08 536.92 165.91 C 537.00 159.72 537.05 153.55 537.24 147.37 Z" />
<path fill="#f5f5f5" opacity="1.00" d=" M 631.00 147.00 C 633.90 146.98 637.04 147.01 640.00 147.00 C 640.00 149.50 640.00 154.50 640.00 157.00 C 636.90 156.97 634.04 157.01 631.00 157.00 C 631.00 154.50 631.00 149.50 631.00 147.00 Z" />
<path fill="#f5f5f5" opacity="1.00" d=" M 518.00 157.00 C 520.50 157.00 525.50 157.00 528.00 157.00 C 527.92 159.97 528.03 163.01 528.00 166.00 C 525.50 166.00 520.50 166.00 518.00 166.00 C 517.92 162.97 518.03 160.01 518.00 157.00 Z" />
<path fill="#f5f5f5" opacity="1.00" d=" M 500.28 166.30 C 506.04 166.22 511.81 166.19 517.59 166.23 C 517.73 169.47 517.95 172.74 518.09 176.00 C 512.01 176.00 505.95 175.99 499.88 176.00 C 499.95 172.75 500.13 169.54 500.28 166.30 Z" />
<path fill="#f5f5f5" opacity="1.00" d=" M 603.01 165.84 C 606.17 165.96 609.47 166.11 612.67 166.28 C 612.67 169.36 612.79 172.48 612.81 175.57 C 609.49 175.74 606.28 175.94 603.00 176.10 C 603.00 173.53 603.00 168.41 603.01 165.84 Z" />
<path fill="#f5f5f5" opacity="1.00" d=" M 462.38 175.80 C 465.09 176.14 467.99 176.16 470.65 177.01 C 470.63 179.68 470.83 182.47 470.73 185.18 C 467.63 184.78 464.91 184.52 461.92 184.16 C 462.06 181.37 462.21 178.58 462.38 175.80 Z" />
<path fill="#f5f5f5" opacity="1.00" d=" M 453.29 184.25 C 456.52 184.33 459.82 184.42 463.06 184.71 C 462.84 187.62 462.90 190.65 462.73 193.59 C 459.41 193.75 456.17 193.94 452.88 194.09 C 452.96 190.79 453.13 187.54 453.29 184.25 Z" />
<path fill="#f5f5f5" opacity="1.00" d=" M 528.27 194.33 C 531.35 194.26 534.53 194.22 537.65 194.20 C 537.67 197.31 537.78 200.45 537.81 203.58 C 534.46 203.74 531.20 203.94 527.88 204.10 C 527.95 200.82 528.13 197.59 528.27 194.33 Z" />
<path fill="#f5f5f5" opacity="1.00" d=" M 537.19 204.44 C 540.08 204.24 543.07 204.09 545.99 203.91 C 545.99 206.47 545.99 211.59 545.99 214.15 C 542.99 213.96 540.26 213.88 537.34 213.70 C 537.24 210.60 537.24 207.53 537.19 204.44 Z" />
<path fill="#f5f5f5" opacity="1.00" d=" M 714.90 204.00 C 717.47 204.00 722.59 204.00 725.16 204.01 C 724.95 207.21 724.92 210.45 724.72 213.67 C 721.56 213.70 718.54 213.78 715.43 213.81 C 715.19 210.52 715.08 207.27 714.90 204.00 Z" />
<path fill="#f5f5f5" opacity="1.00" d=" M 490.00 213.99 C 492.53 214.00 497.59 214.02 500.12 214.02 C 499.98 216.54 499.83 219.06 499.68 221.59 C 496.42 221.75 493.24 221.94 490.01 222.09 C 489.99 219.39 489.99 216.69 490.00 213.99 Z" />
<path fill="#f5f5f5" opacity="1.00" d=" M 725.00 214.00 C 727.65 214.00 730.32 214.00 733.00 214.00 C 732.99 216.66 732.99 219.33 733.00 222.00 C 730.32 222.00 727.66 222.00 725.00 222.00 C 724.99 219.33 724.99 216.66 725.00 214.00 Z" />
<path fill="#f5f5f5" opacity="1.00" d=" M 499.91 222.01 C 502.60 222.00 505.30 222.00 508.01 222.00 C 508.00 224.53 507.98 229.59 507.98 232.12 C 505.44 231.98 502.92 231.84 500.41 231.68 C 500.20 228.44 500.07 225.24 499.91 222.01 Z" />
<path fill="#f5f5f5" opacity="1.00" d=" M 545.99 221.99 C 548.53 222.00 553.61 222.00 556.15 222.01 C 555.96 225.18 555.91 228.40 555.72 231.59 C 552.44 231.75 549.25 231.94 546.00 232.09 C 546.00 229.57 546.00 224.52 545.99 221.99 Z" />
<path fill="#f5f5f5" opacity="1.00" d=" M 715.28 222.33 C 718.32 222.26 721.49 222.23 724.57 222.19 C 724.70 225.44 724.95 228.73 725.10 232.00 C 722.53 232.00 717.41 232.00 714.84 231.99 C 714.91 228.75 715.13 225.56 715.28 222.33 Z" />
<path fill="#f5f5f5" opacity="1.00" d=" M 592.02 274.99 C 600.97 259.79 608.87 243.92 618.91 229.37 C 627.50 244.64 636.54 259.65 645.04 274.96 C 627.36 275.02 609.69 275.00 592.02 274.99 Z" />
<path fill="#f5f5f5" opacity="1.00" d=" M 715.20 241.42 C 718.41 241.22 721.74 241.07 725.00 240.90 C 724.98 247.30 725.00 253.72 725.00 260.12 C 721.70 259.98 718.56 259.90 715.30 259.72 C 715.19 253.62 715.14 247.52 715.20 241.42 Z" />
<path fill="#f5f5f5" opacity="1.00" d=" M 706.01 258.86 C 708.71 258.94 711.79 259.15 714.59 259.29 C 714.71 262.50 714.95 265.76 715.09 268.99 C 711.94 268.95 709.07 269.02 706.00 269.00 C 706.00 266.47 706.01 261.39 706.01 258.86 Z" />
<path fill="#f5f5f5" opacity="1.00" d=" M 733.28 259.41 C 736.46 259.22 739.77 259.07 743.00 258.91 C 743.00 261.43 743.00 266.48 743.01 269.01 C 740.47 269.00 735.39 269.00 732.85 268.99 C 732.91 265.77 733.13 262.62 733.28 259.41 Z" />
<path fill="#f5f5f5" opacity="1.00" d=" M 490.09 288.26 C 492.24 288.73 496.54 289.66 498.69 290.13 C 499.38 292.33 500.05 294.54 500.68 296.76 C 503.36 296.89 506.04 297.02 508.72 297.17 C 508.26 299.30 507.33 303.56 506.87 305.69 C 504.64 306.39 502.42 307.06 500.19 307.70 C 500.05 310.43 500.05 313.24 499.95 315.99 C 493.62 315.99 487.31 316.00 481.00 316.00 C 480.92 312.95 481.03 310.02 481.00 307.00 C 483.91 306.95 487.01 307.02 489.97 306.99 C 489.99 300.74 490.02 294.50 490.09 288.26 Z" />
<path fill="#f5f5f5" opacity="1.00" d=" M 452.90 297.00 C 455.47 297.00 460.59 297.00 463.16 297.01 C 462.98 300.20 462.91 303.46 462.72 306.67 C 459.58 306.69 456.53 306.78 453.43 306.81 C 453.21 303.51 453.07 300.28 452.90 297.00 Z" />
<path fill="#f5f5f5" opacity="1.00" d=" M 462.20 307.44 C 465.08 307.23 468.06 307.08 470.99 306.92 C 470.91 309.85 471.03 312.91 471.01 315.88 C 474.16 315.96 477.41 316.12 480.59 316.27 C 480.73 319.51 480.95 322.81 481.09 326.07 C 474.82 325.98 468.56 325.94 462.30 325.77 C 462.20 319.65 462.15 313.54 462.20 307.44 Z" />
<path fill="#f5f5f5" opacity="1.00" d=" M 508.29 307.41 C 511.49 307.21 514.77 307.07 517.99 306.91 C 517.91 309.89 518.03 312.99 518.00 316.00 C 515.47 316.00 510.39 315.99 507.86 315.99 C 507.89 313.06 508.17 310.30 508.29 307.41 Z" />
<path fill="#f5f5f5" opacity="1.00" d=" M 678.00 307.00 C 680.50 307.00 685.50 307.00 688.00 307.00 C 687.89 309.95 688.04 313.02 688.00 316.00 C 685.50 316.00 680.50 316.00 678.00 316.00 C 677.89 312.95 678.04 310.02 678.00 307.00 Z" />
<path fill="#f5f5f5" opacity="1.00" d=" M 500.28 316.39 C 502.70 316.34 505.13 316.30 507.58 316.29 C 507.72 319.50 507.95 322.77 508.10 326.00 C 505.35 325.99 502.61 325.99 499.87 326.00 C 499.95 322.76 500.14 319.60 500.28 316.39 Z" />
<path fill="#f5f5f5" opacity="1.00" d=" M 452.91 325.89 C 456.11 325.97 459.41 326.13 462.64 326.27 C 462.64 329.03 462.75 331.86 462.76 334.65 C 459.61 334.68 456.55 334.78 453.44 334.81 C 453.22 331.81 453.10 328.87 452.91 325.89 Z" />
<path fill="#f5f5f5" opacity="1.00" d=" M 489.94 325.29 C 492.65 325.69 495.78 325.76 498.52 326.51 C 499.47 328.54 500.05 330.73 500.83 332.87 C 503.01 333.34 505.15 333.96 507.25 334.75 C 507.65 337.03 508.45 341.57 508.85 343.85 C 505.88 343.91 502.92 343.96 499.98 344.02 C 499.90 340.99 500.03 338.11 500.00 335.12 C 496.75 334.97 493.62 334.91 490.41 334.73 C 490.20 331.56 490.10 328.44 489.94 325.29 Z" />
<path fill="#f5f5f5" opacity="1.00" d=" M 575.17 326.46 C 577.79 326.27 580.43 326.09 583.09 325.93 C 582.83 328.72 582.92 331.70 582.73 334.54 C 580.98 334.68 577.50 334.96 575.76 335.09 C 575.53 332.20 575.34 329.33 575.17 326.46 Z" />
<path fill="#f5f5f5" opacity="1.00" d=" M 687.24 326.45 C 690.09 326.23 693.07 326.09 695.98 325.92 C 695.98 328.56 695.99 331.22 696.01 333.88 C 699.15 333.96 702.44 334.12 705.62 334.27 C 705.73 337.72 705.93 341.22 706.03 344.68 C 703.80 344.27 699.32 343.44 697.09 343.02 C 696.39 340.40 695.96 337.85 695.43 335.22 C 692.63 334.99 690.09 334.90 687.37 334.68 C 687.25 331.90 687.27 329.19 687.24 326.45 Z" />
<path fill="#f5f5f5" opacity="1.00" d=" M 537.17 334.28 C 549.77 333.88 562.39 333.91 574.97 334.71 C 574.76 337.47 575.03 340.49 574.94 343.32 C 572.69 343.73 568.19 344.53 565.94 344.93 C 565.49 347.19 564.59 351.69 564.14 353.95 C 555.18 353.96 546.24 353.96 537.30 353.78 C 537.18 347.27 537.11 340.78 537.17 334.28 Z" />
<path fill="#f5f5f5" opacity="1.00" d=" M 565.20 354.33 C 577.81 353.96 590.44 353.97 603.07 353.98 C 602.96 359.84 602.90 365.71 602.75 371.58 C 599.46 371.73 596.27 371.94 593.01 372.10 C 592.98 378.35 593.00 384.61 592.99 390.88 C 589.72 390.96 586.57 391.13 583.34 391.28 C 583.23 394.34 583.24 397.48 583.19 400.57 C 586.45 400.73 589.81 400.95 593.11 401.11 C 592.86 403.88 592.90 406.84 592.71 409.66 C 589.57 409.68 586.54 409.78 583.44 409.81 C 583.21 406.84 583.09 403.95 582.91 401.01 C 567.71 401.05 552.51 401.06 537.32 400.70 C 537.24 397.58 537.25 394.55 537.20 391.46 C 539.83 391.22 542.56 391.07 545.24 390.87 C 545.60 388.05 545.86 385.36 546.59 382.65 C 548.91 382.29 553.55 381.56 555.87 381.20 C 555.80 384.38 556.02 387.77 556.03 391.01 C 562.34 390.99 568.68 391.00 575.00 391.00 C 574.90 387.95 575.03 385.05 574.99 382.04 C 577.90 381.99 580.82 381.94 583.75 381.88 C 583.27 379.74 582.32 375.46 581.85 373.32 C 579.64 372.61 577.43 371.93 575.22 371.29 C 575.12 368.90 575.03 366.52 574.95 364.15 C 571.69 363.99 568.56 363.91 565.33 363.72 C 565.23 360.56 565.23 357.46 565.20 354.33 Z" />
<path fill="#f5f5f5" opacity="1.00" d=" M 640.27 354.41 C 643.50 354.21 646.84 354.07 650.12 353.91 C 649.93 357.10 649.91 360.38 649.73 363.59 C 646.40 363.74 643.18 363.95 639.88 364.09 C 639.93 360.83 640.14 357.65 640.27 354.41 Z" />
<path fill="#f5f5f5" opacity="1.00" d=" M 714.99 353.99 C 724.32 354.00 733.66 354.01 743.01 353.99 C 742.98 363.33 742.98 372.67 743.01 382.01 C 733.66 381.99 724.32 381.98 714.99 382.01 C 715.00 372.66 715.01 363.33 714.99 353.99 M 725.00 364.00 C 724.99 366.66 724.99 369.33 725.00 372.00 C 727.66 371.99 730.32 371.99 733.00 372.00 C 732.99 369.33 732.99 366.66 733.00 364.00 C 730.32 363.99 727.65 363.99 725.00 364.00 Z" />
<path fill="#f5f5f5" opacity="1.00" d=" M 556.00 364.00 C 558.91 363.94 562.03 364.02 565.00 364.00 C 564.99 366.66 564.99 369.33 565.00 372.00 C 561.91 371.94 559.03 372.02 556.00 372.00 C 555.99 369.33 555.99 366.66 556.00 364.00 Z" />
<path fill="#f5f5f5" opacity="1.00" d=" M 771.00 364.00 C 773.50 364.00 778.50 364.00 781.00 364.00 C 780.99 366.66 780.99 369.33 781.00 372.00 C 778.50 372.00 773.50 372.00 771.00 372.00 C 770.99 369.33 770.99 366.66 771.00 364.00 Z" />
<path fill="#f5f5f5" opacity="1.00" d=" M 453.00 372.00 C 468.66 372.00 484.33 372.00 500.00 372.00 C 500.00 387.66 499.99 403.33 500.00 419.00 C 484.33 419.00 468.66 418.99 453.00 419.00 C 453.00 403.33 453.00 387.66 453.00 372.00 M 462.99 381.99 C 463.01 390.99 463.01 399.99 462.99 409.01 C 471.99 408.98 480.99 408.98 490.01 409.01 C 489.97 400.00 489.98 390.99 490.01 381.99 C 481.00 382.02 471.99 382.01 462.99 381.99 Z" />
<path fill="#f5f5f5" opacity="1.00" d=" M 603.00 371.88 C 606.18 371.96 609.49 372.13 612.71 372.28 C 612.93 381.70 612.99 391.14 612.80 400.58 C 609.49 400.73 606.27 400.94 602.99 401.10 C 603.00 391.35 603.00 381.61 603.00 371.88 Z" />
<path fill="#f5f5f5" opacity="1.00" d=" M 697.82 373.41 C 699.82 372.79 703.82 371.57 705.81 370.95 C 706.06 383.86 706.08 396.77 705.77 409.68 C 696.51 409.91 687.25 409.99 677.99 410.05 C 677.98 403.60 678.00 397.18 678.01 390.74 C 681.28 391.01 684.67 391.35 687.96 391.76 C 687.85 394.77 688.04 397.95 688.01 401.00 C 690.70 400.99 693.40 400.99 696.11 401.00 C 695.93 397.77 695.91 394.63 695.73 391.43 C 692.75 391.21 689.91 391.08 686.98 390.90 C 686.76 388.10 687.13 385.63 687.07 382.92 C 689.17 381.86 692.47 382.40 694.73 381.16 C 695.50 379.22 697.05 375.35 697.82 373.41 Z" />
<path fill="#f5f5f5" opacity="1.00" d=" M 753.01 390.84 C 756.15 390.94 759.47 391.12 762.67 391.28 C 762.65 394.34 762.79 397.48 762.81 400.57 C 759.48 400.73 756.28 400.94 753.00 401.10 C 753.00 398.53 753.00 393.41 753.01 390.84 Z" />
<path fill="#f5f5f5" opacity="1.00" d=" M 528.00 400.88 C 531.16 400.96 534.45 401.13 537.64 401.28 C 537.63 404.00 537.75 406.81 537.77 409.57 C 534.47 409.72 531.27 409.94 528.00 410.10 C 527.92 406.96 528.03 403.97 528.00 400.88 Z" />
<path fill="#f5f5f5" opacity="1.00" d=" M 546.01 408.85 C 549.14 408.94 552.41 409.12 555.59 409.28 C 555.72 412.48 555.95 415.76 556.09 419.00 C 553.57 419.00 548.52 419.00 545.99 419.01 C 546.00 416.47 546.00 411.39 546.01 408.85 Z" />
</g>
</svg>
