<?xml version="1.0" encoding="UTF-8" ?>
<!DOCTYPE svg PUBLIC "-//W3C//DTD SVG 1.1//EN" "http://www.w3.org/Graphics/SVG/1.1/DTD/svg11.dtd">
<svg width="252pt" height="252pt" viewBox="0 0 252 252" version="1.1" xmlns="http://www.w3.org/2000/svg">
<g id="#ffffffff">
<path fill="#ffffff" opacity="1.00" d=" M 0.00 0.00 L 252.00 0.00 L 252.00 252.00 L 0.00 252.00 L 0.00 0.00 M 0.92 1.02 C 1.14 16.68 0.97 32.33 1.02 47.99 C 16.67 47.97 32.33 47.98 47.99 47.98 C 47.97 32.33 47.97 16.67 47.99 1.02 C 32.30 1.03 16.61 1.01 0.92 1.02 M 55.02 0.96 C 55.01 12.30 55.03 23.65 55.01 34.99 C 57.34 34.99 59.66 34.99 61.98 35.00 C 61.98 32.66 61.98 30.32 61.98 27.99 C 64.33 27.98 66.67 27.98 69.02 27.98 C 69.02 30.32 69.02 32.65 69.01 34.99 C 73.35 34.98 77.68 34.98 82.02 34.98 C 82.02 39.33 82.02 43.67 82.01 48.02 C 79.68 48.03 77.34 48.02 75.00 47.99 C 74.98 46.00 74.98 44.01 74.99 42.02 C 73.00 42.02 71.01 42.02 69.02 42.01 C 69.02 44.01 69.02 46.00 69.00 47.99 C 66.66 48.02 64.32 48.03 61.98 48.02 C 61.98 46.02 61.98 44.02 61.99 42.02 C 59.66 42.02 57.34 42.02 55.01 42.01 C 55.02 46.34 55.05 50.67 54.99 55.00 C 50.67 55.04 46.34 55.02 42.02 55.01 C 42.02 57.34 42.02 59.67 41.99 62.00 C 39.65 62.02 37.32 62.02 34.98 62.02 C 34.98 59.68 34.98 57.34 34.98 55.01 C 32.66 55.02 30.34 55.02 28.02 55.01 C 28.02 59.68 28.02 64.35 28.02 69.01 C 25.68 69.02 23.35 69.02 21.01 68.99 C 20.95 64.33 20.99 59.67 20.98 55.01 C 16.66 55.03 12.34 55.02 8.01 55.01 C 8.02 57.35 8.02 59.68 8.02 62.02 C 5.68 62.02 3.33 62.02 0.99 62.02 C 0.96 64.34 0.95 66.66 0.97 68.98 C 3.32 68.98 5.67 68.98 8.02 68.99 C 8.02 70.99 8.02 72.99 7.99 74.99 C 5.67 75.03 3.34 75.02 1.02 75.01 C 1.02 77.33 1.02 79.66 1.01 81.99 C 3.34 81.98 5.67 81.98 7.99 82.01 C 8.02 84.33 8.02 86.66 8.01 88.99 C 10.34 88.98 12.67 88.97 14.99 89.00 C 15.03 91.34 15.02 93.68 15.01 96.02 C 10.34 96.02 5.68 96.02 1.01 96.02 C 1.03 100.34 1.02 104.66 1.01 108.99 C 7.67 108.98 14.33 108.97 20.99 108.99 C 20.98 104.65 20.98 100.32 20.98 95.98 C 23.33 95.98 25.67 95.98 28.02 95.98 C 28.02 100.31 28.03 104.65 28.01 108.98 C 32.67 108.99 37.33 108.96 42.00 109.00 C 42.03 111.33 42.02 113.66 41.99 116.00 C 39.66 116.02 37.34 116.02 35.02 116.01 C 35.02 120.33 35.03 124.66 35.00 128.98 C 39.33 128.99 43.66 128.96 48.00 129.00 C 48.03 131.33 48.03 133.67 48.00 136.00 C 50.34 135.98 52.67 135.98 55.01 135.98 C 55.02 138.31 55.02 140.65 55.01 142.98 C 59.67 142.98 64.32 142.97 68.98 142.99 C 68.99 138.33 68.95 133.67 69.00 129.00 C 73.34 128.96 77.68 128.98 82.01 128.98 C 82.02 131.32 82.02 133.66 82.02 136.00 C 83.67 135.99 85.33 135.99 86.98 136.00 C 86.98 131.67 86.97 127.35 86.99 123.02 C 82.99 123.02 78.98 123.02 74.98 123.01 C 74.98 120.67 74.98 118.32 74.99 115.98 C 78.99 115.98 82.99 115.98 86.99 115.99 C 86.97 106.99 86.98 98.00 86.98 89.01 C 85.31 89.01 83.65 89.02 81.98 89.02 C 81.98 86.68 81.98 84.35 81.99 82.01 C 79.65 82.02 77.32 82.02 74.98 82.01 C 74.98 79.67 74.98 77.32 74.98 74.98 C 77.32 74.98 79.65 74.98 81.99 74.99 C 81.98 72.99 81.98 70.99 81.98 68.99 C 84.33 68.98 86.67 68.98 89.02 68.98 C 89.02 73.31 89.03 77.65 89.01 81.98 C 95.68 81.98 102.35 81.98 109.02 81.98 C 109.02 83.65 109.01 85.31 109.01 86.98 C 113.66 86.98 118.32 86.97 122.98 86.99 C 122.98 85.32 122.98 83.65 122.98 81.98 C 124.98 81.98 126.99 81.98 128.99 81.99 C 128.98 79.66 128.98 77.33 128.98 75.01 C 126.98 75.02 124.98 75.02 122.98 75.02 C 122.98 73.02 122.98 71.01 123.00 69.01 C 125.00 68.98 126.99 68.98 128.99 68.98 C 128.98 66.65 128.98 64.31 128.98 61.98 C 131.33 61.98 133.67 61.98 136.02 61.98 C 136.02 64.32 136.02 66.65 136.01 68.99 C 138.34 68.98 140.67 68.98 143.00 69.00 C 142.98 66.66 142.98 64.32 142.98 61.98 C 145.31 61.98 147.65 61.98 149.98 61.99 C 149.98 59.66 149.98 57.32 149.98 54.98 C 154.33 54.98 158.67 54.98 163.02 54.98 C 163.02 59.65 163.02 64.32 163.02 68.99 C 165.35 68.98 167.67 68.98 170.00 69.00 C 169.96 57.66 169.97 46.33 170.00 35.00 C 167.66 35.02 165.32 35.02 162.98 35.01 C 162.98 32.68 162.98 30.35 162.98 28.01 C 160.66 28.02 158.33 28.02 156.00 27.99 C 155.98 25.66 155.97 23.32 155.98 20.98 C 158.31 20.98 160.64 20.98 162.98 20.99 C 162.98 19.00 162.98 17.01 162.99 15.02 C 158.66 15.01 154.33 15.04 150.00 15.00 C 149.97 12.66 149.98 10.32 149.98 7.99 C 151.98 7.98 153.99 7.98 155.99 7.98 C 155.98 5.65 155.98 3.33 155.98 1.00 C 149.32 1.03 142.67 1.03 136.02 1.01 C 136.02 3.34 136.02 5.68 136.02 8.02 C 133.68 8.02 131.34 8.02 129.01 8.02 C 129.02 14.68 129.04 21.34 129.00 28.00 C 127.00 28.02 125.00 28.02 123.00 28.00 C 122.96 23.67 122.98 19.34 122.99 15.02 C 120.66 15.02 118.33 15.02 116.00 15.00 C 116.03 19.33 116.04 23.66 116.00 27.99 C 111.33 28.04 106.67 28.04 102.01 27.99 C 101.98 25.67 101.97 23.34 101.99 21.02 C 97.66 21.01 93.33 21.04 89.00 20.99 C 88.95 14.33 88.99 7.67 88.98 1.01 C 86.66 1.01 84.34 0.99 82.02 0.98 C 82.02 3.33 82.02 5.67 82.02 8.01 C 79.68 8.02 77.35 8.02 75.02 8.01 C 75.02 12.34 75.02 16.68 75.02 21.02 C 73.01 21.02 70.99 21.02 68.98 21.02 C 68.98 16.68 68.98 12.34 68.98 8.01 C 66.65 8.02 64.31 8.02 61.98 8.02 C 61.98 5.68 61.98 3.34 61.98 0.99 C 59.66 0.95 57.34 0.94 55.02 0.96 M 177.01 1.02 C 177.02 3.35 177.02 5.68 177.02 8.01 C 174.68 8.02 172.34 8.02 170.01 8.02 C 170.02 10.34 170.02 12.66 170.01 14.99 C 172.34 14.98 174.68 14.98 177.01 14.98 C 177.03 19.33 177.02 23.67 177.02 28.02 C 174.68 28.02 172.35 28.02 170.02 28.01 C 170.02 30.34 170.02 32.67 170.00 35.00 C 172.34 34.98 174.68 34.98 177.02 34.98 C 177.02 39.32 177.02 43.66 177.02 47.99 C 179.01 47.98 181.00 47.98 182.99 47.98 C 182.98 45.98 182.98 43.98 182.98 41.98 C 185.32 41.98 187.67 41.98 190.02 41.99 C 190.01 46.32 190.04 50.66 190.00 55.00 C 192.32 54.98 194.65 54.98 196.99 54.99 C 196.98 46.00 196.97 37.01 196.99 28.02 C 194.65 28.02 192.32 28.02 189.98 28.02 C 189.97 25.68 189.98 23.34 190.00 21.00 C 192.33 20.97 194.65 20.98 196.98 20.99 C 196.98 16.67 196.97 12.35 196.99 8.02 C 194.65 8.02 192.32 8.02 189.98 8.01 C 189.98 5.68 189.98 3.35 189.99 1.01 C 185.66 1.03 181.33 1.02 177.01 1.02 M 204.02 1.01 C 204.02 16.67 204.03 32.33 204.01 47.99 C 219.69 47.97 235.36 47.99 251.04 47.98 C 250.94 32.33 251.00 16.67 250.99 1.02 C 235.34 1.01 219.68 1.04 204.02 1.01 M 96.01 8.02 C 96.02 10.34 96.02 12.66 96.01 14.99 C 102.67 14.99 109.34 14.96 116.00 15.00 C 115.98 12.67 115.98 10.34 115.98 8.01 C 109.32 8.03 102.67 8.02 96.01 8.02 M 183.01 55.02 C 183.03 59.68 183.02 64.34 183.02 68.99 C 185.34 68.98 187.66 68.98 189.98 68.99 C 189.98 64.32 189.96 59.66 190.00 55.00 C 187.66 55.02 185.33 55.02 183.01 55.02 M 204.02 55.01 C 204.02 57.34 204.02 59.67 204.00 62.00 C 205.99 61.98 207.99 61.98 209.98 61.99 C 209.98 59.66 209.98 57.34 209.99 55.02 C 208.00 55.02 206.01 55.02 204.02 55.01 M 217.02 55.01 C 217.02 59.67 217.02 64.33 217.02 68.99 C 219.34 68.98 221.66 68.98 223.99 68.98 C 223.98 66.65 223.98 64.32 223.98 61.98 C 228.33 61.98 232.67 61.98 237.02 61.98 C 237.02 64.33 237.02 66.67 237.02 69.01 C 235.01 69.02 233.01 69.02 231.01 69.02 C 231.01 71.01 231.02 73.00 231.02 74.99 C 233.02 74.98 235.01 74.98 237.01 74.98 C 237.02 79.66 237.02 84.34 237.02 89.02 C 232.68 89.02 228.34 89.02 224.01 89.02 C 224.02 91.34 224.02 93.67 223.99 95.99 C 219.33 96.04 214.67 96.04 210.00 95.99 C 209.98 93.65 209.97 91.32 209.99 88.98 C 212.32 88.98 214.65 88.98 216.99 88.99 C 216.98 86.66 216.98 84.33 216.99 82.00 C 212.65 82.04 208.32 82.02 203.98 82.02 C 203.97 79.67 203.97 77.33 204.00 74.99 C 201.67 75.02 199.34 75.02 197.01 75.02 C 197.02 77.35 197.02 79.69 197.02 82.02 C 194.68 82.02 192.34 82.02 190.00 82.00 C 190.04 86.66 190.02 91.33 190.01 95.99 C 192.34 95.98 194.67 95.97 197.00 96.01 C 197.02 98.00 197.02 100.00 197.00 101.99 C 194.67 102.02 192.34 102.02 190.01 102.02 C 190.02 104.35 190.02 106.68 190.02 109.02 C 187.68 109.02 185.35 109.02 183.01 109.01 C 183.02 111.34 183.02 113.67 183.02 115.99 C 185.35 115.98 187.68 115.98 190.02 115.98 C 190.01 120.32 190.04 124.66 189.99 128.99 C 183.34 129.05 176.68 129.02 170.02 129.01 C 170.02 131.34 170.02 133.67 170.02 136.01 C 169.27 136.01 167.76 136.02 167.01 136.02 C 167.03 140.68 167.02 145.34 167.02 149.99 C 170.34 149.97 173.67 149.96 176.99 150.00 C 177.02 152.01 177.02 154.01 177.02 156.02 C 173.68 156.02 170.35 156.02 167.01 156.02 C 167.02 159.35 167.02 162.69 167.02 166.02 C 165.68 166.02 164.35 166.01 163.02 166.00 C 163.02 169.66 163.02 173.32 163.01 176.98 C 165.34 176.98 167.68 176.98 170.01 176.98 C 170.03 183.66 170.02 190.34 170.02 197.02 C 167.68 197.02 165.34 197.02 163.01 197.02 C 163.01 199.34 163.00 201.66 163.00 203.98 C 167.66 203.98 172.32 203.97 176.98 204.00 C 176.98 199.32 176.98 194.65 176.98 189.98 C 178.98 189.98 180.99 189.98 182.99 190.00 C 183.04 196.67 183.04 203.33 182.99 209.99 C 178.67 210.04 174.34 210.02 170.02 210.01 C 170.02 212.35 170.02 214.68 170.01 217.02 C 167.67 217.02 165.32 217.02 162.98 217.02 C 162.98 214.68 162.98 212.35 162.99 210.02 C 160.67 210.02 158.34 210.02 156.02 210.01 C 156.02 217.01 156.02 224.01 156.02 231.02 C 154.00 231.02 151.99 231.02 149.98 231.02 C 149.98 228.68 149.98 226.34 149.98 224.01 C 147.66 224.02 145.34 224.02 143.02 224.01 C 143.02 230.68 143.03 237.35 143.02 244.02 C 140.68 244.02 138.34 244.02 136.00 244.00 C 136.02 246.32 136.02 248.65 136.01 250.99 C 140.67 250.97 145.33 250.98 149.99 250.98 C 149.97 246.31 149.98 241.65 149.98 236.98 C 154.33 236.98 158.67 236.97 163.02 236.98 C 163.02 239.33 163.02 241.67 163.02 244.02 C 160.68 244.02 158.34 244.02 156.01 244.02 C 156.02 246.34 156.02 248.67 156.02 250.99 C 163.01 250.94 170.00 251.03 176.99 250.97 C 176.98 248.64 176.98 246.31 176.98 243.98 C 178.99 243.98 181.00 243.98 183.02 243.98 C 183.02 246.32 183.02 248.65 183.01 250.99 C 187.67 250.97 192.33 250.98 196.99 250.98 C 196.97 246.31 196.98 241.65 196.99 236.98 C 199.32 236.98 201.66 236.98 203.99 236.98 C 203.97 232.65 203.98 228.31 203.99 223.98 C 208.33 223.98 212.67 223.97 217.02 223.99 C 217.02 226.33 217.02 228.67 217.01 231.02 C 214.68 231.02 212.34 231.02 210.01 231.02 C 210.01 233.00 210.01 234.99 210.01 236.98 C 212.34 236.98 214.68 236.98 217.02 236.98 C 217.02 239.32 217.02 241.66 217.00 244.01 C 219.33 243.98 221.66 243.97 223.99 243.98 C 223.98 241.64 223.98 239.31 223.98 236.98 C 226.32 236.98 228.65 236.98 230.99 236.98 C 230.98 234.99 230.98 232.99 231.00 231.01 C 233.00 230.98 234.99 230.97 236.99 230.98 C 236.98 228.66 236.98 226.34 236.99 224.02 C 234.99 224.02 233.00 224.01 231.01 224.00 C 230.97 221.67 230.97 219.34 230.98 217.01 C 228.65 217.02 226.31 217.02 223.98 217.02 C 223.98 210.34 223.98 203.66 223.98 196.99 C 226.32 196.98 228.65 196.98 230.99 196.98 C 230.98 194.66 230.98 192.33 230.99 190.01 C 226.32 190.02 221.65 190.02 216.98 190.02 C 216.98 187.68 216.98 185.35 216.99 183.02 C 214.65 183.02 212.32 183.02 209.98 183.02 C 209.98 181.01 209.98 179.01 210.00 177.00 C 212.33 176.97 214.65 176.98 216.98 176.99 C 216.97 174.66 216.98 172.34 217.01 170.01 C 219.33 169.98 221.66 169.97 223.99 169.98 C 223.97 167.66 223.98 165.33 224.01 163.01 C 226.33 162.98 228.66 162.98 230.99 162.98 C 230.98 160.65 230.98 158.31 230.98 155.98 C 237.65 155.98 244.31 155.97 250.98 155.99 C 250.97 149.33 250.98 142.67 250.98 136.01 C 248.65 136.02 246.33 136.02 244.00 136.00 C 243.97 133.66 243.97 131.32 243.99 128.98 C 246.32 128.98 248.66 128.98 251.00 128.98 C 250.94 124.65 251.05 120.33 250.99 116.01 C 248.65 116.02 246.32 116.02 243.99 116.02 C 243.98 113.67 243.98 111.33 243.98 108.98 C 246.31 108.98 248.65 108.98 250.98 108.99 C 250.98 102.33 250.97 95.67 250.99 89.01 C 248.65 89.02 246.31 89.02 243.98 89.02 C 243.98 86.67 243.98 84.33 243.98 81.98 C 246.35 81.98 248.71 81.98 251.08 81.98 C 250.90 72.99 251.01 64.00 250.98 55.01 C 239.66 55.03 228.34 55.03 217.02 55.01 M 197.01 62.02 C 197.02 64.34 197.02 66.67 197.02 68.99 C 199.34 68.98 201.67 68.98 204.00 69.00 C 203.97 66.67 203.97 64.33 204.00 62.00 C 201.67 62.02 199.34 62.02 197.01 62.02 M 143.00 69.00 C 143.04 75.00 143.01 80.99 143.02 86.99 C 145.34 86.98 147.67 86.98 150.00 86.98 C 149.97 80.99 149.98 75.00 149.99 69.01 C 147.66 69.02 145.33 69.02 143.00 69.00 M 170.00 69.00 C 170.02 71.00 170.02 73.01 170.02 75.01 C 165.35 75.02 160.68 75.03 156.02 75.01 C 156.02 79.00 156.02 83.00 156.02 86.99 C 159.68 86.97 163.35 86.98 167.02 86.98 C 167.02 94.31 167.04 101.64 167.00 108.98 C 167.76 108.98 169.26 108.98 170.02 108.99 C 170.02 113.65 170.03 118.32 170.01 122.98 C 172.34 122.98 174.66 122.98 176.99 122.99 C 176.97 115.99 176.98 109.00 176.98 102.01 C 174.65 102.02 172.31 102.02 169.98 102.02 C 169.98 97.67 169.98 93.33 169.98 88.99 C 172.32 88.98 174.65 88.98 176.99 88.98 C 176.98 86.65 176.98 84.31 176.98 81.98 C 181.32 81.98 185.66 81.96 190.00 82.00 C 189.98 79.67 189.98 77.34 189.98 75.01 C 185.65 75.03 181.32 75.02 176.98 75.02 C 176.98 73.02 176.98 71.01 176.98 69.01 C 174.66 69.02 172.33 69.02 170.00 69.00 M 204.00 69.00 C 204.02 71.00 204.01 73.00 204.00 74.99 C 205.99 74.98 207.99 74.98 209.98 74.99 C 209.98 73.00 209.98 71.00 209.98 69.01 C 207.99 69.02 205.99 69.02 204.00 69.00 M 217.00 75.02 C 217.00 77.35 217.00 79.67 216.99 82.00 C 219.32 81.98 221.66 81.98 223.99 81.98 C 223.98 79.66 223.98 77.33 223.98 75.01 C 221.65 75.02 219.33 75.02 217.00 75.02 M 118.42 88.62 C 103.27 91.78 91.02 104.98 88.62 120.22 C 86.24 133.89 92.01 148.54 102.98 157.00 C 110.73 163.36 121.09 166.10 131.01 165.07 C 142.37 164.15 152.99 157.58 159.24 148.10 C 165.61 138.83 167.60 126.65 164.36 115.86 C 162.05 107.60 156.84 100.20 149.92 95.15 C 141.07 88.40 129.21 86.33 118.42 88.62 M 15.01 116.02 C 15.02 118.35 15.02 120.68 15.02 123.02 C 10.35 123.02 5.69 123.03 1.02 123.01 C 1.01 127.33 1.02 131.66 1.02 135.99 C 3.34 135.98 5.66 135.98 7.99 135.98 C 7.98 133.65 7.98 131.32 7.98 128.99 C 12.33 128.97 16.67 128.98 21.02 128.98 C 21.02 131.33 21.02 133.67 21.02 136.02 C 19.02 136.02 17.02 136.02 15.02 136.01 C 15.02 138.34 15.02 140.67 15.00 143.00 C 19.33 142.96 23.65 142.97 27.98 142.99 C 27.98 136.33 27.97 129.67 27.99 123.02 C 25.65 123.02 23.32 123.02 20.98 123.02 C 20.98 120.68 20.98 118.35 20.99 116.02 C 19.00 116.02 17.00 116.02 15.01 116.02 M 42.01 136.02 C 42.02 138.35 42.02 140.67 42.00 143.00 C 43.99 142.98 45.99 142.98 47.99 142.98 C 47.98 140.65 47.98 138.33 48.00 136.00 C 46.00 136.02 44.00 136.02 42.01 136.02 M 0.96 143.02 C 0.95 145.34 0.97 147.67 1.02 149.99 C 3.35 149.98 5.69 149.98 8.02 149.98 C 8.02 151.99 8.02 153.99 7.99 156.00 C 5.67 156.02 3.34 156.02 1.01 156.02 C 1.02 158.34 1.02 160.66 1.01 162.98 C 3.34 162.97 5.66 162.97 7.99 163.01 C 8.04 167.67 8.04 172.33 7.99 176.99 C 5.66 177.02 3.34 177.02 1.01 177.02 C 1.02 179.01 1.02 181.00 1.02 182.99 C 3.34 182.97 5.67 182.97 7.99 183.00 C 8.02 185.34 8.03 187.67 8.00 190.00 C 12.34 189.96 16.68 189.98 21.02 189.98 C 21.02 192.31 21.02 194.65 21.01 196.98 C 23.34 196.98 25.66 196.98 27.99 196.99 C 27.98 192.32 27.97 187.65 27.99 182.98 C 30.32 182.97 32.66 182.98 34.99 183.01 C 35.02 185.33 35.02 187.66 35.02 189.99 C 37.34 189.97 39.67 189.98 41.99 190.01 C 42.02 192.33 42.02 194.66 42.01 196.98 C 44.00 196.98 46.00 196.98 47.99 196.98 C 47.98 194.65 47.97 192.33 48.00 190.01 C 50.34 189.97 52.67 189.97 55.00 190.00 C 54.96 185.66 54.98 181.32 54.98 176.98 C 57.32 176.98 59.66 176.98 61.99 176.98 C 61.98 174.65 61.98 172.31 61.98 169.98 C 64.31 169.98 66.65 169.98 68.98 169.99 C 68.98 167.67 68.98 165.34 68.99 163.02 C 66.65 163.02 64.32 163.02 61.98 163.02 C 61.98 158.68 61.97 154.35 61.99 150.02 C 59.67 150.02 57.34 150.02 55.02 150.01 C 55.02 152.01 55.02 154.01 55.02 156.01 C 52.68 156.02 50.34 156.02 48.00 156.00 C 47.98 154.00 47.98 152.01 47.99 150.02 C 45.99 150.02 44.00 150.02 42.00 149.99 C 41.97 147.66 41.97 145.33 42.00 143.00 C 39.67 143.02 37.34 143.02 35.01 143.02 C 35.02 145.34 35.02 147.67 34.99 149.99 C 32.67 150.02 30.34 150.02 28.01 150.01 C 28.02 154.34 28.04 158.67 27.99 163.00 C 25.66 163.03 23.33 163.02 21.01 162.99 C 20.96 158.67 20.98 154.34 20.99 150.02 C 18.99 150.02 16.98 150.02 14.98 150.02 C 14.98 147.68 14.98 145.34 15.00 143.00 C 10.32 143.04 5.64 143.01 0.96 143.02 M 75.01 143.02 C 75.02 145.35 75.02 147.69 75.02 150.02 C 73.02 150.02 71.02 150.01 69.02 150.01 C 69.02 152.00 69.02 153.99 69.01 155.98 C 75.00 155.98 81.00 155.98 86.99 155.98 C 86.98 153.99 86.98 152.00 86.98 150.01 C 85.31 150.01 83.65 150.02 81.98 150.02 C 81.98 147.68 81.98 145.35 81.99 143.01 C 79.66 143.02 77.33 143.02 75.01 143.02 M 244.01 163.02 C 244.02 165.35 244.02 167.68 244.02 170.02 C 239.68 170.02 235.34 170.02 231.01 170.02 C 231.02 172.35 231.02 174.67 231.00 177.00 C 233.00 176.98 235.01 176.98 237.02 176.98 C 237.01 178.98 237.02 180.98 237.01 182.99 C 241.67 182.97 246.33 182.98 250.99 182.99 C 250.98 176.33 250.97 169.67 250.99 163.02 C 248.66 163.02 246.34 163.02 244.01 163.02 M 89.02 166.01 C 89.01 167.33 89.01 168.65 89.00 169.98 C 91.34 169.98 93.68 169.98 96.01 169.98 C 96.02 172.32 96.02 174.66 95.99 177.00 C 91.32 177.04 86.65 177.01 81.99 177.02 C 81.98 174.68 81.98 172.34 81.98 170.01 C 79.66 170.02 77.33 170.02 75.01 170.02 C 75.02 172.35 75.02 174.68 75.02 177.02 C 73.02 177.02 71.01 177.02 69.01 177.02 C 69.02 179.01 69.01 181.00 69.00 182.99 C 66.67 183.02 64.34 183.02 62.01 183.02 C 62.02 185.35 62.02 187.68 62.01 190.02 C 59.68 190.02 57.34 190.02 55.00 190.00 C 55.04 196.66 55.02 203.32 55.01 209.98 C 59.67 209.98 64.33 209.98 68.99 209.98 C 68.98 207.98 68.98 205.98 68.98 203.98 C 70.99 203.98 73.00 203.98 75.01 203.98 C 75.02 208.32 75.04 212.65 75.00 216.99 C 68.33 217.05 61.67 217.01 55.01 217.02 C 55.02 219.34 55.02 221.66 55.01 223.98 C 57.35 223.98 59.68 223.98 62.02 223.98 C 62.02 226.32 62.02 228.66 62.00 230.99 C 59.67 231.02 57.34 231.02 55.02 231.01 C 55.02 235.33 55.03 239.66 55.01 243.98 C 57.34 243.98 59.68 243.98 62.01 243.98 C 62.02 246.33 62.02 248.68 62.02 251.04 C 64.35 251.06 66.67 251.04 68.99 250.99 C 68.98 248.65 68.98 246.31 68.98 243.98 C 70.98 243.98 72.99 243.98 75.00 244.00 C 75.02 246.33 75.02 248.66 75.01 250.98 C 88.67 250.99 102.32 250.97 115.98 251.04 C 115.98 248.70 115.98 246.35 115.99 244.01 C 113.65 244.02 111.32 244.02 108.98 244.02 C 108.97 241.68 108.98 239.34 109.01 237.00 C 113.66 236.96 118.32 236.97 122.98 237.00 C 122.98 235.00 122.98 233.00 123.00 231.01 C 127.33 230.95 131.66 230.99 135.99 230.98 C 135.98 228.66 135.98 226.33 135.98 224.01 C 133.65 224.02 131.31 224.02 128.98 224.02 C 128.98 221.67 128.98 219.33 128.98 216.98 C 133.65 216.98 138.32 216.97 142.99 216.99 C 142.98 214.65 142.98 212.31 142.98 209.98 C 145.31 209.98 147.65 209.98 149.98 209.99 C 149.98 207.99 149.98 206.00 150.01 204.00 C 152.00 203.98 153.99 203.98 155.99 203.98 C 155.98 201.66 155.98 199.34 155.99 197.02 C 154.00 197.02 152.00 197.02 150.01 196.99 C 149.97 194.65 149.97 192.32 149.98 189.98 C 151.98 189.98 153.98 189.98 155.98 189.99 C 155.98 187.66 155.98 185.34 155.99 183.01 C 151.67 183.02 147.34 183.03 143.02 183.01 C 143.01 187.67 143.04 192.33 143.00 196.99 C 140.66 197.02 138.33 197.02 136.01 197.02 C 136.03 201.35 136.02 205.68 136.02 210.02 C 131.68 210.01 127.34 210.04 123.00 209.99 C 122.96 203.33 122.97 196.66 123.00 190.00 C 115.99 190.04 108.99 190.01 101.98 190.02 C 101.97 187.68 101.98 185.34 102.00 183.01 C 104.33 182.97 106.65 182.97 108.98 182.99 C 108.98 177.33 108.97 171.67 108.99 166.01 C 102.33 166.02 95.68 166.03 89.02 166.01 M 143.02 166.01 C 143.02 169.67 143.02 173.33 143.02 176.99 C 145.34 176.98 147.66 176.98 149.98 176.99 C 149.98 173.33 149.97 169.67 149.99 166.02 C 147.66 166.02 145.34 166.02 143.02 166.01 M 116.01 170.02 C 116.02 172.34 116.02 174.66 116.01 176.98 C 118.35 176.98 120.68 176.98 123.02 176.98 C 123.02 181.32 123.04 185.66 123.00 190.00 C 127.33 189.96 131.65 189.97 135.98 189.99 C 135.98 187.66 135.98 185.33 135.98 183.01 C 133.65 183.02 131.32 183.02 128.99 183.02 C 128.98 178.69 128.97 174.35 128.99 170.02 C 124.67 170.02 120.34 170.02 116.01 170.02 M 224.01 177.01 C 224.02 179.00 224.02 181.00 224.02 182.99 C 226.34 182.98 228.66 182.98 230.99 182.98 C 230.98 180.98 230.98 178.99 231.00 177.00 C 228.67 177.02 226.34 177.02 224.01 177.01 M 0.90 190.02 C 0.91 192.35 0.96 194.67 1.03 197.00 C 3.35 196.98 5.67 196.98 7.99 196.98 C 7.98 194.65 7.98 192.33 8.00 190.00 C 5.63 190.02 3.27 190.02 0.90 190.02 M 237.01 190.02 C 237.02 194.67 237.05 199.33 236.99 203.99 C 234.99 204.01 233.00 204.02 231.01 204.02 C 231.01 206.01 231.02 208.00 231.02 209.99 C 233.01 209.98 235.00 209.98 236.99 210.00 C 237.02 212.33 237.02 214.66 237.02 216.99 C 239.35 216.98 241.68 216.98 244.02 216.98 C 244.01 223.66 244.04 230.33 244.00 237.00 C 246.33 236.98 248.66 236.98 250.99 236.99 C 250.98 221.33 250.97 205.67 250.99 190.01 C 246.33 190.02 241.67 190.02 237.01 190.02 M 1.02 204.01 C 1.03 219.67 1.00 235.33 1.02 250.99 C 16.68 250.91 32.33 251.08 47.99 250.99 C 47.98 235.33 47.97 219.67 47.99 204.02 C 32.33 204.02 16.68 204.04 1.02 204.01 M 129.01 237.01 C 129.02 239.34 129.02 241.66 129.02 243.99 C 131.34 243.98 133.67 243.97 136.00 244.00 C 135.98 241.67 135.98 239.34 135.99 237.02 C 133.66 237.02 131.34 237.02 129.01 237.01 M 237.01 237.01 C 237.03 241.67 237.02 246.33 237.02 251.00 C 241.67 250.97 246.33 250.97 250.98 250.99 C 250.98 248.67 250.98 246.34 250.99 244.02 C 248.65 244.02 246.32 244.02 243.98 244.01 C 243.97 241.67 243.98 239.34 244.00 237.00 C 241.67 237.02 239.34 237.02 237.01 237.01 M 204.00 244.02 C 204.00 246.34 204.01 248.66 204.01 250.99 C 208.33 250.98 212.65 250.97 216.98 250.99 C 216.97 248.66 216.98 246.33 217.00 244.01 C 212.67 244.03 208.33 244.01 204.00 244.02 Z" />
<path fill="#ffffff" opacity="1.00" d=" M 7.98 7.98 C 19.33 7.98 30.67 7.97 42.02 7.99 C 42.02 19.33 42.02 30.67 42.02 42.01 C 30.67 42.03 19.33 42.02 7.98 42.02 C 7.98 30.67 7.98 19.33 7.98 7.98 M 15.01 15.02 C 15.04 21.68 15.01 28.34 15.02 34.99 C 21.68 34.96 28.34 34.99 34.99 34.98 C 34.96 28.32 34.99 21.66 34.98 15.01 C 28.32 15.04 21.66 15.01 15.01 15.02 Z" />
<path fill="#ffffff" opacity="1.00" d=" M 209.98 7.98 C 221.33 7.98 232.67 7.98 244.02 7.98 C 244.02 19.33 244.02 30.67 244.02 42.02 C 232.67 42.02 221.33 42.02 209.98 42.02 C 209.98 30.67 209.98 19.33 209.98 7.98 M 217.01 15.02 C 217.03 21.67 217.03 28.33 217.01 34.98 C 223.67 34.98 230.33 34.98 236.99 34.98 C 236.97 28.32 236.98 21.67 236.98 15.01 C 230.32 15.03 223.67 15.02 217.01 15.02 Z" />
<path fill="#ffffff" opacity="1.00" d=" M 135.98 14.99 C 140.65 14.98 145.33 14.97 150.00 15.00 C 150.03 19.32 150.02 23.65 150.01 27.98 C 152.01 27.98 154.00 27.98 156.00 27.99 C 156.03 32.66 156.03 37.33 156.00 42.01 C 154.00 42.01 152.00 42.01 150.01 42.00 C 149.98 39.67 149.98 37.34 149.98 35.01 C 145.32 35.03 140.67 35.02 136.01 35.01 C 136.02 39.34 136.03 43.67 136.00 48.00 C 133.67 48.02 131.34 48.02 129.01 48.00 C 128.96 41.33 128.97 34.67 129.00 28.00 C 133.66 27.96 138.32 27.97 142.98 27.99 C 142.98 25.67 142.98 23.34 142.98 21.01 C 140.65 21.02 138.32 21.02 135.99 21.02 C 135.98 19.01 135.98 17.00 135.98 14.99 Z" />
<path fill="#ffffff" opacity="1.00" d=" M 182.98 14.98 C 185.33 14.98 187.67 14.98 190.02 14.98 C 190.02 16.99 190.01 19.00 190.00 21.00 C 187.66 21.02 185.32 21.02 182.98 21.02 C 182.98 19.01 182.98 16.99 182.98 14.98 Z" />
<path fill="#ffffff" opacity="1.00" d=" M 81.98 20.98 C 84.32 20.98 86.66 20.98 89.00 20.99 C 89.02 23.33 89.02 25.68 89.02 28.02 C 86.67 28.02 84.33 28.02 81.98 28.02 C 81.98 25.67 81.98 23.33 81.98 20.98 Z" />
<path fill="#ffffff" opacity="1.00" d=" M 95.98 27.98 C 97.99 27.98 100.00 27.98 102.01 27.99 C 102.02 30.33 102.02 32.68 102.02 35.02 C 100.00 35.02 97.99 35.02 95.98 35.02 C 95.98 32.67 95.98 30.33 95.98 27.98 Z" />
<path fill="#ffffff" opacity="1.00" d=" M 116.00 27.99 C 118.33 27.98 120.67 27.98 123.00 28.00 C 123.04 34.66 123.02 41.32 123.02 47.98 C 125.01 47.98 127.01 47.99 129.01 48.00 C 129.02 50.34 129.02 52.68 129.02 55.02 C 122.35 55.01 115.67 55.04 109.00 55.00 C 108.98 52.67 108.98 50.34 109.00 48.00 C 111.33 47.98 113.66 47.98 116.00 47.98 C 115.99 45.99 115.99 44.01 116.00 42.03 C 113.67 42.02 111.34 42.01 109.01 42.00 C 108.98 39.66 108.98 37.32 108.98 34.98 C 111.31 34.98 113.64 34.98 115.98 34.99 C 115.98 32.66 115.98 30.33 116.00 27.99 Z" />
<path fill="#ffffff" opacity="1.00" d=" M 88.99 41.98 C 91.33 41.98 93.67 41.98 96.02 41.98 C 96.02 46.32 96.02 50.65 96.01 54.99 C 100.34 54.98 104.67 54.97 109.00 55.00 C 109.02 57.34 109.02 59.68 109.02 62.02 C 106.68 62.02 104.35 62.02 102.02 62.01 C 102.02 64.34 102.01 66.66 102.01 68.98 C 106.67 68.98 111.33 68.96 116.00 69.01 C 116.01 71.01 116.02 73.01 116.02 75.02 C 109.34 75.02 102.66 75.02 95.98 75.02 C 95.98 70.68 95.97 66.35 95.99 62.02 C 93.65 62.02 91.32 62.02 88.98 62.02 C 88.98 55.34 88.97 48.66 88.99 41.98 Z" />
<path fill="#ffffff" opacity="1.00" d=" M 101.99 41.98 C 104.32 41.98 106.66 41.98 109.01 42.00 C 109.01 44.00 109.01 46.00 109.00 48.00 C 106.66 48.02 104.32 48.02 101.98 48.02 C 101.98 46.00 101.98 43.99 101.99 41.98 Z" />
<path fill="#ffffff" opacity="1.00" d=" M 142.98 41.98 C 145.32 41.98 147.66 41.98 150.01 42.00 C 150.01 44.01 150.01 46.01 150.02 48.02 C 147.68 48.02 145.34 48.02 143.00 48.00 C 142.99 45.99 142.98 43.98 142.98 41.98 Z" />
<path fill="#ffffff" opacity="1.00" d=" M 156.00 42.01 C 158.34 41.98 160.68 41.98 163.02 41.98 C 163.02 43.99 163.02 46.01 163.02 48.02 C 160.67 48.02 158.32 48.02 155.97 48.02 C 155.98 46.01 155.99 44.01 156.00 42.01 Z" />
<path fill="#ffffff" opacity="1.00" d=" M 69.00 47.99 C 71.00 47.99 73.00 47.99 75.00 47.99 C 75.02 50.32 75.02 52.65 75.02 54.99 C 77.35 54.98 79.69 54.98 82.02 54.98 C 82.02 57.33 82.02 59.67 82.02 62.02 C 79.69 62.01 77.35 62.02 75.02 62.01 C 75.02 64.35 75.02 66.68 75.02 69.02 C 73.02 69.02 71.02 69.02 69.02 69.01 C 69.02 71.01 69.02 73.02 69.02 75.02 C 66.69 75.01 64.35 75.02 62.02 75.01 C 62.02 77.34 62.02 79.67 62.00 82.00 C 59.67 82.02 57.34 82.02 55.01 82.02 C 55.02 86.67 55.02 91.33 55.02 95.99 C 57.35 95.98 59.69 95.98 62.03 95.98 C 62.02 97.99 62.01 99.99 62.00 102.00 C 57.33 102.03 52.67 102.04 48.00 101.99 C 47.99 100.00 47.98 98.01 47.98 96.02 C 45.98 96.02 43.99 96.01 42.00 96.00 C 41.98 93.67 41.98 91.33 42.00 89.00 C 43.99 88.99 45.99 88.98 47.98 88.98 C 47.98 86.66 47.98 84.34 47.98 82.01 C 46.00 82.02 44.01 82.01 42.02 82.01 C 42.02 84.34 42.02 86.67 42.00 89.00 C 33.00 89.03 24.00 89.03 14.99 89.00 C 14.98 86.67 14.98 84.34 15.00 82.01 C 21.66 81.95 28.33 81.99 34.99 81.99 C 34.97 77.65 34.98 73.32 34.98 68.98 C 37.32 68.98 39.66 68.98 41.99 69.00 C 42.01 71.00 42.02 73.00 42.03 74.99 C 46.35 74.97 50.67 74.98 54.99 74.98 C 54.98 72.98 54.99 70.99 55.00 69.00 C 57.33 68.98 59.66 68.98 61.99 68.98 C 61.98 66.65 61.98 64.32 62.00 62.00 C 64.33 61.98 66.65 61.98 68.98 61.99 C 68.98 57.32 68.97 52.66 69.00 47.99 Z" />
<path fill="#ffffff" opacity="1.00" d=" M 136.00 48.00 C 138.33 47.98 140.66 47.98 143.00 48.00 C 143.01 50.34 143.02 52.68 143.02 55.02 C 140.67 55.02 138.32 55.02 135.98 55.02 C 135.98 52.68 135.98 50.34 136.00 48.00 Z" />
<path fill="#ffffff" opacity="1.00" d=" M 54.99 55.00 C 57.33 54.98 59.68 54.98 62.02 54.98 C 62.02 57.32 62.02 59.66 62.00 62.00 C 59.66 62.02 57.33 62.02 55.00 62.01 C 54.98 59.67 54.98 57.33 54.99 55.00 Z" />
<path fill="#ffffff" opacity="1.00" d=" M 41.99 62.00 C 46.33 61.97 50.66 61.96 55.00 62.01 C 55.02 64.34 55.02 66.67 55.00 69.00 C 50.66 69.03 46.33 69.03 41.99 69.00 C 41.98 66.66 41.98 64.33 41.99 62.00 Z" />
<path fill="#ffffff" opacity="1.00" d=" M 115.98 61.98 C 118.33 61.98 120.67 61.98 123.02 61.98 C 123.02 64.32 123.01 66.66 123.00 69.01 C 120.67 69.02 118.33 69.02 116.00 69.01 C 115.98 66.66 115.98 64.32 115.98 61.98 Z" />
<path fill="#ffffff" opacity="1.00" d=" M 14.97 68.98 C 16.99 68.98 19.00 68.98 21.01 68.99 C 21.01 71.00 21.02 73.01 21.02 75.03 C 19.01 75.02 17.01 75.01 15.00 74.99 C 14.99 72.99 14.98 70.99 14.97 68.98 Z" />
<path fill="#ffffff" opacity="1.00" d=" M 7.99 74.99 C 10.33 74.98 12.67 74.98 15.00 74.99 C 15.02 77.33 15.02 79.67 15.00 82.01 C 12.67 82.02 10.33 82.02 7.99 82.01 C 7.98 79.67 7.98 77.33 7.99 74.99 Z" />
<path fill="#ffffff" opacity="1.00" d=" M 62.00 82.00 C 64.34 81.98 66.68 81.98 69.02 81.98 C 69.02 84.32 69.02 86.66 69.00 89.00 C 66.66 89.02 64.32 89.02 61.98 89.02 C 61.98 86.68 61.98 84.34 62.00 82.00 Z" />
<path fill="#ffffff" opacity="1.00" d=" M 69.00 89.00 C 71.00 88.99 73.01 88.98 75.02 88.98 C 75.02 91.32 75.02 93.67 75.02 96.02 C 73.01 96.02 70.99 96.02 68.98 96.02 C 68.98 93.68 68.98 91.34 69.00 89.00 Z" />
<path fill="#ffffff" opacity="1.00" d=" M 196.98 88.98 C 199.32 88.98 201.67 88.98 204.02 88.98 C 204.02 91.32 204.01 93.66 203.99 96.00 C 201.66 96.02 199.33 96.02 197.00 96.01 C 196.98 93.66 196.98 91.32 196.98 88.98 Z" />
<path fill="#ffffff" opacity="1.00" d=" M 34.98 95.98 C 37.32 95.98 39.66 95.98 42.00 96.00 C 42.01 98.00 42.01 100.00 42.00 102.00 C 39.66 102.02 37.32 102.02 34.98 102.02 C 34.98 100.01 34.98 97.99 34.98 95.98 Z" />
<path fill="#ffffff" opacity="1.00" d=" M 203.99 96.00 C 206.00 95.99 208.00 95.98 210.00 95.99 C 210.01 98.00 210.01 100.01 210.02 102.02 C 208.01 102.02 206.00 102.01 203.99 102.00 C 203.98 100.00 203.98 98.00 203.99 96.00 Z" />
<path fill="#ffffff" opacity="1.00" d=" M 223.99 95.99 C 226.33 95.98 228.67 95.98 231.02 95.98 C 231.02 97.98 231.01 99.98 231.02 101.99 C 233.01 101.98 235.01 101.98 237.01 101.98 C 237.03 113.32 237.02 124.65 237.02 135.99 C 239.34 135.98 241.67 135.98 244.00 136.00 C 244.03 140.67 244.02 145.34 244.02 150.01 C 239.67 150.02 235.33 150.02 230.98 150.01 C 230.98 147.68 230.98 145.35 230.98 143.01 C 228.66 143.02 226.33 143.02 224.01 143.02 C 224.02 145.35 224.02 147.68 224.02 150.01 C 221.68 150.01 219.34 150.02 217.00 150.02 C 217.01 152.01 217.01 153.99 217.00 155.98 C 219.34 155.98 221.68 155.98 224.02 155.98 C 224.02 158.32 224.02 160.66 224.01 163.01 C 221.67 163.02 219.34 163.02 217.01 163.02 C 217.02 165.35 217.02 167.68 217.01 170.01 C 214.67 170.02 212.34 170.02 210.01 170.00 C 209.98 167.67 209.97 165.34 209.98 163.01 C 207.98 163.01 206.00 163.02 204.01 163.02 C 204.02 165.34 204.02 167.66 204.02 169.98 C 206.01 169.98 208.01 169.98 210.01 170.00 C 210.02 172.33 210.02 174.67 210.00 177.00 C 208.01 177.01 206.01 177.01 204.01 177.02 C 204.02 181.35 204.02 185.68 204.02 190.02 C 201.67 190.01 199.33 190.02 196.99 190.02 C 196.98 181.02 196.97 172.02 196.99 163.01 C 192.32 163.02 187.65 163.02 182.98 163.02 C 182.98 158.69 182.97 154.36 182.99 150.03 C 180.99 150.02 178.99 150.01 176.99 150.00 C 176.98 147.66 176.98 145.32 176.98 142.98 C 183.66 142.98 190.34 142.97 197.02 142.99 C 197.02 145.32 197.01 147.66 197.00 150.00 C 194.67 150.01 192.34 150.02 190.02 150.02 C 190.02 152.00 190.02 153.99 190.01 155.99 C 192.34 155.98 194.66 155.98 196.99 155.98 C 196.98 153.98 196.98 151.99 197.00 150.00 C 199.33 149.98 201.67 149.98 204.02 149.98 C 204.02 151.98 204.02 153.99 204.02 155.99 C 206.01 155.99 207.99 155.99 209.98 155.99 C 209.98 151.65 209.98 147.32 209.98 142.98 C 212.31 142.98 214.64 142.98 216.98 142.99 C 216.97 140.66 216.98 138.33 217.00 136.00 C 219.33 135.98 221.66 135.98 223.98 135.98 C 223.98 133.65 223.98 131.32 223.98 128.98 C 226.32 128.98 228.65 128.98 230.99 128.98 C 230.97 122.32 230.98 115.67 230.99 109.02 C 228.66 109.02 226.33 109.02 224.01 109.02 C 224.03 113.68 224.02 118.35 224.02 123.02 C 221.67 123.02 219.33 123.02 216.99 123.02 C 216.98 120.68 216.98 118.35 216.98 116.01 C 214.65 116.02 212.31 116.01 209.98 116.02 C 209.98 113.67 209.98 111.33 209.98 108.98 C 212.31 108.98 214.65 108.98 216.98 108.99 C 216.98 106.65 216.98 104.32 216.98 101.99 C 219.31 101.98 221.65 101.98 223.99 101.98 C 223.98 99.98 223.98 97.99 223.99 95.99 Z" />
<path fill="#ffffff" opacity="1.00" d=" M 42.00 102.00 C 44.00 101.99 46.00 101.99 48.00 101.99 C 48.02 104.34 48.02 106.68 48.02 109.02 C 46.01 109.02 44.00 109.01 42.00 109.00 C 41.98 106.67 41.98 104.33 42.00 102.00 Z" />
<path fill="#ffffff" opacity="1.00" d=" M 62.00 102.00 C 64.34 101.98 66.67 101.98 69.01 101.98 C 69.02 106.66 69.02 111.34 69.01 116.02 C 66.68 116.02 64.34 116.02 62.01 116.02 C 62.02 118.34 62.02 120.66 62.02 122.99 C 64.35 122.98 66.69 122.98 69.02 122.98 C 69.02 124.99 69.01 126.99 69.00 129.00 C 62.00 129.03 55.00 129.03 48.00 129.00 C 47.99 127.01 47.98 125.01 47.99 123.02 C 45.98 123.02 43.98 123.02 41.98 123.02 C 41.98 120.68 41.98 118.33 41.99 116.00 C 46.32 115.97 50.65 115.98 54.98 115.99 C 54.98 113.65 54.98 111.32 54.98 108.98 C 57.32 108.98 59.65 108.98 61.98 108.98 C 61.98 106.65 61.98 104.32 62.00 102.00 Z" />
<path fill="#ffffff" opacity="1.00" d=" M 74.98 101.98 C 77.33 101.98 79.67 101.98 82.02 101.98 C 82.02 104.33 82.02 106.67 82.01 109.02 C 79.67 109.02 77.33 109.02 74.99 109.02 C 74.98 106.67 74.98 104.33 74.98 101.98 Z" />
<path fill="#ffffff" opacity="1.00" d=" M 197.00 101.99 C 199.33 101.98 201.66 101.98 203.99 102.00 C 204.01 104.34 204.02 106.68 204.02 109.02 C 201.67 109.02 199.32 109.02 196.98 109.02 C 196.98 106.67 196.98 104.33 197.00 101.99 Z" />
<path fill="#ffffff" opacity="1.00" d=" M 108.30 140.20 C 114.71 129.11 120.67 117.71 127.58 106.93 C 133.72 118.08 140.25 129.01 146.39 140.16 C 133.69 140.25 121.00 140.17 108.30 140.20 Z" />
<path fill="#ffffff" opacity="1.00" d=" M 196.98 115.98 C 199.33 115.98 201.67 115.98 204.02 115.98 C 204.02 120.33 204.02 124.68 204.01 129.02 C 201.67 129.02 199.34 129.02 197.00 129.00 C 196.96 124.66 196.98 120.32 196.98 115.98 Z" />
<path fill="#ffffff" opacity="1.00" d=" M 189.99 128.99 C 192.33 128.98 194.66 128.98 197.00 129.00 C 197.01 131.34 197.02 133.68 197.02 136.02 C 194.67 136.02 192.32 136.02 189.98 136.02 C 189.98 133.68 189.98 131.33 189.99 128.99 Z" />
<path fill="#ffffff" opacity="1.00" d=" M 209.98 128.98 C 212.33 128.98 214.67 128.98 217.02 128.98 C 217.02 131.32 217.02 133.66 217.00 136.00 C 214.66 136.02 212.32 136.02 209.98 136.02 C 209.98 133.67 209.98 131.32 209.98 128.98 Z" />
<path fill="#ffffff" opacity="1.00" d=" M 34.99 149.99 C 37.33 149.98 39.67 149.98 42.00 149.99 C 42.01 151.99 42.01 153.98 42.01 155.98 C 44.01 155.98 46.01 155.98 48.00 156.00 C 48.02 158.33 48.02 160.66 48.00 163.00 C 46.00 163.01 44.01 163.02 42.01 163.03 C 42.02 165.35 42.02 167.67 42.00 170.00 C 37.33 170.04 32.66 170.03 28.00 170.00 C 27.98 167.66 27.98 165.33 27.99 163.00 C 30.32 162.98 32.66 162.98 34.99 162.98 C 34.98 158.65 34.97 154.32 34.99 149.99 Z" />
<path fill="#ffffff" opacity="1.00" d=" M 7.99 156.00 C 10.33 155.98 12.68 155.98 15.02 155.98 C 15.02 158.32 15.02 160.66 15.00 163.00 C 12.67 163.02 10.33 163.02 7.99 163.01 C 7.98 160.67 7.98 158.33 7.99 156.00 Z" />
<path fill="#ffffff" opacity="1.00" d=" M 15.00 163.00 C 17.00 162.99 19.01 162.98 21.01 162.99 C 21.02 165.32 21.02 167.65 21.02 169.98 C 23.34 169.98 25.67 169.98 28.00 170.00 C 28.02 172.34 28.02 174.68 28.02 177.02 C 23.68 177.02 19.34 177.04 15.00 176.99 C 14.97 172.33 14.96 167.67 15.00 163.00 Z" />
<path fill="#ffffff" opacity="1.00" d=" M 48.00 163.00 C 50.34 162.98 52.68 162.98 55.02 162.98 C 55.02 165.32 55.02 167.67 55.02 170.02 C 52.68 170.02 50.34 170.01 48.00 170.00 C 47.98 167.66 47.98 165.33 48.00 163.00 Z" />
<path fill="#ffffff" opacity="1.00" d=" M 169.98 162.99 C 172.33 162.98 174.67 162.98 177.02 162.98 C 177.02 165.33 177.02 167.67 177.02 170.02 C 174.67 170.02 172.33 170.02 169.98 170.02 C 169.98 167.67 169.98 165.33 169.98 162.99 Z" />
<path fill="#ffffff" opacity="1.00" d=" M 42.00 170.00 C 44.00 169.99 46.00 169.99 48.00 170.00 C 48.02 172.34 48.02 174.68 48.02 177.02 C 46.02 177.01 44.01 177.01 42.00 177.00 C 41.98 174.66 41.98 172.33 42.00 170.00 Z" />
<path fill="#ffffff" opacity="1.00" d=" M 7.99 176.99 C 10.33 176.98 12.67 176.98 15.00 176.99 C 15.01 179.00 15.02 181.01 15.02 183.02 C 12.68 183.02 10.34 183.02 7.99 183.00 C 7.99 181.00 7.99 178.99 7.99 176.99 Z" />
<path fill="#ffffff" opacity="1.00" d=" M 34.98 176.98 C 37.32 176.98 39.66 176.98 42.00 177.00 C 42.01 179.00 42.01 181.00 42.00 183.00 C 39.67 183.02 37.33 183.02 34.99 183.01 C 34.98 181.00 34.98 178.99 34.98 176.98 Z" />
<path fill="#ffffff" opacity="1.00" d=" M 95.99 177.00 C 98.00 176.99 100.01 176.98 102.02 176.98 C 102.02 178.98 102.01 180.99 102.00 183.01 C 100.00 183.01 98.00 183.01 95.99 183.01 C 95.99 181.00 95.99 179.00 95.99 177.00 Z" />
<path fill="#ffffff" opacity="1.00" d=" M 176.98 176.98 C 178.99 176.98 181.01 176.98 183.02 176.98 C 183.02 178.98 183.01 180.99 183.00 183.00 C 180.99 183.01 178.98 183.02 176.98 183.03 C 176.98 181.01 176.98 178.99 176.98 176.98 Z" />
<path fill="#ffffff" opacity="1.00" d=" M 42.00 183.00 C 44.01 182.99 46.01 182.98 48.02 182.97 C 48.02 185.32 48.02 187.66 48.00 190.01 C 46.00 190.01 43.99 190.01 41.99 190.01 C 41.98 187.67 41.98 185.34 42.00 183.00 Z" />
<path fill="#ffffff" opacity="1.00" d=" M 69.00 182.99 C 77.99 182.98 86.99 182.95 95.99 183.01 C 96.02 185.34 96.02 187.68 96.02 190.01 C 93.69 190.01 91.35 190.02 89.02 190.02 C 89.02 192.34 89.02 194.67 89.00 197.00 C 82.33 197.04 75.66 197.01 68.99 197.02 C 68.98 192.34 68.97 187.67 69.00 182.99 Z" />
<path fill="#ffffff" opacity="1.00" d=" M 183.00 183.00 C 185.34 182.98 187.68 182.98 190.02 182.98 C 190.02 185.33 190.02 187.67 190.02 190.02 C 187.67 190.02 185.33 190.01 182.99 190.00 C 182.98 187.67 182.98 185.33 183.00 183.00 Z" />
<path fill="#ffffff" opacity="1.00" d=" M 89.00 197.00 C 98.01 196.95 107.01 196.99 116.02 196.98 C 116.02 201.32 116.04 205.66 116.00 210.00 C 113.67 210.01 111.34 210.02 109.01 210.02 C 109.03 214.68 109.02 219.35 109.02 224.02 C 106.68 224.01 104.35 224.02 102.02 224.02 C 102.02 226.34 102.02 228.67 102.00 231.00 C 91.00 231.03 80.00 231.04 69.00 230.99 C 68.98 228.65 68.98 226.31 68.98 223.98 C 70.98 223.98 72.98 223.98 74.98 223.99 C 74.98 221.66 74.98 219.32 75.00 216.99 C 77.34 216.98 79.68 216.98 82.02 216.98 C 82.02 219.31 82.02 221.65 82.01 223.99 C 86.67 223.98 91.33 223.98 95.99 223.98 C 95.98 221.64 95.98 219.31 95.98 216.98 C 97.98 216.98 99.98 216.98 101.98 216.99 C 101.98 214.66 101.98 212.34 101.99 210.02 C 99.99 210.02 97.98 210.01 95.98 210.01 C 95.98 208.01 95.98 206.01 95.98 204.01 C 93.65 204.02 91.32 204.01 89.00 204.00 C 88.98 201.67 88.98 199.33 89.00 197.00 Z" />
<path fill="#ffffff" opacity="1.00" d=" M 143.00 196.99 C 145.33 196.98 147.67 196.98 150.01 196.99 C 150.02 199.33 150.02 201.66 150.01 204.00 C 147.66 204.01 145.32 204.02 142.98 204.02 C 142.98 201.68 142.98 199.33 143.00 196.99 Z" />
<path fill="#ffffff" opacity="1.00" d=" M 196.98 196.98 C 203.66 196.98 210.34 196.98 217.02 196.98 C 217.02 203.66 217.02 210.34 217.02 217.01 C 210.34 217.02 203.66 217.02 196.98 217.02 C 196.98 210.34 196.97 203.66 196.98 196.98 M 204.02 204.01 C 204.02 206.00 204.01 207.99 204.01 209.98 C 206.00 209.98 208.00 209.98 209.99 209.98 C 209.99 207.99 209.99 206.01 210.00 204.02 C 208.01 204.02 206.01 204.01 204.02 204.01 Z" />
<path fill="#ffffff" opacity="1.00" d=" M 81.98 203.98 C 84.32 203.98 86.66 203.98 89.00 204.00 C 89.01 206.01 89.02 208.01 89.02 210.02 C 86.67 210.02 84.33 210.02 81.98 210.02 C 81.98 208.00 81.98 205.99 81.98 203.98 Z" />
<path fill="#ffffff" opacity="1.00" d=" M 236.99 203.99 C 239.33 203.98 241.68 203.98 244.02 203.98 C 244.01 206.00 244.01 208.01 244.01 210.02 C 241.67 210.02 239.33 210.01 236.99 210.00 C 236.98 208.00 236.98 205.99 236.99 203.99 Z" />
<path fill="#ffffff" opacity="1.00" d=" M 7.99 209.98 C 19.33 209.98 30.67 209.98 42.02 209.98 C 42.02 221.33 42.02 232.67 42.02 244.02 C 30.67 244.02 19.33 244.02 7.98 244.02 C 7.98 232.67 7.97 221.33 7.99 209.98 M 15.01 217.02 C 15.03 223.68 15.02 230.33 15.02 236.99 C 21.67 236.97 28.33 236.98 34.99 236.99 C 34.97 230.33 34.98 223.67 34.99 217.01 C 28.33 217.03 21.67 217.01 15.01 217.02 Z" />
<path fill="#ffffff" opacity="1.00" d=" M 116.00 210.00 C 118.33 209.98 120.67 209.98 123.00 209.99 C 123.03 217.00 123.03 224.00 123.00 231.01 C 120.66 231.02 118.32 231.02 115.98 231.02 C 115.98 224.01 115.96 217.00 116.00 210.00 Z" />
<path fill="#ffffff" opacity="1.00" d=" M 182.99 209.99 C 185.33 209.98 187.68 209.98 190.02 209.98 C 190.02 218.99 190.02 228.00 190.02 237.02 C 183.34 237.02 176.66 237.02 169.98 237.01 C 169.98 232.67 169.98 228.32 169.98 223.98 C 172.32 223.98 174.66 223.98 177.00 224.00 C 177.01 226.33 177.02 228.66 177.02 230.99 C 179.01 230.98 181.00 230.98 182.99 230.98 C 182.98 228.65 182.98 226.33 182.98 224.01 C 180.98 224.01 178.99 224.01 177.00 224.00 C 176.98 221.66 176.98 219.32 176.98 216.98 C 178.98 216.98 180.98 216.98 182.99 216.98 C 182.98 214.65 182.98 212.32 182.99 209.99 Z" />
<path fill="#ffffff" opacity="1.00" d=" M 223.98 223.98 C 226.32 223.98 228.66 223.98 231.01 224.00 C 231.02 226.33 231.01 228.67 231.00 231.01 C 228.66 231.01 226.32 231.02 223.98 231.02 C 223.98 228.67 223.98 226.32 223.98 223.98 Z" />
<path fill="#ffffff" opacity="1.00" d=" M 62.00 230.99 C 64.33 230.98 66.67 230.98 69.00 230.99 C 69.01 233.00 69.02 235.01 69.02 237.02 C 66.67 237.01 64.32 237.01 61.98 237.02 C 61.98 235.01 61.99 233.00 62.00 230.99 Z" />
<path fill="#ffffff" opacity="1.00" d=" M 102.00 231.00 C 104.34 230.98 106.68 230.98 109.02 230.98 C 109.01 232.98 109.01 234.99 109.01 237.00 C 106.66 237.01 104.32 237.02 101.98 237.02 C 101.98 235.01 101.99 233.01 102.00 231.00 Z" />
<path fill="#ffffff" opacity="1.00" d=" M 74.98 236.98 C 77.32 236.98 79.67 236.98 82.02 236.98 C 82.02 239.32 82.02 241.67 82.02 244.02 C 79.68 244.02 77.34 244.01 75.00 244.00 C 74.98 241.66 74.98 239.32 74.98 236.98 Z" />
</g>
<g id="#1a171fff">
<path fill="#1a171f" opacity="1.00" d=" M 0.92 1.02 C 16.61 1.01 32.30 1.03 47.99 1.02 C 47.97 16.67 47.97 32.33 47.99 47.98 C 32.33 47.98 16.67 47.97 1.02 47.99 C 0.97 32.33 1.14 16.68 0.92 1.02 M 7.98 7.98 C 7.98 19.33 7.98 30.67 7.98 42.02 C 19.33 42.02 30.67 42.03 42.02 42.01 C 42.02 30.67 42.02 19.33 42.02 7.99 C 30.67 7.97 19.33 7.98 7.98 7.98 Z" />
<path fill="#1a171f" opacity="1.00" d=" M 55.02 0.96 C 57.34 0.94 59.66 0.95 61.98 0.99 C 61.98 3.34 61.98 5.68 61.98 8.02 C 64.31 8.02 66.65 8.02 68.98 8.01 C 68.98 12.34 68.98 16.68 68.98 21.02 C 70.99 21.02 73.01 21.02 75.02 21.02 C 75.02 16.68 75.02 12.34 75.02 8.01 C 77.35 8.02 79.68 8.02 82.02 8.01 C 82.02 5.67 82.02 3.33 82.02 0.98 C 84.34 0.99 86.66 1.01 88.98 1.01 C 88.99 7.67 88.95 14.33 89.00 20.99 C 86.66 20.98 84.32 20.98 81.98 20.98 C 81.98 23.33 81.98 25.67 81.98 28.02 C 84.33 28.02 86.67 28.02 89.02 28.02 C 89.02 25.68 89.02 23.33 89.00 20.99 C 93.33 21.04 97.66 21.01 101.99 21.02 C 101.97 23.34 101.98 25.67 102.01 27.99 C 100.00 27.98 97.99 27.98 95.98 27.98 C 95.98 30.33 95.98 32.67 95.98 35.02 C 97.99 35.02 100.00 35.02 102.02 35.02 C 102.02 32.68 102.02 30.33 102.01 27.99 C 106.67 28.04 111.33 28.04 116.00 27.99 C 115.98 30.33 115.98 32.66 115.98 34.99 C 113.64 34.98 111.31 34.98 108.98 34.98 C 108.98 37.32 108.98 39.66 109.01 42.00 C 106.66 41.98 104.32 41.98 101.99 41.98 C 101.98 43.99 101.98 46.00 101.98 48.02 C 104.32 48.02 106.66 48.02 109.00 48.00 C 108.98 50.34 108.98 52.67 109.00 55.00 C 104.67 54.97 100.34 54.98 96.01 54.99 C 96.02 50.65 96.02 46.32 96.02 41.98 C 93.67 41.98 91.33 41.98 88.99 41.98 C 88.97 48.66 88.98 55.34 88.98 62.02 C 91.32 62.02 93.65 62.02 95.99 62.02 C 95.97 66.35 95.98 70.68 95.98 75.02 C 102.66 75.02 109.34 75.02 116.02 75.02 C 116.02 73.01 116.01 71.01 116.00 69.01 C 118.33 69.02 120.67 69.02 123.00 69.01 C 122.98 71.01 122.98 73.02 122.98 75.02 C 124.98 75.02 126.98 75.02 128.98 75.01 C 128.98 77.33 128.98 79.66 128.99 81.99 C 126.99 81.98 124.98 81.98 122.98 81.98 C 122.98 83.65 122.98 85.32 122.98 86.99 C 118.32 86.97 113.66 86.98 109.01 86.98 C 109.01 85.31 109.02 83.65 109.02 81.98 C 102.35 81.98 95.68 81.98 89.01 81.98 C 89.03 77.65 89.02 73.31 89.02 68.98 C 86.67 68.98 84.33 68.98 81.98 68.99 C 81.98 70.99 81.98 72.99 81.99 74.99 C 79.65 74.98 77.32 74.98 74.98 74.98 C 74.98 77.32 74.98 79.67 74.98 82.01 C 77.32 82.02 79.65 82.02 81.99 82.01 C 81.98 84.35 81.98 86.68 81.98 89.02 C 83.65 89.02 85.31 89.01 86.98 89.01 C 86.98 98.00 86.97 106.99 86.99 115.99 C 82.99 115.98 78.99 115.98 74.99 115.98 C 74.98 118.32 74.98 120.67 74.98 123.01 C 78.98 123.02 82.99 123.02 86.99 123.02 C 86.97 127.35 86.98 131.67 86.98 136.00 C 85.33 135.99 83.67 135.99 82.02 136.00 C 82.02 133.66 82.02 131.32 82.01 128.98 C 77.68 128.98 73.34 128.96 69.00 129.00 C 69.01 126.99 69.02 124.99 69.02 122.98 C 66.69 122.98 64.35 122.98 62.02 122.99 C 62.02 120.66 62.02 118.34 62.01 116.02 C 64.34 116.02 66.68 116.02 69.01 116.02 C 69.02 111.34 69.02 106.66 69.01 101.98 C 66.67 101.98 64.34 101.98 62.00 102.00 C 62.01 99.99 62.02 97.99 62.03 95.98 C 59.69 95.98 57.35 95.98 55.02 95.99 C 55.02 91.33 55.02 86.67 55.01 82.02 C 57.34 82.02 59.67 82.02 62.00 82.00 C 61.98 84.34 61.98 86.68 61.98 89.02 C 64.32 89.02 66.66 89.02 69.00 89.00 C 68.98 91.34 68.98 93.68 68.98 96.02 C 70.99 96.02 73.01 96.02 75.02 96.02 C 75.02 93.67 75.02 91.32 75.02 88.98 C 73.01 88.98 71.00 88.99 69.00 89.00 C 69.02 86.66 69.02 84.32 69.02 81.98 C 66.68 81.98 64.34 81.98 62.00 82.00 C 62.02 79.67 62.02 77.34 62.02 75.01 C 64.35 75.02 66.69 75.01 69.02 75.02 C 69.02 73.02 69.02 71.01 69.02 69.01 C 71.02 69.02 73.02 69.02 75.02 69.02 C 75.02 66.68 75.02 64.35 75.02 62.01 C 77.35 62.02 79.69 62.01 82.02 62.02 C 82.02 59.67 82.02 57.33 82.02 54.98 C 79.69 54.98 77.35 54.98 75.02 54.99 C 75.02 52.65 75.02 50.32 75.00 47.99 C 77.34 48.02 79.68 48.03 82.01 48.02 C 82.02 43.67 82.02 39.33 82.02 34.98 C 77.68 34.98 73.35 34.98 69.01 34.99 C 69.02 32.65 69.02 30.32 69.02 27.98 C 66.67 27.98 64.33 27.98 61.98 27.99 C 61.98 30.32 61.98 32.66 61.98 35.00 C 59.66 34.99 57.34 34.99 55.01 34.99 C 55.03 23.65 55.01 12.30 55.02 0.96 M 74.98 101.98 C 74.98 104.33 74.98 106.67 74.99 109.02 C 77.33 109.02 79.67 109.02 82.01 109.02 C 82.02 106.67 82.02 104.33 82.02 101.98 C 79.67 101.98 77.33 101.98 74.98 101.98 Z" />
<path fill="#1a171f" opacity="1.00" d=" M 136.02 1.01 C 142.67 1.03 149.32 1.03 155.98 1.00 C 155.98 3.33 155.98 5.65 155.99 7.98 C 153.99 7.98 151.98 7.98 149.98 7.99 C 149.98 10.32 149.97 12.66 150.00 15.00 C 145.33 14.97 140.65 14.98 135.98 14.99 C 135.98 17.00 135.98 19.01 135.99 21.02 C 138.32 21.02 140.65 21.02 142.98 21.01 C 142.98 23.34 142.98 25.67 142.98 27.99 C 138.32 27.97 133.66 27.96 129.00 28.00 C 129.04 21.34 129.02 14.68 129.01 8.02 C 131.34 8.02 133.68 8.02 136.02 8.02 C 136.02 5.68 136.02 3.34 136.02 1.01 Z" />
<path fill="#1a171f" opacity="1.00" d=" M 177.01 1.02 C 181.33 1.02 185.66 1.03 189.99 1.01 C 189.98 3.35 189.98 5.68 189.98 8.01 C 192.32 8.02 194.65 8.02 196.99 8.02 C 196.97 12.35 196.98 16.67 196.98 20.99 C 194.65 20.98 192.33 20.97 190.00 21.00 C 190.01 19.00 190.02 16.99 190.02 14.98 C 187.67 14.98 185.33 14.98 182.98 14.98 C 182.98 16.99 182.98 19.01 182.98 21.02 C 185.32 21.02 187.66 21.02 190.00 21.00 C 189.98 23.34 189.97 25.68 189.98 28.02 C 192.32 28.02 194.65 28.02 196.99 28.02 C 196.97 37.01 196.98 46.00 196.99 54.99 C 194.65 54.98 192.32 54.98 190.00 55.00 C 190.04 50.66 190.01 46.32 190.02 41.99 C 187.67 41.98 185.32 41.98 182.98 41.98 C 182.98 43.98 182.98 45.98 182.99 47.98 C 181.00 47.98 179.01 47.98 177.02 47.99 C 177.02 43.66 177.02 39.32 177.02 34.98 C 174.68 34.98 172.34 34.98 170.00 35.00 C 170.02 32.67 170.02 30.34 170.02 28.01 C 172.35 28.02 174.68 28.02 177.02 28.02 C 177.02 23.67 177.03 19.33 177.01 14.98 C 174.68 14.98 172.34 14.98 170.01 14.99 C 170.02 12.66 170.02 10.34 170.01 8.02 C 172.34 8.02 174.68 8.02 177.02 8.01 C 177.02 5.68 177.02 3.35 177.01 1.02 Z" />
<path fill="#1a171f" opacity="1.00" d=" M 204.02 1.01 C 219.68 1.04 235.34 1.01 250.99 1.02 C 251.00 16.67 250.94 32.33 251.04 47.98 C 235.36 47.99 219.69 47.97 204.01 47.99 C 204.03 32.33 204.02 16.67 204.02 1.01 M 209.98 7.98 C 209.98 19.33 209.98 30.67 209.98 42.02 C 221.33 42.02 232.67 42.02 244.02 42.02 C 244.02 30.67 244.02 19.33 244.02 7.98 C 232.67 7.98 221.33 7.98 209.98 7.98 Z" />
<path fill="#1a171f" opacity="1.00" d=" M 96.01 8.02 C 102.67 8.02 109.32 8.03 115.98 8.01 C 115.98 10.34 115.98 12.67 116.00 15.00 C 109.34 14.96 102.67 14.99 96.01 14.99 C 96.02 12.66 96.02 10.34 96.01 8.02 Z" />
<path fill="#1a171f" opacity="1.00" d=" M 15.01 15.02 C 21.66 15.01 28.32 15.04 34.98 15.01 C 34.99 21.66 34.96 28.32 34.99 34.98 C 28.34 34.99 21.68 34.96 15.02 34.99 C 15.01 28.34 15.04 21.68 15.01 15.02 Z" />
<path fill="#1a171f" opacity="1.00" d=" M 116.00 15.00 C 118.33 15.02 120.66 15.02 122.99 15.02 C 122.98 19.34 122.96 23.67 123.00 28.00 C 120.67 27.98 118.33 27.98 116.00 27.99 C 116.04 23.66 116.03 19.33 116.00 15.00 Z" />
<path fill="#1a171f" opacity="1.00" d=" M 150.00 15.00 C 154.33 15.04 158.66 15.01 162.99 15.02 C 162.98 17.01 162.98 19.00 162.98 20.99 C 160.64 20.98 158.31 20.98 155.98 20.98 C 155.97 23.32 155.98 25.66 156.00 27.99 C 154.00 27.98 152.01 27.98 150.01 27.98 C 150.02 23.65 150.03 19.32 150.00 15.00 Z" />
<path fill="#1a171f" opacity="1.00" d=" M 217.01 15.02 C 223.67 15.02 230.32 15.03 236.98 15.01 C 236.98 21.67 236.97 28.32 236.99 34.98 C 230.33 34.98 223.67 34.98 217.01 34.98 C 217.03 28.33 217.03 21.67 217.01 15.02 Z" />
<path fill="#1a171f" opacity="1.00" d=" M 123.00 28.00 C 125.00 28.02 127.00 28.02 129.00 28.00 C 128.97 34.67 128.96 41.33 129.01 48.00 C 127.01 47.99 125.01 47.98 123.02 47.98 C 123.02 41.32 123.04 34.66 123.00 28.00 Z" />
<path fill="#1a171f" opacity="1.00" d=" M 156.00 27.99 C 158.33 28.02 160.66 28.02 162.98 28.01 C 162.98 30.35 162.98 32.68 162.98 35.01 C 165.32 35.02 167.66 35.02 170.00 35.00 C 169.97 46.33 169.96 57.66 170.00 69.00 C 167.67 68.98 165.35 68.98 163.02 68.99 C 163.02 64.32 163.02 59.65 163.02 54.98 C 158.67 54.98 154.33 54.98 149.98 54.98 C 149.98 57.32 149.98 59.66 149.98 61.99 C 147.65 61.98 145.31 61.98 142.98 61.98 C 142.98 64.32 142.98 66.66 143.00 69.00 C 140.67 68.98 138.34 68.98 136.01 68.99 C 136.02 66.65 136.02 64.32 136.02 61.98 C 133.67 61.98 131.33 61.98 128.98 61.98 C 128.98 64.31 128.98 66.65 128.99 68.98 C 126.99 68.98 125.00 68.98 123.00 69.01 C 123.01 66.66 123.02 64.32 123.02 61.98 C 120.67 61.98 118.33 61.98 115.98 61.98 C 115.98 64.32 115.98 66.66 116.00 69.01 C 111.33 68.96 106.67 68.98 102.01 68.98 C 102.01 66.66 102.02 64.34 102.02 62.01 C 104.35 62.02 106.68 62.02 109.02 62.02 C 109.02 59.68 109.02 57.34 109.00 55.00 C 115.67 55.04 122.35 55.01 129.02 55.02 C 129.02 52.68 129.02 50.34 129.01 48.00 C 131.34 48.02 133.67 48.02 136.00 48.00 C 135.98 50.34 135.98 52.68 135.98 55.02 C 138.32 55.02 140.67 55.02 143.02 55.02 C 143.02 52.68 143.01 50.34 143.00 48.00 C 145.34 48.02 147.68 48.02 150.02 48.02 C 150.01 46.01 150.01 44.01 150.01 42.00 C 152.00 42.01 154.00 42.01 156.00 42.01 C 155.99 44.01 155.98 46.01 155.97 48.02 C 158.32 48.02 160.67 48.02 163.02 48.02 C 163.02 46.01 163.02 43.99 163.02 41.98 C 160.68 41.98 158.34 41.98 156.00 42.01 C 156.03 37.33 156.03 32.66 156.00 27.99 Z" />
<path fill="#1a171f" opacity="1.00" d=" M 136.01 35.01 C 140.67 35.02 145.32 35.03 149.98 35.01 C 149.98 37.34 149.98 39.67 150.01 42.00 C 147.66 41.98 145.32 41.98 142.98 41.98 C 142.98 43.98 142.99 45.99 143.00 48.00 C 140.66 47.98 138.33 47.98 136.00 48.00 C 136.03 43.67 136.02 39.34 136.01 35.01 Z" />
<path fill="#1a171f" opacity="1.00" d=" M 55.01 42.01 C 57.34 42.02 59.66 42.02 61.99 42.02 C 61.98 44.02 61.98 46.02 61.98 48.02 C 64.32 48.03 66.66 48.02 69.00 47.99 C 68.97 52.66 68.98 57.32 68.98 61.99 C 66.65 61.98 64.33 61.98 62.00 62.00 C 62.02 59.66 62.02 57.32 62.02 54.98 C 59.68 54.98 57.33 54.98 54.99 55.00 C 55.05 50.67 55.02 46.34 55.01 42.01 Z" />
<path fill="#1a171f" opacity="1.00" d=" M 69.02 42.01 C 71.01 42.02 73.00 42.02 74.99 42.02 C 74.98 44.01 74.98 46.00 75.00 47.99 C 73.00 47.99 71.00 47.99 69.00 47.99 C 69.02 46.00 69.02 44.01 69.02 42.01 Z" />
<path fill="#1a171f" opacity="1.00" d=" M 109.01 42.00 C 111.34 42.01 113.67 42.02 116.00 42.03 C 115.99 44.01 115.99 45.99 116.00 47.98 C 113.66 47.98 111.33 47.98 109.00 48.00 C 109.01 46.00 109.01 44.00 109.01 42.00 Z" />
<path fill="#1a171f" opacity="1.00" d=" M 8.01 55.01 C 12.34 55.02 16.66 55.03 20.98 55.01 C 20.99 59.67 20.95 64.33 21.01 68.99 C 19.00 68.98 16.99 68.98 14.97 68.98 C 14.98 70.99 14.99 72.99 15.00 74.99 C 12.67 74.98 10.33 74.98 7.99 74.99 C 8.02 72.99 8.02 70.99 8.02 68.99 C 5.67 68.98 3.32 68.98 0.97 68.98 C 0.95 66.66 0.96 64.34 0.99 62.02 C 3.33 62.02 5.68 62.02 8.02 62.02 C 8.02 59.68 8.02 57.35 8.01 55.01 Z" />
<path fill="#1a171f" opacity="1.00" d=" M 28.02 55.01 C 30.34 55.02 32.66 55.02 34.98 55.01 C 34.98 57.34 34.98 59.68 34.98 62.02 C 37.32 62.02 39.65 62.02 41.99 62.00 C 41.98 64.33 41.98 66.66 41.99 69.00 C 39.66 68.98 37.32 68.98 34.98 68.98 C 34.98 73.32 34.97 77.65 34.99 81.99 C 28.33 81.99 21.66 81.95 15.00 82.01 C 15.02 79.67 15.02 77.33 15.00 74.99 C 17.01 75.01 19.01 75.02 21.02 75.03 C 21.02 73.01 21.01 71.00 21.01 68.99 C 23.35 69.02 25.68 69.02 28.02 69.01 C 28.02 64.35 28.02 59.68 28.02 55.01 Z" />
<path fill="#1a171f" opacity="1.00" d=" M 42.02 55.01 C 46.34 55.02 50.67 55.04 54.99 55.00 C 54.98 57.33 54.98 59.67 55.00 62.01 C 50.66 61.96 46.33 61.97 41.99 62.00 C 42.02 59.67 42.02 57.34 42.02 55.01 Z" />
<path fill="#1a171f" opacity="1.00" d=" M 183.01 55.02 C 185.33 55.02 187.66 55.02 190.00 55.00 C 189.96 59.66 189.98 64.32 189.98 68.99 C 187.66 68.98 185.34 68.98 183.02 68.99 C 183.02 64.34 183.03 59.68 183.01 55.02 Z" />
<path fill="#1a171f" opacity="1.00" d=" M 204.02 55.01 C 206.01 55.02 208.00 55.02 209.99 55.02 C 209.98 57.34 209.98 59.66 209.98 61.99 C 207.99 61.98 205.99 61.98 204.00 62.00 C 204.02 59.67 204.02 57.34 204.02 55.01 Z" />
<path fill="#1a171f" opacity="1.00" d=" M 217.02 55.01 C 228.34 55.03 239.66 55.03 250.98 55.01 C 251.01 64.00 250.90 72.99 251.08 81.98 C 248.71 81.98 246.35 81.98 243.98 81.98 C 243.98 84.33 243.98 86.67 243.98 89.02 C 246.31 89.02 248.65 89.02 250.99 89.01 C 250.97 95.67 250.98 102.33 250.98 108.99 C 248.65 108.98 246.31 108.98 243.98 108.98 C 243.98 111.33 243.98 113.67 243.99 116.02 C 246.32 116.02 248.65 116.02 250.99 116.01 C 251.05 120.33 250.94 124.65 251.00 128.98 C 248.66 128.98 246.32 128.98 243.99 128.98 C 243.97 131.32 243.97 133.66 244.00 136.00 C 241.67 135.98 239.34 135.98 237.02 135.99 C 237.02 124.65 237.03 113.32 237.01 101.98 C 235.01 101.98 233.01 101.98 231.02 101.99 C 231.01 99.98 231.02 97.98 231.02 95.98 C 228.67 95.98 226.33 95.98 223.99 95.99 C 224.02 93.67 224.02 91.34 224.01 89.02 C 228.34 89.02 232.68 89.02 237.02 89.02 C 237.02 84.34 237.02 79.66 237.01 74.98 C 235.01 74.98 233.02 74.98 231.02 74.99 C 231.02 73.00 231.01 71.01 231.01 69.02 C 233.01 69.02 235.01 69.02 237.02 69.01 C 237.02 66.67 237.02 64.33 237.02 61.98 C 232.67 61.98 228.33 61.98 223.98 61.98 C 223.98 64.32 223.98 66.65 223.99 68.98 C 221.66 68.98 219.34 68.98 217.02 68.99 C 217.02 64.33 217.02 59.67 217.02 55.01 Z" />
<path fill="#1a171f" opacity="1.00" d=" M 55.00 62.01 C 57.33 62.02 59.66 62.02 62.00 62.00 C 61.98 64.32 61.98 66.65 61.99 68.98 C 59.66 68.98 57.33 68.98 55.00 69.00 C 55.02 66.67 55.02 64.34 55.00 62.01 Z" />
<path fill="#1a171f" opacity="1.00" d=" M 197.01 62.02 C 199.34 62.02 201.67 62.02 204.00 62.00 C 203.97 64.33 203.97 66.67 204.00 69.00 C 201.67 68.98 199.34 68.98 197.02 68.99 C 197.02 66.67 197.02 64.34 197.01 62.02 Z" />
<path fill="#1a171f" opacity="1.00" d=" M 41.99 69.00 C 46.33 69.03 50.66 69.03 55.00 69.00 C 54.99 70.99 54.98 72.98 54.99 74.98 C 50.67 74.98 46.35 74.97 42.03 74.99 C 42.02 73.00 42.01 71.00 41.99 69.00 Z" />
<path fill="#1a171f" opacity="1.00" d=" M 143.00 69.00 C 145.33 69.02 147.66 69.02 149.99 69.01 C 149.98 75.00 149.97 80.99 150.00 86.98 C 147.67 86.98 145.34 86.98 143.02 86.99 C 143.01 80.99 143.04 75.00 143.00 69.00 Z" />
<path fill="#1a171f" opacity="1.00" d=" M 170.00 69.00 C 172.33 69.02 174.66 69.02 176.98 69.01 C 176.98 71.01 176.98 73.02 176.98 75.02 C 181.32 75.02 185.65 75.03 189.98 75.01 C 189.98 77.34 189.98 79.67 190.00 82.00 C 185.66 81.96 181.32 81.98 176.98 81.98 C 176.98 84.31 176.98 86.65 176.99 88.98 C 174.65 88.98 172.32 88.98 169.98 88.99 C 169.98 93.33 169.98 97.67 169.98 102.02 C 172.31 102.02 174.65 102.02 176.98 102.01 C 176.98 109.00 176.97 115.99 176.99 122.99 C 174.66 122.98 172.34 122.98 170.01 122.98 C 170.03 118.32 170.02 113.65 170.02 108.99 C 169.26 108.98 167.76 108.98 167.00 108.98 C 167.04 101.64 167.02 94.31 167.02 86.98 C 163.35 86.98 159.68 86.97 156.02 86.99 C 156.02 83.00 156.02 79.00 156.02 75.01 C 160.68 75.03 165.35 75.02 170.02 75.01 C 170.02 73.01 170.02 71.00 170.00 69.00 Z" />
<path fill="#1a171f" opacity="1.00" d=" M 204.00 69.00 C 205.99 69.02 207.99 69.02 209.98 69.01 C 209.98 71.00 209.98 73.00 209.98 74.99 C 207.99 74.98 205.99 74.98 204.00 74.99 C 204.01 73.00 204.02 71.00 204.00 69.00 Z" />
<path fill="#1a171f" opacity="1.00" d=" M 1.02 75.01 C 3.34 75.02 5.67 75.03 7.99 74.99 C 7.98 77.33 7.98 79.67 7.99 82.01 C 5.67 81.98 3.34 81.98 1.01 81.99 C 1.02 79.66 1.02 77.33 1.02 75.01 Z" />
<path fill="#1a171f" opacity="1.00" d=" M 197.01 75.02 C 199.34 75.02 201.67 75.02 204.00 74.99 C 203.97 77.33 203.97 79.67 203.98 82.02 C 208.32 82.02 212.65 82.04 216.99 82.00 C 216.98 84.33 216.98 86.66 216.99 88.99 C 214.65 88.98 212.32 88.98 209.99 88.98 C 209.97 91.32 209.98 93.65 210.00 95.99 C 208.00 95.98 206.00 95.99 203.99 96.00 C 204.01 93.66 204.02 91.32 204.02 88.98 C 201.67 88.98 199.32 88.98 196.98 88.98 C 196.98 91.32 196.98 93.66 197.00 96.01 C 194.67 95.97 192.34 95.98 190.01 95.99 C 190.02 91.33 190.04 86.66 190.00 82.00 C 192.34 82.02 194.68 82.02 197.02 82.02 C 197.02 79.69 197.02 77.35 197.01 75.02 Z" />
<path fill="#1a171f" opacity="1.00" d=" M 217.00 75.02 C 219.33 75.02 221.65 75.02 223.98 75.01 C 223.98 77.33 223.98 79.66 223.99 81.98 C 221.66 81.98 219.32 81.98 216.99 82.00 C 217.00 79.67 217.00 77.35 217.00 75.02 Z" />
<path fill="#1a171f" opacity="1.00" d=" M 7.99 82.01 C 10.33 82.02 12.67 82.02 15.00 82.01 C 14.98 84.34 14.98 86.67 14.99 89.00 C 12.67 88.97 10.34 88.98 8.01 88.99 C 8.02 86.66 8.02 84.33 7.99 82.01 Z" />
<path fill="#1a171f" opacity="1.00" d=" M 42.02 82.01 C 44.01 82.01 46.00 82.02 47.98 82.01 C 47.98 84.34 47.98 86.66 47.98 88.98 C 45.99 88.98 43.99 88.99 42.00 89.00 C 42.02 86.67 42.02 84.34 42.02 82.01 Z" />
<path fill="#1a171f" opacity="1.00" d=" M 118.42 88.62 C 129.21 86.33 141.07 88.40 149.92 95.15 C 156.84 100.20 162.05 107.60 164.36 115.86 C 167.60 126.65 165.61 138.83 159.24 148.10 C 152.99 157.58 142.37 164.15 131.01 165.07 C 121.09 166.10 110.73 163.36 102.98 157.00 C 92.01 148.54 86.24 133.89 88.62 120.22 C 91.02 104.98 103.27 91.78 118.42 88.62 M 108.30 140.20 C 121.00 140.17 133.69 140.25 146.39 140.16 C 140.25 129.01 133.72 118.08 127.58 106.93 C 120.67 117.71 114.71 129.11 108.30 140.20 Z" />
<path fill="#1a171f" opacity="1.00" d=" M 14.99 89.00 C 24.00 89.03 33.00 89.03 42.00 89.00 C 41.98 91.33 41.98 93.67 42.00 96.00 C 39.66 95.98 37.32 95.98 34.98 95.98 C 34.98 97.99 34.98 100.01 34.98 102.02 C 37.32 102.02 39.66 102.02 42.00 102.00 C 41.98 104.33 41.98 106.67 42.00 109.00 C 37.33 108.96 32.67 108.99 28.01 108.98 C 28.03 104.65 28.02 100.31 28.02 95.98 C 25.67 95.98 23.33 95.98 20.98 95.98 C 20.98 100.32 20.98 104.65 20.99 108.99 C 14.33 108.97 7.67 108.98 1.01 108.99 C 1.02 104.66 1.03 100.34 1.01 96.02 C 5.68 96.02 10.34 96.02 15.01 96.02 C 15.02 93.68 15.03 91.34 14.99 89.00 Z" />
<path fill="#1a171f" opacity="1.00" d=" M 42.00 96.00 C 43.99 96.01 45.98 96.02 47.98 96.02 C 47.98 98.01 47.99 100.00 48.00 101.99 C 46.00 101.99 44.00 101.99 42.00 102.00 C 42.01 100.00 42.01 98.00 42.00 96.00 Z" />
<path fill="#1a171f" opacity="1.00" d=" M 197.00 96.01 C 199.33 96.02 201.66 96.02 203.99 96.00 C 203.98 98.00 203.98 100.00 203.99 102.00 C 201.66 101.98 199.33 101.98 197.00 101.99 C 197.02 100.00 197.02 98.00 197.00 96.01 Z" />
<path fill="#1a171f" opacity="1.00" d=" M 210.00 95.99 C 214.67 96.04 219.33 96.04 223.99 95.99 C 223.98 97.99 223.98 99.98 223.99 101.98 C 221.65 101.98 219.31 101.98 216.98 101.99 C 216.98 104.32 216.98 106.65 216.98 108.99 C 214.65 108.98 212.31 108.98 209.98 108.98 C 209.98 111.33 209.98 113.67 209.98 116.02 C 212.31 116.01 214.65 116.02 216.98 116.01 C 216.98 118.35 216.98 120.68 216.99 123.02 C 219.33 123.02 221.67 123.02 224.02 123.02 C 224.02 118.35 224.03 113.68 224.01 109.02 C 226.33 109.02 228.66 109.02 230.99 109.02 C 230.98 115.67 230.97 122.32 230.99 128.98 C 228.65 128.98 226.32 128.98 223.98 128.98 C 223.98 131.32 223.98 133.65 223.98 135.98 C 221.66 135.98 219.33 135.98 217.00 136.00 C 217.02 133.66 217.02 131.32 217.02 128.98 C 214.67 128.98 212.33 128.98 209.98 128.98 C 209.98 131.32 209.98 133.67 209.98 136.02 C 212.32 136.02 214.66 136.02 217.00 136.00 C 216.98 138.33 216.97 140.66 216.98 142.99 C 214.64 142.98 212.31 142.98 209.98 142.98 C 209.98 147.32 209.98 151.65 209.98 155.99 C 207.99 155.99 206.01 155.99 204.02 155.99 C 204.02 153.99 204.02 151.98 204.02 149.98 C 201.67 149.98 199.33 149.98 197.00 150.00 C 197.01 147.66 197.02 145.32 197.02 142.99 C 190.34 142.97 183.66 142.98 176.98 142.98 C 176.98 145.32 176.98 147.66 176.99 150.00 C 173.67 149.96 170.34 149.97 167.02 149.99 C 167.02 145.34 167.03 140.68 167.01 136.02 C 167.76 136.02 169.27 136.01 170.02 136.01 C 170.02 133.67 170.02 131.34 170.02 129.01 C 176.68 129.02 183.34 129.05 189.99 128.99 C 189.98 131.33 189.98 133.68 189.98 136.02 C 192.32 136.02 194.67 136.02 197.02 136.02 C 197.02 133.68 197.01 131.34 197.00 129.00 C 199.34 129.02 201.67 129.02 204.01 129.02 C 204.02 124.68 204.02 120.33 204.02 115.98 C 201.67 115.98 199.33 115.98 196.98 115.98 C 196.98 120.32 196.96 124.66 197.00 129.00 C 194.66 128.98 192.33 128.98 189.99 128.99 C 190.04 124.66 190.01 120.32 190.02 115.98 C 187.68 115.98 185.35 115.98 183.02 115.99 C 183.02 113.67 183.02 111.34 183.01 109.01 C 185.35 109.02 187.68 109.02 190.02 109.02 C 190.02 106.68 190.02 104.35 190.01 102.02 C 192.34 102.02 194.67 102.02 197.00 101.99 C 196.98 104.33 196.98 106.67 196.98 109.02 C 199.32 109.02 201.67 109.02 204.02 109.02 C 204.02 106.68 204.01 104.34 203.99 102.00 C 206.00 102.01 208.01 102.02 210.02 102.02 C 210.01 100.01 210.01 98.00 210.00 95.99 Z" />
<path fill="#1a171f" opacity="1.00" d=" M 48.00 101.99 C 52.67 102.04 57.33 102.03 62.00 102.00 C 61.98 104.32 61.98 106.65 61.98 108.98 C 59.65 108.98 57.32 108.98 54.98 108.98 C 54.98 111.32 54.98 113.65 54.98 115.99 C 50.65 115.98 46.32 115.97 41.99 116.00 C 42.02 113.66 42.03 111.33 42.00 109.00 C 44.00 109.01 46.01 109.02 48.02 109.02 C 48.02 106.68 48.02 104.34 48.00 101.99 Z" />
<path fill="#1a171f" opacity="1.00" d=" M 15.01 116.02 C 17.00 116.02 19.00 116.02 20.99 116.02 C 20.98 118.35 20.98 120.68 20.98 123.02 C 23.32 123.02 25.65 123.02 27.99 123.02 C 27.97 129.67 27.98 136.33 27.98 142.99 C 23.65 142.97 19.33 142.96 15.00 143.00 C 15.02 140.67 15.02 138.34 15.02 136.01 C 17.02 136.02 19.02 136.02 21.02 136.02 C 21.02 133.67 21.02 131.33 21.02 128.98 C 16.67 128.98 12.33 128.97 7.98 128.99 C 7.98 131.32 7.98 133.65 7.99 135.98 C 5.66 135.98 3.34 135.98 1.02 135.99 C 1.02 131.66 1.01 127.33 1.02 123.01 C 5.69 123.03 10.35 123.02 15.02 123.02 C 15.02 120.68 15.02 118.35 15.01 116.02 Z" />
<path fill="#1a171f" opacity="1.00" d=" M 35.02 116.01 C 37.34 116.02 39.66 116.02 41.99 116.00 C 41.98 118.33 41.98 120.68 41.98 123.02 C 43.98 123.02 45.98 123.02 47.99 123.02 C 47.98 125.01 47.99 127.01 48.00 129.00 C 43.66 128.96 39.33 128.99 35.00 128.98 C 35.03 124.66 35.02 120.33 35.02 116.01 Z" />
<path fill="#1a171f" opacity="1.00" d=" M 48.00 129.00 C 55.00 129.03 62.00 129.03 69.00 129.00 C 68.95 133.67 68.99 138.33 68.98 142.99 C 64.32 142.97 59.67 142.98 55.01 142.98 C 55.02 140.65 55.02 138.31 55.01 135.98 C 52.67 135.98 50.34 135.98 48.00 136.00 C 48.03 133.67 48.03 131.33 48.00 129.00 Z" />
<path fill="#1a171f" opacity="1.00" d=" M 42.01 136.02 C 44.00 136.02 46.00 136.02 48.00 136.00 C 47.98 138.33 47.98 140.65 47.99 142.98 C 45.99 142.98 43.99 142.98 42.00 143.00 C 42.02 140.67 42.02 138.35 42.01 136.02 Z" />
<path fill="#1a171f" opacity="1.00" d=" M 244.00 136.00 C 246.33 136.02 248.65 136.02 250.98 136.01 C 250.98 142.67 250.97 149.33 250.98 155.99 C 244.31 155.97 237.65 155.98 230.98 155.98 C 230.98 158.31 230.98 160.65 230.99 162.98 C 228.66 162.98 226.33 162.98 224.01 163.01 C 224.02 160.66 224.02 158.32 224.02 155.98 C 221.68 155.98 219.34 155.98 217.00 155.98 C 217.01 153.99 217.01 152.01 217.00 150.02 C 219.34 150.02 221.68 150.01 224.02 150.01 C 224.02 147.68 224.02 145.35 224.01 143.02 C 226.33 143.02 228.66 143.02 230.98 143.01 C 230.98 145.35 230.98 147.68 230.98 150.01 C 235.33 150.02 239.67 150.02 244.02 150.01 C 244.02 145.34 244.03 140.67 244.00 136.00 Z" />
<path fill="#1a171f" opacity="1.00" d=" M 0.96 143.02 C 5.64 143.01 10.32 143.04 15.00 143.00 C 14.98 145.34 14.98 147.68 14.98 150.02 C 16.98 150.02 18.99 150.02 20.99 150.02 C 20.98 154.34 20.96 158.67 21.01 162.99 C 19.01 162.98 17.00 162.99 15.00 163.00 C 15.02 160.66 15.02 158.32 15.02 155.98 C 12.68 155.98 10.33 155.98 7.99 156.00 C 8.02 153.99 8.02 151.99 8.02 149.98 C 5.69 149.98 3.35 149.98 1.02 149.99 C 0.97 147.67 0.95 145.34 0.96 143.02 Z" />
<path fill="#1a171f" opacity="1.00" d=" M 35.01 143.02 C 37.34 143.02 39.67 143.02 42.00 143.00 C 41.97 145.33 41.97 147.66 42.00 149.99 C 39.67 149.98 37.33 149.98 34.99 149.99 C 35.02 147.67 35.02 145.34 35.01 143.02 Z" />
<path fill="#1a171f" opacity="1.00" d=" M 75.01 143.02 C 77.33 143.02 79.66 143.02 81.99 143.01 C 81.98 145.35 81.98 147.68 81.98 150.02 C 83.65 150.02 85.31 150.01 86.98 150.01 C 86.98 152.00 86.98 153.99 86.99 155.98 C 81.00 155.98 75.00 155.98 69.01 155.98 C 69.02 153.99 69.02 152.00 69.02 150.01 C 71.02 150.01 73.02 150.02 75.02 150.02 C 75.02 147.69 75.02 145.35 75.01 143.02 Z" />
<path fill="#1a171f" opacity="1.00" d=" M 28.01 150.01 C 30.34 150.02 32.67 150.02 34.99 149.99 C 34.97 154.32 34.98 158.65 34.99 162.98 C 32.66 162.98 30.32 162.98 27.99 163.00 C 28.04 158.67 28.02 154.34 28.01 150.01 Z" />
<path fill="#1a171f" opacity="1.00" d=" M 42.00 149.99 C 44.00 150.02 45.99 150.02 47.99 150.02 C 47.98 152.01 47.98 154.00 48.00 156.00 C 46.01 155.98 44.01 155.98 42.01 155.98 C 42.01 153.98 42.01 151.99 42.00 149.99 Z" />
<path fill="#1a171f" opacity="1.00" d=" M 55.02 150.01 C 57.34 150.02 59.67 150.02 61.99 150.02 C 61.97 154.35 61.98 158.68 61.98 163.02 C 64.32 163.02 66.65 163.02 68.99 163.02 C 68.98 165.34 68.98 167.67 68.98 169.99 C 66.65 169.98 64.31 169.98 61.98 169.98 C 61.98 172.31 61.98 174.65 61.99 176.98 C 59.66 176.98 57.32 176.98 54.98 176.98 C 54.98 181.32 54.96 185.66 55.00 190.00 C 52.67 189.97 50.34 189.97 48.00 190.01 C 48.02 187.66 48.02 185.32 48.02 182.97 C 46.01 182.98 44.01 182.99 42.00 183.00 C 42.01 181.00 42.01 179.00 42.00 177.00 C 44.01 177.01 46.02 177.01 48.02 177.02 C 48.02 174.68 48.02 172.34 48.00 170.00 C 50.34 170.01 52.68 170.02 55.02 170.02 C 55.02 167.67 55.02 165.32 55.02 162.98 C 52.68 162.98 50.34 162.98 48.00 163.00 C 48.02 160.66 48.02 158.33 48.00 156.00 C 50.34 156.02 52.68 156.02 55.02 156.01 C 55.02 154.01 55.02 152.01 55.02 150.01 Z" />
<path fill="#1a171f" opacity="1.00" d=" M 176.99 150.00 C 178.99 150.01 180.99 150.02 182.99 150.03 C 182.97 154.36 182.98 158.69 182.98 163.02 C 187.65 163.02 192.32 163.02 196.99 163.01 C 196.97 172.02 196.98 181.02 196.99 190.02 C 199.33 190.02 201.67 190.01 204.02 190.02 C 204.02 185.68 204.02 181.35 204.01 177.02 C 206.01 177.01 208.01 177.01 210.00 177.00 C 209.98 179.01 209.98 181.01 209.98 183.02 C 212.32 183.02 214.65 183.02 216.99 183.02 C 216.98 185.35 216.98 187.68 216.98 190.02 C 221.65 190.02 226.32 190.02 230.99 190.01 C 230.98 192.33 230.98 194.66 230.99 196.98 C 228.65 196.98 226.32 196.98 223.98 196.99 C 223.98 203.66 223.98 210.34 223.98 217.02 C 226.31 217.02 228.65 217.02 230.98 217.01 C 230.97 219.34 230.97 221.67 231.01 224.00 C 228.66 223.98 226.32 223.98 223.98 223.98 C 223.98 226.32 223.98 228.67 223.98 231.02 C 226.32 231.02 228.66 231.01 231.00 231.01 C 230.98 232.99 230.98 234.99 230.99 236.98 C 228.65 236.98 226.32 236.98 223.98 236.98 C 223.98 239.31 223.98 241.64 223.99 243.98 C 221.66 243.97 219.33 243.98 217.00 244.01 C 217.02 241.66 217.02 239.32 217.02 236.98 C 214.68 236.98 212.34 236.98 210.01 236.98 C 210.01 234.99 210.01 233.00 210.01 231.02 C 212.34 231.02 214.68 231.02 217.01 231.02 C 217.02 228.67 217.02 226.33 217.02 223.99 C 212.67 223.97 208.33 223.98 203.99 223.98 C 203.98 228.31 203.97 232.65 203.99 236.98 C 201.66 236.98 199.32 236.98 196.99 236.98 C 196.98 241.65 196.97 246.31 196.99 250.98 C 192.33 250.98 187.67 250.97 183.01 250.99 C 183.02 248.65 183.02 246.32 183.02 243.98 C 181.00 243.98 178.99 243.98 176.98 243.98 C 176.98 246.31 176.98 248.64 176.99 250.97 C 170.00 251.03 163.01 250.94 156.02 250.99 C 156.02 248.67 156.02 246.34 156.01 244.02 C 158.34 244.02 160.68 244.02 163.02 244.02 C 163.02 241.67 163.02 239.33 163.02 236.98 C 158.67 236.97 154.33 236.98 149.98 236.98 C 149.98 241.65 149.97 246.31 149.99 250.98 C 145.33 250.98 140.67 250.97 136.01 250.99 C 136.02 248.65 136.02 246.32 136.00 244.00 C 138.34 244.02 140.68 244.02 143.02 244.02 C 143.03 237.35 143.02 230.68 143.02 224.01 C 145.34 224.02 147.66 224.02 149.98 224.01 C 149.98 226.34 149.98 228.68 149.98 231.02 C 151.99 231.02 154.00 231.02 156.02 231.02 C 156.02 224.01 156.02 217.01 156.02 210.01 C 158.34 210.02 160.67 210.02 162.99 210.02 C 162.98 212.35 162.98 214.68 162.98 217.02 C 165.32 217.02 167.67 217.02 170.01 217.02 C 170.02 214.68 170.02 212.35 170.02 210.01 C 174.34 210.02 178.67 210.04 182.99 209.99 C 182.98 212.32 182.98 214.65 182.99 216.98 C 180.98 216.98 178.98 216.98 176.98 216.98 C 176.98 219.32 176.98 221.66 177.00 224.00 C 174.66 223.98 172.32 223.98 169.98 223.98 C 169.98 228.32 169.98 232.67 169.98 237.01 C 176.66 237.02 183.34 237.02 190.02 237.02 C 190.02 228.00 190.02 218.99 190.02 209.98 C 187.68 209.98 185.33 209.98 182.99 209.99 C 183.04 203.33 183.04 196.67 182.99 190.00 C 185.33 190.01 187.67 190.02 190.02 190.02 C 190.02 187.67 190.02 185.33 190.02 182.98 C 187.68 182.98 185.34 182.98 183.00 183.00 C 183.01 180.99 183.02 178.98 183.02 176.98 C 181.01 176.98 178.99 176.98 176.98 176.98 C 176.98 178.99 176.98 181.01 176.98 183.03 C 178.98 183.02 180.99 183.01 183.00 183.00 C 182.98 185.33 182.98 187.67 182.99 190.00 C 180.99 189.98 178.98 189.98 176.98 189.98 C 176.98 194.65 176.98 199.32 176.98 204.00 C 172.32 203.97 167.66 203.98 163.00 203.98 C 163.00 201.66 163.01 199.34 163.01 197.02 C 165.34 197.02 167.68 197.02 170.02 197.02 C 170.02 190.34 170.03 183.66 170.01 176.98 C 167.68 176.98 165.34 176.98 163.01 176.98 C 163.02 173.32 163.02 169.66 163.02 166.00 C 164.35 166.01 165.68 166.02 167.02 166.02 C 167.02 162.69 167.02 159.35 167.01 156.02 C 170.35 156.02 173.68 156.02 177.02 156.02 C 177.02 154.01 177.02 152.01 176.99 150.00 M 169.98 162.99 C 169.98 165.33 169.98 167.67 169.98 170.02 C 172.33 170.02 174.67 170.02 177.02 170.02 C 177.02 167.67 177.02 165.33 177.02 162.98 C 174.67 162.98 172.33 162.98 169.98 162.99 M 196.98 196.98 C 196.97 203.66 196.98 210.34 196.98 217.02 C 203.66 217.02 210.34 217.02 217.02 217.01 C 217.02 210.34 217.02 203.66 217.02 196.98 C 210.34 196.98 203.66 196.98 196.98 196.98 Z" />
<path fill="#1a171f" opacity="1.00" d=" M 190.02 150.02 C 192.34 150.02 194.67 150.01 197.00 150.00 C 196.98 151.99 196.98 153.98 196.99 155.98 C 194.66 155.98 192.34 155.98 190.01 155.99 C 190.02 153.99 190.02 152.00 190.02 150.02 Z" />
<path fill="#1a171f" opacity="1.00" d=" M 1.01 156.02 C 3.34 156.02 5.67 156.02 7.99 156.00 C 7.98 158.33 7.98 160.67 7.99 163.01 C 5.66 162.97 3.34 162.97 1.01 162.98 C 1.02 160.66 1.02 158.34 1.01 156.02 Z" />
<path fill="#1a171f" opacity="1.00" d=" M 7.99 163.01 C 10.33 163.02 12.67 163.02 15.00 163.00 C 14.96 167.67 14.97 172.33 15.00 176.99 C 12.67 176.98 10.33 176.98 7.99 176.99 C 8.04 172.33 8.04 167.67 7.99 163.01 Z" />
<path fill="#1a171f" opacity="1.00" d=" M 21.01 162.99 C 23.33 163.02 25.66 163.03 27.99 163.00 C 27.98 165.33 27.98 167.66 28.00 170.00 C 25.67 169.98 23.34 169.98 21.02 169.98 C 21.02 167.65 21.02 165.32 21.01 162.99 Z" />
<path fill="#1a171f" opacity="1.00" d=" M 42.01 163.03 C 44.01 163.02 46.00 163.01 48.00 163.00 C 47.98 165.33 47.98 167.66 48.00 170.00 C 46.00 169.99 44.00 169.99 42.00 170.00 C 42.02 167.67 42.02 165.35 42.01 163.03 Z" />
<path fill="#1a171f" opacity="1.00" d=" M 204.01 163.02 C 206.00 163.02 207.98 163.01 209.98 163.01 C 209.97 165.34 209.98 167.67 210.01 170.00 C 208.01 169.98 206.01 169.98 204.02 169.98 C 204.02 167.66 204.02 165.34 204.01 163.02 Z" />
<path fill="#1a171f" opacity="1.00" d=" M 217.01 163.02 C 219.34 163.02 221.67 163.02 224.01 163.01 C 223.98 165.33 223.97 167.66 223.99 169.98 C 221.66 169.97 219.33 169.98 217.01 170.01 C 217.02 167.68 217.02 165.35 217.01 163.02 Z" />
<path fill="#1a171f" opacity="1.00" d=" M 244.01 163.02 C 246.34 163.02 248.66 163.02 250.99 163.02 C 250.97 169.67 250.98 176.33 250.99 182.99 C 246.33 182.98 241.67 182.97 237.01 182.99 C 237.02 180.98 237.01 178.98 237.02 176.98 C 235.01 176.98 233.00 176.98 231.00 177.00 C 231.02 174.67 231.02 172.35 231.01 170.02 C 235.34 170.02 239.68 170.02 244.02 170.02 C 244.02 167.68 244.02 165.35 244.01 163.02 Z" />
<path fill="#1a171f" opacity="1.00" d=" M 89.02 166.01 C 95.68 166.03 102.33 166.02 108.99 166.01 C 108.97 171.67 108.98 177.33 108.98 182.99 C 106.65 182.97 104.33 182.97 102.00 183.01 C 102.01 180.99 102.02 178.98 102.02 176.98 C 100.01 176.98 98.00 176.99 95.99 177.00 C 96.02 174.66 96.02 172.32 96.01 169.98 C 93.68 169.98 91.34 169.98 89.00 169.98 C 89.01 168.65 89.01 167.33 89.02 166.01 Z" />
<path fill="#1a171f" opacity="1.00" d=" M 143.02 166.01 C 145.34 166.02 147.66 166.02 149.99 166.02 C 149.97 169.67 149.98 173.33 149.98 176.99 C 147.66 176.98 145.34 176.98 143.02 176.99 C 143.02 173.33 143.02 169.67 143.02 166.01 Z" />
<path fill="#1a171f" opacity="1.00" d=" M 28.00 170.00 C 32.66 170.03 37.33 170.04 42.00 170.00 C 41.98 172.33 41.98 174.66 42.00 177.00 C 39.66 176.98 37.32 176.98 34.98 176.98 C 34.98 178.99 34.98 181.00 34.99 183.01 C 32.66 182.98 30.32 182.97 27.99 182.98 C 27.97 187.65 27.98 192.32 27.99 196.99 C 25.66 196.98 23.34 196.98 21.01 196.98 C 21.02 194.65 21.02 192.31 21.02 189.98 C 16.68 189.98 12.34 189.96 8.00 190.00 C 8.03 187.67 8.02 185.34 7.99 183.00 C 10.34 183.02 12.68 183.02 15.02 183.02 C 15.02 181.01 15.01 179.00 15.00 176.99 C 19.34 177.04 23.68 177.02 28.02 177.02 C 28.02 174.68 28.02 172.34 28.00 170.00 Z" />
<path fill="#1a171f" opacity="1.00" d=" M 75.01 170.02 C 77.33 170.02 79.66 170.02 81.98 170.01 C 81.98 172.34 81.98 174.68 81.99 177.02 C 86.65 177.01 91.32 177.04 95.99 177.00 C 95.99 179.00 95.99 181.00 95.99 183.01 C 86.99 182.95 77.99 182.98 69.00 182.99 C 69.01 181.00 69.02 179.01 69.01 177.02 C 71.01 177.02 73.02 177.02 75.02 177.02 C 75.02 174.68 75.02 172.35 75.01 170.02 Z" />
<path fill="#1a171f" opacity="1.00" d=" M 116.01 170.02 C 120.34 170.02 124.67 170.02 128.99 170.02 C 128.97 174.35 128.98 178.69 128.99 183.02 C 131.32 183.02 133.65 183.02 135.98 183.01 C 135.98 185.33 135.98 187.66 135.98 189.99 C 131.65 189.97 127.33 189.96 123.00 190.00 C 123.04 185.66 123.02 181.32 123.02 176.98 C 120.68 176.98 118.35 176.98 116.01 176.98 C 116.02 174.66 116.02 172.34 116.01 170.02 Z" />
<path fill="#1a171f" opacity="1.00" d=" M 210.01 170.00 C 212.34 170.02 214.67 170.02 217.01 170.01 C 216.98 172.34 216.97 174.66 216.98 176.99 C 214.65 176.98 212.33 176.97 210.00 177.00 C 210.02 174.67 210.02 172.33 210.01 170.00 Z" />
<path fill="#1a171f" opacity="1.00" d=" M 1.01 177.02 C 3.34 177.02 5.66 177.02 7.99 176.99 C 7.99 178.99 7.99 181.00 7.99 183.00 C 5.67 182.97 3.34 182.97 1.02 182.99 C 1.02 181.00 1.02 179.01 1.01 177.02 Z" />
<path fill="#1a171f" opacity="1.00" d=" M 224.01 177.01 C 226.34 177.02 228.67 177.02 231.00 177.00 C 230.98 178.99 230.98 180.98 230.99 182.98 C 228.66 182.98 226.34 182.98 224.02 182.99 C 224.02 181.00 224.02 179.00 224.01 177.01 Z" />
<path fill="#1a171f" opacity="1.00" d=" M 34.99 183.01 C 37.33 183.02 39.67 183.02 42.00 183.00 C 41.98 185.34 41.98 187.67 41.99 190.01 C 39.67 189.98 37.34 189.97 35.02 189.99 C 35.02 187.66 35.02 185.33 34.99 183.01 Z" />
<path fill="#1a171f" opacity="1.00" d=" M 62.01 183.02 C 64.34 183.02 66.67 183.02 69.00 182.99 C 68.97 187.67 68.98 192.34 68.99 197.02 C 75.66 197.01 82.33 197.04 89.00 197.00 C 88.98 199.33 88.98 201.67 89.00 204.00 C 86.66 203.98 84.32 203.98 81.98 203.98 C 81.98 205.99 81.98 208.00 81.98 210.02 C 84.33 210.02 86.67 210.02 89.02 210.02 C 89.02 208.01 89.01 206.01 89.00 204.00 C 91.32 204.01 93.65 204.02 95.98 204.01 C 95.98 206.01 95.98 208.01 95.98 210.01 C 97.98 210.01 99.99 210.02 101.99 210.02 C 101.98 212.34 101.98 214.66 101.98 216.99 C 99.98 216.98 97.98 216.98 95.98 216.98 C 95.98 219.31 95.98 221.64 95.99 223.98 C 91.33 223.98 86.67 223.98 82.01 223.99 C 82.02 221.65 82.02 219.31 82.02 216.98 C 79.68 216.98 77.34 216.98 75.00 216.99 C 75.04 212.65 75.02 208.32 75.01 203.98 C 73.00 203.98 70.99 203.98 68.98 203.98 C 68.98 205.98 68.98 207.98 68.99 209.98 C 64.33 209.98 59.67 209.98 55.01 209.98 C 55.02 203.32 55.04 196.66 55.00 190.00 C 57.34 190.02 59.68 190.02 62.01 190.02 C 62.02 187.68 62.02 185.35 62.01 183.02 Z" />
<path fill="#1a171f" opacity="1.00" d=" M 95.99 183.01 C 98.00 183.01 100.00 183.01 102.00 183.01 C 101.98 185.34 101.97 187.68 101.98 190.02 C 108.99 190.01 115.99 190.04 123.00 190.00 C 122.97 196.66 122.96 203.33 123.00 209.99 C 120.67 209.98 118.33 209.98 116.00 210.00 C 116.04 205.66 116.02 201.32 116.02 196.98 C 107.01 196.99 98.01 196.95 89.00 197.00 C 89.02 194.67 89.02 192.34 89.02 190.02 C 91.35 190.02 93.69 190.01 96.02 190.01 C 96.02 187.68 96.02 185.34 95.99 183.01 Z" />
<path fill="#1a171f" opacity="1.00" d=" M 143.02 183.01 C 147.34 183.03 151.67 183.02 155.99 183.01 C 155.98 185.34 155.98 187.66 155.98 189.99 C 153.98 189.98 151.98 189.98 149.98 189.98 C 149.97 192.32 149.97 194.65 150.01 196.99 C 147.67 196.98 145.33 196.98 143.00 196.99 C 143.04 192.33 143.01 187.67 143.02 183.01 Z" />
<path fill="#1a171f" opacity="1.00" d=" M 0.90 190.02 C 3.27 190.02 5.63 190.02 8.00 190.00 C 7.98 192.33 7.98 194.65 7.99 196.98 C 5.67 196.98 3.35 196.98 1.03 197.00 C 0.96 194.67 0.91 192.35 0.90 190.02 Z" />
<path fill="#1a171f" opacity="1.00" d=" M 41.99 190.01 C 43.99 190.01 46.00 190.01 48.00 190.01 C 47.97 192.33 47.98 194.65 47.99 196.98 C 46.00 196.98 44.00 196.98 42.01 196.98 C 42.02 194.66 42.02 192.33 41.99 190.01 Z" />
<path fill="#1a171f" opacity="1.00" d=" M 237.01 190.02 C 241.67 190.02 246.33 190.02 250.99 190.01 C 250.97 205.67 250.98 221.33 250.99 236.99 C 248.66 236.98 246.33 236.98 244.00 237.00 C 244.04 230.33 244.01 223.66 244.02 216.98 C 241.68 216.98 239.35 216.98 237.02 216.99 C 237.02 214.66 237.02 212.33 236.99 210.00 C 239.33 210.01 241.67 210.02 244.01 210.02 C 244.01 208.01 244.01 206.00 244.02 203.98 C 241.68 203.98 239.33 203.98 236.99 203.99 C 237.05 199.33 237.02 194.67 237.01 190.02 Z" />
<path fill="#1a171f" opacity="1.00" d=" M 136.01 197.02 C 138.33 197.02 140.66 197.02 143.00 196.99 C 142.98 199.33 142.98 201.68 142.98 204.02 C 145.32 204.02 147.66 204.01 150.01 204.00 C 149.98 206.00 149.98 207.99 149.98 209.99 C 147.65 209.98 145.31 209.98 142.98 209.98 C 142.98 212.31 142.98 214.65 142.99 216.99 C 138.32 216.97 133.65 216.98 128.98 216.98 C 128.98 219.33 128.98 221.67 128.98 224.02 C 131.31 224.02 133.65 224.02 135.98 224.01 C 135.98 226.33 135.98 228.66 135.99 230.98 C 131.66 230.99 127.33 230.95 123.00 231.01 C 123.03 224.00 123.03 217.00 123.00 209.99 C 127.34 210.04 131.68 210.01 136.02 210.02 C 136.02 205.68 136.03 201.35 136.01 197.02 Z" />
<path fill="#1a171f" opacity="1.00" d=" M 150.01 196.99 C 152.00 197.02 154.00 197.02 155.99 197.02 C 155.98 199.34 155.98 201.66 155.99 203.98 C 153.99 203.98 152.00 203.98 150.01 204.00 C 150.02 201.66 150.02 199.33 150.01 196.99 Z" />
<path fill="#1a171f" opacity="1.00" d=" M 1.02 204.01 C 16.68 204.04 32.33 204.02 47.99 204.02 C 47.97 219.67 47.98 235.33 47.99 250.99 C 32.33 251.08 16.68 250.91 1.02 250.99 C 1.00 235.33 1.03 219.67 1.02 204.01 M 7.99 209.98 C 7.97 221.33 7.98 232.67 7.98 244.02 C 19.33 244.02 30.67 244.02 42.02 244.02 C 42.02 232.67 42.02 221.33 42.02 209.98 C 30.67 209.98 19.33 209.98 7.99 209.98 Z" />
<path fill="#1a171f" opacity="1.00" d=" M 204.02 204.01 C 206.01 204.01 208.01 204.02 210.00 204.02 C 209.99 206.01 209.99 207.99 209.99 209.98 C 208.00 209.98 206.00 209.98 204.01 209.98 C 204.01 207.99 204.02 206.00 204.02 204.01 Z" />
<path fill="#1a171f" opacity="1.00" d=" M 231.01 204.02 C 233.00 204.02 234.99 204.01 236.99 203.99 C 236.98 205.99 236.98 208.00 236.99 210.00 C 235.00 209.98 233.01 209.98 231.02 209.99 C 231.02 208.00 231.01 206.01 231.01 204.02 Z" />
<path fill="#1a171f" opacity="1.00" d=" M 109.01 210.02 C 111.34 210.02 113.67 210.01 116.00 210.00 C 115.96 217.00 115.98 224.01 115.98 231.02 C 118.32 231.02 120.66 231.02 123.00 231.01 C 122.98 233.00 122.98 235.00 122.98 237.00 C 118.32 236.97 113.66 236.96 109.01 237.00 C 109.01 234.99 109.01 232.98 109.02 230.98 C 106.68 230.98 104.34 230.98 102.00 231.00 C 102.02 228.67 102.02 226.34 102.02 224.02 C 104.35 224.02 106.68 224.01 109.02 224.02 C 109.02 219.35 109.03 214.68 109.01 210.02 Z" />
<path fill="#1a171f" opacity="1.00" d=" M 15.01 217.02 C 21.67 217.01 28.33 217.03 34.99 217.01 C 34.98 223.67 34.97 230.33 34.99 236.99 C 28.33 236.98 21.67 236.97 15.02 236.99 C 15.02 230.33 15.03 223.68 15.01 217.02 Z" />
<path fill="#1a171f" opacity="1.00" d=" M 55.01 217.02 C 61.67 217.01 68.33 217.05 75.00 216.99 C 74.98 219.32 74.98 221.66 74.98 223.99 C 72.98 223.98 70.98 223.98 68.98 223.98 C 68.98 226.31 68.98 228.65 69.00 230.99 C 66.67 230.98 64.33 230.98 62.00 230.99 C 62.02 228.66 62.02 226.32 62.02 223.98 C 59.68 223.98 57.35 223.98 55.01 223.98 C 55.02 221.66 55.02 219.34 55.01 217.02 Z" />
<path fill="#1a171f" opacity="1.00" d=" M 177.00 224.00 C 178.99 224.01 180.98 224.01 182.98 224.01 C 182.98 226.33 182.98 228.65 182.99 230.98 C 181.00 230.98 179.01 230.98 177.02 230.99 C 177.02 228.66 177.01 226.33 177.00 224.00 Z" />
<path fill="#1a171f" opacity="1.00" d=" M 231.01 224.00 C 233.00 224.01 234.99 224.02 236.99 224.02 C 236.98 226.34 236.98 228.66 236.99 230.98 C 234.99 230.97 233.00 230.98 231.00 231.01 C 231.01 228.67 231.02 226.33 231.01 224.00 Z" />
<path fill="#1a171f" opacity="1.00" d=" M 55.02 231.01 C 57.34 231.02 59.67 231.02 62.00 230.99 C 61.99 233.00 61.98 235.01 61.98 237.02 C 64.32 237.01 66.67 237.01 69.02 237.02 C 69.02 235.01 69.01 233.00 69.00 230.99 C 80.00 231.04 91.00 231.03 102.00 231.00 C 101.99 233.01 101.98 235.01 101.98 237.02 C 104.32 237.02 106.66 237.01 109.01 237.00 C 108.98 239.34 108.97 241.68 108.98 244.02 C 111.32 244.02 113.65 244.02 115.99 244.01 C 115.98 246.35 115.98 248.70 115.98 251.04 C 102.32 250.97 88.67 250.99 75.01 250.98 C 75.02 248.66 75.02 246.33 75.00 244.00 C 77.34 244.01 79.68 244.02 82.02 244.02 C 82.02 241.67 82.02 239.32 82.02 236.98 C 79.67 236.98 77.32 236.98 74.98 236.98 C 74.98 239.32 74.98 241.66 75.00 244.00 C 72.99 243.98 70.98 243.98 68.98 243.98 C 68.98 246.31 68.98 248.65 68.99 250.99 C 66.67 251.04 64.35 251.06 62.02 251.04 C 62.02 248.68 62.02 246.33 62.01 243.98 C 59.68 243.98 57.34 243.98 55.01 243.98 C 55.03 239.66 55.02 235.33 55.02 231.01 Z" />
<path fill="#1a171f" opacity="1.00" d=" M 129.01 237.01 C 131.34 237.02 133.66 237.02 135.99 237.02 C 135.98 239.34 135.98 241.67 136.00 244.00 C 133.67 243.97 131.34 243.98 129.02 243.99 C 129.02 241.66 129.02 239.34 129.01 237.01 Z" />
<path fill="#1a171f" opacity="1.00" d=" M 237.01 237.01 C 239.34 237.02 241.67 237.02 244.00 237.00 C 243.98 239.34 243.97 241.67 243.98 244.01 C 246.32 244.02 248.65 244.02 250.99 244.02 C 250.98 246.34 250.98 248.67 250.98 250.99 C 246.33 250.97 241.67 250.97 237.02 251.00 C 237.02 246.33 237.03 241.67 237.01 237.01 Z" />
<path fill="#1a171f" opacity="1.00" d=" M 204.00 244.02 C 208.33 244.01 212.67 244.03 217.00 244.01 C 216.98 246.33 216.97 248.66 216.98 250.99 C 212.65 250.97 208.33 250.98 204.01 250.99 C 204.01 248.66 204.00 246.34 204.00 244.02 Z" />
</g>
</svg>
